<svg width="26" height="16" viewBox="0 0 26 16" fill="none" xmlns="http://www.w3.org/2000/svg">
<path fill-rule="evenodd" clip-rule="evenodd" d="M9.3877 14.269H16.3464V1.70798H9.3877V14.269Z" fill="#FF5F00"/>
<path fill-rule="evenodd" clip-rule="evenodd" d="M9.82945 7.98847C9.82945 5.44015 11.0173 3.17054 12.867 1.70798C11.5141 0.63819 9.80736 0 7.95215 0C3.56021 0 0 3.57662 0 7.98847C0 12.4003 3.56021 15.9769 7.95215 15.9769C9.80736 15.9769 11.5141 15.3388 12.867 14.269C11.0173 12.8062 9.82945 10.5368 9.82945 7.98847Z" fill="#EB001B"/>
<path fill-rule="evenodd" clip-rule="evenodd" d="M25.4859 12.9386V12.6286H25.4052L25.3127 12.8418L25.2199 12.6286H25.1393V12.9386H25.196V12.7047L25.2831 12.9064H25.3421L25.4291 12.7043V12.9386H25.4859ZM24.9753 12.9386V12.6814H25.0787V12.629H24.8158V12.6814H24.919V12.9386H24.9753ZM25.7342 7.98841C25.7342 12.4003 22.1737 15.9769 17.782 15.9769C15.9268 15.9769 14.2198 15.3387 12.8672 14.2689C14.7169 12.8063 15.9047 10.5367 15.9047 7.98841C15.9047 5.4403 14.7169 3.17069 12.8672 1.70791C14.2198 0.638121 15.9268 -6.86646e-05 17.782 -6.86646e-05C22.1737 -6.86646e-05 25.7342 3.57655 25.7342 7.98841Z" fill="#F79E1B"/>
</svg>
