<svg width="45" height="14" viewBox="0 0 45 14" fill="none" xmlns="http://www.w3.org/2000/svg">
<path fill-rule="evenodd" clip-rule="evenodd" d="M0.659268 4.69153C0.395537 5.09307 0.261955 5.56633 0.276458 6.04678V6.0464C0.276458 7.47276 1.18329 8.1859 2.34699 8.19011C2.77903 8.2151 3.21069 8.13768 3.60686 7.96398C4.00303 7.79028 4.35263 7.52511 4.62705 7.19047C4.83277 7.54249 5.10184 7.85356 5.42053 8.10765C5.47167 8.13612 5.53007 8.14861 5.58808 8.14307C5.64648 8.13757 5.70182 8.11426 5.74686 8.07666L5.75105 8.07892C6.02662 7.83667 6.5266 7.40043 6.81055 7.16697C6.8346 7.14324 6.85406 7.11493 6.86742 7.08375C6.8804 7.05253 6.88765 7.01914 6.88765 6.98525C6.88803 6.95132 6.88154 6.91739 6.86895 6.88598C6.85635 6.85457 6.83727 6.82614 6.81323 6.80203C6.48499 6.45879 6.29912 6.00368 6.29302 5.52851V3.38667C6.29302 3.31424 6.29342 3.24227 6.29382 3.17083L6.29383 3.17067C6.29845 2.34872 6.30268 1.59757 5.68541 1.02284C5.09497 0.553012 4.35569 0.31061 3.60152 0.339611C2.2863 0.339611 0.819948 0.825255 0.510037 2.44114C0.50393 2.47361 0.504312 2.50728 0.511182 2.53964C0.518052 2.572 0.53141 2.60257 0.550493 2.62959C0.569576 2.65656 0.594003 2.67914 0.622246 2.69638C0.650489 2.71361 0.682167 2.72492 0.714609 2.72958L2.05921 2.87248C2.12066 2.86167 2.17715 2.83156 2.21989 2.78628C2.26302 2.74104 2.29012 2.68293 2.29775 2.62099C2.35233 2.37205 2.49469 2.15136 2.69926 1.9997C2.90384 1.84805 3.1565 1.77606 3.40992 1.79673C3.55839 1.78974 3.7061 1.81844 3.84082 1.88068C3.97593 1.94292 4.09348 2.03673 4.1847 2.15418C4.3366 2.46177 4.39462 2.80745 4.35187 3.14786V3.32473C4.21693 3.34045 4.07495 3.35517 3.92853 3.37035L3.92849 3.37035C3.2065 3.4452 2.37669 3.53122 1.75159 3.80346C1.30466 3.97984 0.923379 4.29002 0.659268 4.69153ZM35.0702 0.403795C33.0705 0.403795 31.9614 2.11134 31.9611 4.30383C31.9614 6.48486 33.0552 8.23557 35.0702 8.2371C37.0056 8.2371 38.2323 6.53039 38.2323 4.37996C38.238 2.15425 37.1243 0.403795 35.0702 0.403795ZM28.3837 12.5122C28.6986 11.7358 29.3985 9.99332 29.068 9.56996C28.7432 9.1539 26.9384 9.36387 26.0832 9.46335L26.0391 9.46848C25.7842 9.49866 25.7472 9.27739 25.9746 9.1192C27.4597 8.08334 29.8932 8.38268 30.1752 8.73115C30.4573 9.07962 30.1035 11.5082 28.707 12.6629C28.6486 12.7168 28.5738 12.7489 28.4948 12.7542C28.3848 12.755 28.3222 12.6625 28.3841 12.5107L28.3837 12.5122ZM6.6697 9.26437C6.42696 9.0462 6.64413 8.74801 6.93725 8.92033C10.5134 10.9516 14.5557 12.0171 18.6673 12.0126C21.7405 11.9986 24.7808 11.3805 27.6158 10.1931C28.0555 10.0101 28.4204 10.4839 27.9922 10.7991C25.3968 12.7015 21.6351 13.7144 18.3948 13.7144C14.0706 13.7381 9.89171 12.1523 6.6697 9.26437ZM33.998 4.08219V4.10806C33.9979 4.97967 33.9976 6.78262 35.0705 6.78262C36.1456 6.78262 36.1968 5.30005 36.1926 4.39563C36.2155 3.7654 36.1456 3.13502 35.9857 2.52508C35.9422 2.32142 35.8269 2.14038 35.6609 2.01502C35.4949 1.88962 35.2892 1.82867 35.0815 1.843C34.064 1.84338 33.998 3.2187 33.998 4.0807V4.08219ZM2.29925 5.80797C2.29925 6.40251 2.60802 6.80313 3.13892 6.80313C3.33967 6.79477 3.53432 6.73256 3.70263 6.6229C3.87057 6.51324 4.00644 6.36025 4.09499 6.17997C4.3175 5.72845 4.40757 5.22279 4.35452 4.72213V4.42585C3.35341 4.42394 2.29773 4.63612 2.29773 5.80609L2.29925 5.80797ZM18.7851 4.68933C18.5214 5.09121 18.3882 5.56501 18.4039 6.04569L18.4023 6.04382C18.4023 7.47171 19.3069 8.18592 20.4709 8.19012C20.9026 8.21477 21.3339 8.13732 21.7297 7.96362C22.1258 7.78995 22.4754 7.52486 22.7499 7.19048C22.956 7.54216 23.225 7.85311 23.543 8.10767C23.5949 8.13564 23.6533 8.14771 23.7117 8.14198C23.7701 8.13625 23.8254 8.11302 23.8704 8.07557L23.8727 8.07779C24.1494 7.83592 24.6502 7.39854 24.9311 7.16584C24.9551 7.14242 24.9746 7.11437 24.9883 7.08338C25.0017 7.05239 25.0089 7.01904 25.0093 6.98526C25.0101 6.95145 25.004 6.91778 24.9914 6.88637C24.9792 6.85493 24.9605 6.82631 24.9368 6.80205C24.6101 6.45805 24.4254 6.00312 24.4196 5.52852V3.38669C24.4196 3.31598 24.42 3.24572 24.4204 3.17597L24.4204 3.17538C24.4248 2.3516 24.4289 1.59869 23.8094 1.02285C23.2193 0.553143 22.4804 0.310741 21.7274 0.339628C20.4122 0.339628 18.9412 0.825271 18.6359 2.44115C18.629 2.47375 18.629 2.50748 18.6359 2.54004C18.6432 2.57259 18.6565 2.60324 18.6756 2.63033C18.6951 2.65742 18.7199 2.68042 18.7481 2.6975C18.7767 2.71458 18.8084 2.72532 18.8416 2.7296L20.1805 2.8725C20.2427 2.86234 20.3 2.83238 20.3435 2.78706C20.387 2.74175 20.4145 2.6834 20.4225 2.62101C20.4763 2.37203 20.6187 2.15141 20.8228 1.99972C21.0274 1.84803 21.2801 1.77592 21.5335 1.79675C21.6816 1.78957 21.8293 1.81841 21.964 1.8807C22.0987 1.94298 22.2163 2.03663 22.3071 2.1542C22.4606 2.46129 22.5193 2.80724 22.4766 3.14788V3.32288C22.3453 3.3379 22.2074 3.35202 22.0653 3.36657C21.34 3.44084 20.5048 3.52636 19.8771 3.8005C19.4305 3.97702 19.0489 4.2874 18.7851 4.68933ZM20.4203 5.80797C20.4203 6.40251 20.7309 6.80313 21.263 6.80313C21.4633 6.79423 21.6576 6.7318 21.8252 6.62217C21.9931 6.51255 22.1286 6.35983 22.2171 6.17997C22.4396 5.72845 22.5297 5.22279 22.4767 4.72213V4.42585C21.4744 4.42394 20.4187 4.63612 20.4187 5.80609L20.4203 5.80797ZM43.1328 8.02367C43.1771 8.06424 43.234 8.08843 43.2935 8.09233L44.6832 8.09531C44.7465 8.09565 44.8083 8.07345 44.8572 8.03265C44.9061 7.9918 44.9389 7.93494 44.9499 7.8722V3.43294V3.43079C44.9499 2.74853 44.9499 1.80229 44.5877 1.23738C44.4145 0.969342 44.174 0.751318 43.8904 0.605282C43.6069 0.459245 43.2901 0.390085 42.9718 0.404911C42.0188 0.404911 41.4734 0.865527 41.0883 1.82879H41.0665V0.751548C41.0516 0.696259 41.0199 0.647006 40.9753 0.611242C40.9306 0.575478 40.8757 0.555303 40.8188 0.553049H39.5372C39.4719 0.5511 39.4086 0.573338 39.3589 0.615713C39.3097 0.658125 39.278 0.717503 39.27 0.782154L39.2715 7.83598C39.2731 7.90258 39.2994 7.96631 39.346 8.01396C39.3921 8.06165 39.4555 8.08954 39.5219 8.09233H40.8959C40.9303 8.09332 40.9646 8.08755 40.997 8.07517C41.0295 8.06279 41.0589 8.04415 41.0841 8.02034C41.1093 7.9965 41.1295 7.968 41.1436 7.93636C41.1577 7.90472 41.1654 7.87064 41.1665 7.83598V4.04078C41.1398 3.5841 41.215 3.12719 41.3871 2.70344C41.4524 2.54228 41.5631 2.40342 41.705 2.30343C41.8474 2.20347 42.0153 2.14643 42.1886 2.13962C43.0667 2.13962 43.058 3.09671 43.0512 3.85061C43.0506 3.91524 43.05 3.97838 43.05 4.03929V7.86919C43.0592 7.9286 43.0886 7.98313 43.1328 8.02367ZM15.5495 8.08934C15.4835 8.08574 15.4212 8.05751 15.3754 8.01024C15.3293 7.96298 15.3025 7.90012 15.3006 7.8341V4.09564C15.3209 3.65447 15.3083 3.21242 15.2625 2.7732C15.2342 2.58514 15.1331 2.41564 14.9808 2.30193C14.8285 2.18825 14.6377 2.13969 14.4499 2.16647C14.2709 2.17167 14.0969 2.22906 13.9503 2.33181C13.8034 2.43451 13.69 2.57795 13.6236 2.74447C13.5087 3.1851 13.4656 3.64133 13.4957 4.09564V7.8341C13.495 7.86845 13.4873 7.9023 13.4736 7.93375C13.4595 7.96516 13.4396 7.99362 13.4148 8.01731C13.39 8.04104 13.361 8.05942 13.329 8.0718C13.2969 8.08418 13.2625 8.09022 13.2286 8.08934H11.8477C11.7817 8.08628 11.7191 8.05835 11.6729 8.01097C11.6263 7.96363 11.5996 7.90039 11.5981 7.8341V4.09564C11.5981 4.01674 11.5994 3.93411 11.6007 3.8493L11.6007 3.8492C11.6125 3.08839 11.6271 2.15196 10.7436 2.15196C9.7882 2.15196 9.79011 3.19738 9.79158 4.00323L9.79169 4.09564V7.83486C9.79054 7.86913 9.78291 7.90276 9.76917 7.93413C9.75543 7.96546 9.73558 7.9937 9.71078 8.01731C9.68597 8.04096 9.65658 8.05949 9.62452 8.0718C9.59246 8.08414 9.55849 8.09022 9.52414 8.08934H8.14061C8.0784 8.08735 8.01886 8.0629 7.97344 8.02033C7.92802 7.97773 7.8994 7.91972 7.89329 7.85763V0.806024C7.89405 0.77175 7.9013 0.738126 7.91543 0.706756C7.92917 0.675386 7.94901 0.647187 7.97382 0.623573C7.99863 0.599922 8.02802 0.58139 8.06008 0.569087C8.09175 0.556783 8.1261 0.550631 8.16045 0.551548H9.44895C9.51231 0.553268 9.573 0.578372 9.61918 0.622045C9.66574 0.665757 9.69436 0.72502 9.69971 0.788486V1.70865H9.72337C9.83902 1.31948 10.0806 0.979801 10.4104 0.743322C10.7397 0.506843 11.139 0.387018 11.5439 0.402646C12.4095 0.402646 12.9519 0.819512 13.3381 1.70865C13.469 1.37286 13.6858 1.0775 13.9667 0.852296C14.248 0.627089 14.5831 0.48002 14.9392 0.425801C15.2953 0.371581 15.659 0.412007 15.9945 0.543333C16.3296 0.674621 16.6246 0.892339 16.849 1.17394C17.2235 1.6817 17.2118 2.38727 17.2008 3.05406C17.1989 3.16551 17.1971 3.27588 17.1971 3.38406L17.1956 7.8341C17.1948 7.86845 17.1872 7.90234 17.1731 7.93375C17.1593 7.96516 17.1395 7.99324 17.1147 8.01697C17.0899 8.04066 17.0605 8.05942 17.0288 8.0718C16.9968 8.08418 16.9624 8.09014 16.9281 8.08934H15.5495ZM25.8429 6.63223V7.65613L25.8413 7.65464C25.8432 7.71853 25.8681 7.7794 25.9116 7.82628C25.9551 7.87316 26.0138 7.90285 26.0776 7.9095C26.1081 7.90935 26.1383 7.9011 26.1654 7.886C26.9073 7.50444 27.729 7.30503 28.5634 7.30392C29.3973 7.30277 30.2198 7.50012 30.9629 7.87966C31.0003 7.89479 31.0411 7.90048 31.0808 7.89609C31.1209 7.89166 31.1594 7.87721 31.1923 7.85429C31.2255 7.83136 31.2526 7.80064 31.2709 7.76473C31.2892 7.72881 31.2984 7.68865 31.2972 7.6483V6.57144C31.2946 6.49059 31.2705 6.41165 31.2278 6.34306C31.185 6.27448 31.1247 6.2185 31.0537 6.18037C30.2541 5.76805 29.3595 5.57704 28.4618 5.6274L30.819 2.28704C31.0385 1.98633 31.1625 1.79861 31.1625 1.6538V0.789229C31.1633 0.754841 31.1568 0.721025 31.1434 0.689235C31.1304 0.657483 31.111 0.628482 31.0862 0.604525C31.0614 0.580605 31.0324 0.561883 31.0003 0.549694C30.9679 0.537505 30.9335 0.532079 30.8992 0.533646H26.3573C26.3238 0.532461 26.2898 0.538384 26.2585 0.550802C26.2268 0.56322 26.1982 0.582057 26.1741 0.606053C26.1501 0.63001 26.1314 0.658438 26.1188 0.689999C26.1062 0.721522 26.1005 0.755338 26.1016 0.789229V1.79857C26.1009 1.83281 26.1074 1.86659 26.1203 1.89822C26.1333 1.92986 26.1528 1.9584 26.1776 1.98217C26.202 2.00594 26.231 2.0247 26.2631 2.03666C26.2951 2.04862 26.3295 2.05381 26.3638 2.05194H28.7374L26.0093 5.94007C25.886 6.14907 25.8284 6.39002 25.8429 6.63223Z" fill="white"/>
</svg>
