<svg width="20" height="20" viewBox="0 0 20 20" fill="none" xmlns="http://www.w3.org/2000/svg">
<path d="M15.8333 3.33325H4.16667C3.24619 3.33325 2.5 4.07944 2.5 4.99992C2.5 5.92039 3.24619 6.66659 4.16667 6.66659H15.8333C16.7538 6.66659 17.5 5.92039 17.5 4.99992C17.5 4.07944 16.7538 3.33325 15.8333 3.33325Z" stroke="#A0AEC0" stroke-width="1.5" stroke-linecap="round" stroke-linejoin="round"/>
<path d="M4.16699 6.6665V14.9998C4.16699 15.4419 4.34259 15.8658 4.65515 16.1783C4.96771 16.4909 5.39163 16.6665 5.83366 16.6665H14.167C14.609 16.6665 15.0329 16.4909 15.3455 16.1783C15.6581 15.8658 15.8337 15.4419 15.8337 14.9998V6.6665" stroke="#A0AEC0" stroke-width="1.5" stroke-linecap="round" stroke-linejoin="round"/>
<path d="M8.33301 10H11.6663" stroke="#A0AEC0" stroke-width="1.5" stroke-linecap="round" stroke-linejoin="round"/>
</svg>
