<svg width="22" height="22" viewBox="0 0 22 22" fill="none" xmlns="http://www.w3.org/2000/svg">
<path d="M11 0.25C5.072 0.25 0.25 5.072 0.25 11C0.25 16.928 5.072 21.75 11 21.75C16.928 21.75 21.75 16.928 21.75 11C21.75 5.072 16.928 0.25 11 0.25ZM11 20.25C5.899 20.25 1.75 16.101 1.75 11C1.75 5.899 5.899 1.75 11 1.75C16.101 1.75 20.25 5.899 20.25 11C20.25 16.101 16.101 20.25 11 20.25ZM13.922 10.745C14.26 10.308 14.469 9.76604 14.469 9.17004C14.469 7.92004 13.583 6.87599 12.41 6.64099V6C12.41 5.586 12.074 5.25 11.66 5.25C11.246 5.25 10.91 5.586 10.91 6V6.58997H10.319V6C10.319 5.586 9.983 5.25 9.569 5.25C9.155 5.25 8.819 5.586 8.819 6V6.58997H7.76501C7.35101 6.58997 7.01501 6.92597 7.01501 7.33997C7.01501 7.75397 7.35101 8.08997 7.76501 8.08997H8.29599V13.91H7.76501C7.35101 13.91 7.01501 14.246 7.01501 14.66C7.01501 15.074 7.35101 15.41 7.76501 15.41H8.819V16C8.819 16.414 9.155 16.75 9.569 16.75C9.983 16.75 10.319 16.414 10.319 16V15.41H10.91V16C10.91 16.414 11.246 16.75 11.66 16.75C12.074 16.75 12.41 16.414 12.41 16V15.41H12.427C13.838 15.41 14.985 14.253 14.985 12.83C14.985 11.971 14.563 11.215 13.922 10.745ZM12.969 9.17004C12.969 9.76604 12.494 10.25 11.911 10.25H9.79599V8.08997H11.911C12.494 8.08997 12.969 8.57404 12.969 9.17004ZM12.427 13.91H9.79599V11.75H11.911H12.428C13.011 11.75 13.486 12.234 13.486 12.83C13.486 13.426 13.011 13.91 12.427 13.91Z" fill="#25314C"/>
</svg>
