<svg width="283" height="178" viewBox="0 0 283 178" fill="none" xmlns="http://www.w3.org/2000/svg">
<g opacity="0.54">
<path opacity="0.54" d="M-122.445 225.533C-131.122 214.094 -125.81 196.423 -114.623 187.435C-103.436 178.44 -88.368 176.155 -74.035 175.34C-59.702 174.519 -44.965 174.771 -31.5327 169.717C-3.73438 159.252 11.0292 129.513 22.3816 102.066C33.7341 74.6186 46.3782 44.5286 72.8519 31.05C93.6096 20.4857 118.308 22.678 141.146 18.1079C181.012 10.1333 215.526 -20.533 228.124 -59.1937" stroke="white" stroke-width="0.558431" stroke-miterlimit="10"/>
<path opacity="0.54" d="M-120.862 229.069C-129.539 217.651 -124.346 200.019 -113.279 190.932C-112.292 190.117 -111.265 189.362 -110.219 188.647C-99.5284 181.414 -85.9438 179.301 -72.9421 178.414C-70.4318 178.242 -67.9083 178.102 -65.3848 177.963C-53.5356 177.314 -41.6068 176.639 -30.5723 172.42C-26.9956 171.055 -23.631 169.366 -20.465 167.406C0.902081 154.192 13.2746 128.559 22.9646 104.609C23.6667 102.867 24.3754 101.119 25.0907 99.3636C35.6815 73.38 48.0408 46.4493 72.0307 33.0833C78.8925 29.2616 86.1849 26.6387 93.9673 25.0094C103.154 23.082 112.818 22.5455 122.296 21.9163C128.767 21.4858 135.185 21.0022 141.497 20.0021C144.464 19.5319 147.411 18.9358 150.332 18.2072C168.931 13.5774 186.331 3.54962 200.279 -9.91574C214.261 -23.4142 224.852 -40.2972 230.707 -58.8295" stroke="white" stroke-width="0.558431" stroke-miterlimit="10"/>
<path opacity="0.54" d="M-119.279 232.606C-127.963 221.201 -122.889 203.616 -111.941 194.429C-110.96 193.608 -109.947 192.839 -108.907 192.118C-98.3164 184.792 -84.8047 182.527 -71.8427 181.487C-69.3391 181.288 -66.8288 181.123 -64.3119 180.957C-52.5024 180.182 -40.6002 179.401 -29.6054 175.129C-26.042 173.744 -22.6839 172.049 -19.5246 170.075C1.79613 156.775 14.0693 131.149 23.5606 107.159C24.2494 105.417 24.9449 103.662 25.6403 101.907C35.9861 75.8903 48.0406 49.198 71.2358 35.1299C78.0115 31.0168 85.1912 27.884 93.1327 26.036C102.518 23.8503 112.539 23.4662 122.236 23.1284C128.853 22.8965 135.397 22.6713 141.854 21.903C144.894 21.5388 147.908 21.0486 150.915 20.4061C170.05 16.3261 188.198 6.093 202.491 -7.84261C216.818 -21.8047 227.429 -39.3501 233.284 -58.4718" stroke="white" stroke-width="0.558431" stroke-miterlimit="10"/>
<path opacity="0.54" d="M-117.703 236.143C-126.386 224.758 -121.439 207.212 -110.603 197.933C-109.636 197.105 -108.636 196.323 -107.602 195.595C-97.1042 188.17 -83.672 185.752 -70.7498 184.567C-68.2594 184.342 -65.7491 184.143 -63.2454 183.951C-51.4757 183.05 -39.6066 182.163 -28.6449 177.838C-25.0947 176.44 -21.7499 174.731 -18.5972 172.751C2.67052 159.372 14.8509 133.752 24.1436 109.716C24.8191 107.967 25.4947 106.212 26.1769 104.457C36.2776 78.4006 48.0341 51.9269 70.4212 37.1766C77.1174 32.7654 84.178 29.1358 92.285 27.0693C101.869 24.6187 112.248 24.3935 122.163 24.3537C128.932 24.3206 135.595 24.3604 142.199 23.8172C145.305 23.5655 148.398 23.1748 151.485 22.6184C171.156 19.0881 190.053 8.65629 204.691 -5.74958C219.361 -20.1819 229.992 -38.383 235.854 -58.0942" stroke="white" stroke-width="0.558431" stroke-miterlimit="10"/>
<path opacity="0.54" d="M-116.12 239.687C-124.803 228.314 -119.975 210.815 -109.265 201.437C-108.304 200.596 -107.318 199.814 -106.298 199.072C-95.8988 191.548 -82.5395 188.985 -69.657 187.653C-67.1732 187.395 -64.6762 187.177 -62.1725 186.958C-50.4425 185.931 -38.5999 184.931 -27.6713 180.56C-24.1344 179.142 -20.7962 177.427 -17.6567 175.433C3.56462 161.975 15.6391 136.355 24.7462 112.279C25.4086 110.531 26.0709 108.769 26.7332 107.007C36.5888 80.9175 48.0407 54.616 69.6263 39.2299C76.2365 34.514 83.191 30.3877 91.457 28.1092C101.246 25.3936 111.976 25.3274 122.11 25.5791C129.025 25.7513 135.814 26.0427 142.57 25.7314C145.742 25.5857 148.915 25.2943 152.088 24.8306C172.295 21.8567 191.94 11.2129 206.923 -3.65657C221.938 -18.5526 232.588 -37.416 238.457 -57.7167" stroke="white" stroke-width="0.558431" stroke-miterlimit="10"/>
<path opacity="0.54" d="M-114.537 243.224C-123.227 231.871 -118.518 214.405 -107.927 204.934C-106.98 204.086 -105.999 203.291 -104.986 202.543C-94.6867 194.919 -81.4001 192.21 -68.5574 190.727C-66.0802 190.442 -63.5899 190.197 -61.0995 189.952C-49.4092 188.799 -37.593 187.693 -26.7042 183.269C-23.1805 181.838 -19.8556 180.109 -16.7161 178.103C4.45886 164.558 16.4339 138.952 25.3424 114.829C25.9915 113.074 26.634 111.319 27.2831 109.55C36.8936 83.4278 48.0342 57.2654 68.825 41.2699C75.3623 36.2427 82.191 31.6329 90.6159 29.1292C100.604 26.1553 111.692 26.2414 122.051 26.7845C129.118 27.1555 136.033 27.7052 142.927 27.6257C146.173 27.586 149.412 27.4005 152.67 27.023C173.415 24.5988 193.808 13.7563 209.135 -1.58344C224.488 -16.9497 235.165 -36.4688 241.04 -57.359" stroke="white" stroke-width="0.558431" stroke-miterlimit="10"/>
<path opacity="0.54" d="M-112.954 246.76C-121.644 235.421 -117.06 218.002 -106.582 208.431C-105.648 207.576 -104.675 206.768 -103.675 206.013C-93.4679 198.297 -80.2609 195.429 -67.4645 193.806C-64.994 193.495 -62.5168 193.217 -60.0331 192.945C-48.3825 191.674 -36.5995 190.455 -25.7438 185.978C-22.2334 184.527 -18.9151 182.785 -15.7888 180.772C5.33979 167.147 17.2155 141.541 25.9253 117.379C26.5611 115.624 27.1904 113.862 27.8196 112.094C37.1851 85.9379 48.0143 59.8815 68.0103 43.3164C74.4681 37.9714 81.1776 32.878 89.7681 30.1624C99.9549 26.9235 111.4 27.1686 121.978 28.0098C129.191 28.5794 136.231 29.3874 143.272 29.5398C146.584 29.6126 149.902 29.5265 153.247 29.2351C174.528 27.3607 195.67 16.3129 211.34 0.509457C227.038 -15.3204 237.735 -35.5019 243.616 -56.9816" stroke="white" stroke-width="0.558431" stroke-miterlimit="10"/>
<path opacity="0.54" d="M-111.378 250.297C-120.074 238.978 -115.603 221.598 -105.251 211.935C-104.324 211.074 -103.363 210.259 -102.37 209.491C-92.2625 201.675 -79.1284 198.661 -66.3717 196.886C-63.9144 196.549 -61.4373 196.244 -58.9668 195.946C-47.3493 194.548 -35.5994 193.217 -24.7834 188.693C-21.2863 187.23 -17.9746 185.474 -14.8616 183.448C6.22064 169.744 17.997 144.144 26.5081 119.936C27.1241 118.174 27.74 116.412 28.356 114.644C37.4764 88.4549 47.9745 62.4714 67.1956 45.3631C73.5739 39.6869 80.1642 34.1299 88.9203 31.1891C99.3058 27.6853 111.109 28.0893 121.905 29.2219C129.27 29.9903 136.43 31.0566 143.623 31.4408C147.007 31.6196 150.392 31.6395 153.823 31.4342C175.64 30.1161 197.531 18.863 213.546 2.58929C229.588 -13.7109 240.304 -34.5481 246.186 -56.6172" stroke="white" stroke-width="0.558431" stroke-miterlimit="10"/>
<path opacity="0.54" d="M-109.795 253.841C-118.491 242.541 -114.146 225.201 -103.907 215.439C-102.993 214.564 -102.039 213.743 -101.059 212.968C-91.044 205.053 -77.9959 201.887 -65.2724 199.966C-62.8217 199.595 -60.3578 199.264 -57.8939 198.94C-46.3162 197.416 -34.5928 195.979 -23.8166 191.402C-20.3261 189.925 -17.0342 188.157 -13.9212 186.123C7.10802 172.334 18.7917 146.741 27.104 122.493C27.7068 120.731 28.3095 118.962 28.9056 117.187C37.7743 90.9652 47.9412 65.0346 66.394 47.4098C72.6928 41.3958 79.1705 35.3751 88.0789 32.2224C98.6631 28.4603 110.824 29.0166 121.838 30.4407C129.349 31.4077 136.635 32.739 143.974 33.355C147.425 33.6398 150.889 33.7656 154.399 33.6464C176.753 32.8781 199.385 21.4196 215.751 4.68232C232.138 -12.0815 242.874 -33.5876 248.762 -56.2396" stroke="white" stroke-width="0.558431" stroke-miterlimit="10"/>
<path opacity="0.54" d="M-108.212 257.378C-116.915 246.092 -112.682 228.798 -102.568 218.936C-101.661 218.055 -100.721 217.22 -99.7536 216.439C-89.8383 208.431 -76.8631 205.113 -64.1793 203.046C-61.7353 202.649 -59.278 202.291 -56.8207 201.94C-45.2828 200.291 -33.5925 198.748 -22.8494 194.118C-19.3721 192.621 -16.0869 190.846 -12.9871 188.799C7.99576 174.93 19.5801 149.344 27.7003 125.049C28.2898 123.287 28.8727 121.512 29.4556 119.737C38.0792 93.4821 47.8951 67.5714 65.5928 49.463C71.8055 43.1046 78.1706 36.6269 87.2446 33.2556C98.0275 29.2286 110.546 29.9373 121.786 31.6593C129.449 32.8317 136.854 34.4147 144.345 35.2625C147.862 35.6599 151.405 35.8851 155.002 35.852C177.892 35.64 201.273 23.9762 217.984 6.76863C234.714 -10.4588 245.477 -32.6273 251.366 -55.8688" stroke="white" stroke-width="0.558431" stroke-miterlimit="10"/>
<path opacity="0.54" d="M-106.629 260.915C-115.332 249.648 -111.225 232.388 -101.231 222.439C-100.337 221.552 -99.4093 220.711 -98.4423 219.916C-88.6198 211.809 -75.724 208.338 -63.08 206.126C-60.6492 205.702 -58.1986 205.318 -55.7479 204.94C-44.2497 203.172 -32.5859 201.51 -21.8825 196.833C-18.4185 195.323 -15.1465 193.535 -12.0534 191.475C8.88313 177.526 20.3681 151.947 28.2897 127.606C28.8659 125.837 29.4355 124.062 29.9985 122.287C38.3771 95.9989 47.8287 70.0816 64.7846 51.5096C70.9112 44.8001 77.1637 37.8786 86.4033 34.2888C97.3849 29.9968 110.261 30.8645 121.719 32.8846C129.535 34.2556 137.059 36.097 144.696 37.1766C148.286 37.6799 151.895 38.0111 155.578 38.0641C179.005 38.4019 203.134 26.5328 220.189 8.85494C237.264 -8.84276 248.047 -31.667 253.942 -55.4979" stroke="white" stroke-width="0.558431" stroke-miterlimit="10"/>
<path opacity="0.54" d="M-105.052 264.452C-113.762 253.198 -109.775 235.984 -99.8927 225.937C-99.0118 225.036 -98.0912 224.188 -97.1374 223.387C-87.4143 215.18 -74.5914 211.564 -61.9937 209.206C-59.5695 208.755 -57.1255 208.338 -54.6881 207.934C-43.2296 206.04 -31.5923 204.271 -20.922 199.542C-17.4712 198.012 -14.2059 196.217 -11.1194 194.144C9.77076 180.109 21.1497 154.536 28.8792 130.156C29.4422 128.387 29.992 126.606 30.5417 124.824C38.6752 98.5025 47.7426 72.5653 63.9766 53.5496C70.0105 46.4824 76.157 39.1172 85.5556 35.3087C96.7359 30.7585 109.969 31.7785 121.646 34.09C129.608 35.6598 137.258 37.7594 145.04 39.0708C148.696 39.6868 152.386 40.1173 156.154 40.2564C180.118 41.144 204.995 29.0695 222.395 10.9281C239.814 -7.23328 250.617 -30.7198 256.519 -55.1403" stroke="white" stroke-width="0.558431" stroke-miterlimit="10"/>
<path opacity="0.54" d="M-103.469 267.995C-112.179 256.762 -108.311 239.587 -98.5548 229.44C-97.6805 228.533 -96.7731 227.672 -95.826 226.857C-86.2022 218.552 -73.4522 214.783 -60.8942 212.279C-58.4767 211.796 -56.0459 211.359 -53.6151 210.928C-42.1964 208.908 -30.5922 207.034 -19.955 202.251C-16.5175 200.708 -13.2588 198.893 -10.1855 196.814C10.6583 182.699 21.9379 157.133 29.4687 132.706C30.0184 130.931 30.5549 129.149 31.0848 127.367C38.9733 101.006 47.6367 75.0293 63.1685 55.5897C69.1097 48.1582 75.1568 40.3625 84.7144 36.3355C96.0934 31.5203 109.685 32.6992 121.587 35.3022C129.7 37.0707 137.476 39.4352 145.405 40.9719C149.133 41.6938 152.896 42.2303 156.744 42.4555C181.244 43.8994 206.87 31.6196 224.614 13.0079C242.378 -5.6237 253.2 -29.766 259.102 -54.7759" stroke="white" stroke-width="0.558431" stroke-miterlimit="10"/>
<path opacity="0.54" d="M-101.886 271.532C-110.603 260.312 -106.854 243.184 -97.2102 232.937C-96.3492 232.023 -95.4484 231.156 -94.5145 230.328C-84.9834 221.929 -72.3129 218.008 -59.7947 215.359C-57.3838 214.849 -54.9662 214.379 -52.5421 213.928C-41.1631 211.782 -29.5854 209.795 -18.988 204.967C-15.5637 203.41 -12.3182 201.582 -9.25161 199.489C11.5392 185.295 22.7261 159.729 30.0582 135.262C30.5881 133.487 31.1113 131.699 31.628 129.917C39.2714 103.523 47.5175 77.4931 62.3671 57.6428C68.2023 49.8405 74.1567 41.6142 83.8799 37.3686C95.4576 32.2885 109.406 33.6264 121.527 36.5275C129.787 38.5012 137.688 41.1175 145.762 42.8859C149.557 43.7138 153.392 44.3497 157.327 44.6676C182.363 46.6612 208.737 34.1762 226.826 15.1008C244.934 -3.99444 255.777 -28.799 261.685 -54.3984" stroke="white" stroke-width="0.558431" stroke-miterlimit="10"/>
<path opacity="0.54" d="M-100.31 275.069C-109.026 263.869 -105.403 246.78 -95.879 236.441C-95.0312 235.521 -94.137 234.64 -93.2164 233.805C-83.7847 225.307 -71.187 221.234 -58.7085 218.439C-56.3109 217.902 -53.8933 217.406 -51.4758 216.922C-40.1299 214.657 -28.5853 212.557 -18.0277 207.676C-14.6166 206.1 -11.3778 204.265 -8.31776 202.165C12.4267 187.892 23.5143 162.332 30.6543 137.819C31.1709 136.037 31.6809 134.249 32.1776 132.467C39.576 106.04 47.3916 79.9372 61.5656 59.6895C67.2949 51.5096 73.1565 42.8661 83.0386 38.4019C94.815 33.0635 109.115 34.5537 121.461 37.7462C129.873 39.9187 137.894 42.7933 146.12 44.7935C149.981 45.734 153.896 46.4692 157.916 46.8733C183.489 49.4166 210.612 36.7328 229.045 17.1872C247.497 -2.37828 258.36 -27.8386 264.274 -54.0275" stroke="white" stroke-width="0.558431" stroke-miterlimit="10"/>
<path opacity="0.54" d="M-98.7272 278.606C-107.45 267.419 -103.94 250.377 -94.5412 239.938C-93.7 239.005 -92.8191 238.117 -91.9051 237.276C-82.5661 228.679 -70.0479 224.46 -57.6158 221.512C-55.2247 220.949 -52.8204 220.426 -50.4095 219.916C-39.1034 217.525 -27.5919 215.319 -17.0674 210.385C-13.6696 208.795 -10.444 206.947 -7.3906 204.834C13.3075 190.475 24.2957 164.922 31.237 140.369C31.7404 138.587 32.2305 136.799 32.714 135.004C39.8673 108.544 47.2259 82.3548 60.7508 61.7295C66.3609 53.1721 72.1431 44.1047 82.1908 39.422C94.1659 33.8186 108.823 35.4678 121.388 38.9517C129.945 41.3229 138.092 44.4557 146.464 46.6878C150.398 47.7343 154.379 48.5755 158.486 49.0656C184.595 52.1654 212.466 39.2696 231.244 19.2604C250.041 -0.768781 260.923 -26.8914 266.844 -53.6698" stroke="white" stroke-width="0.558431" stroke-miterlimit="10"/>
<path opacity="0.54" d="M-97.144 282.149C-105.867 270.982 -102.482 253.973 -93.1965 243.442C-92.3686 242.502 -91.5009 241.607 -90.5935 240.753C-81.3539 232.057 -68.9085 227.692 -56.5162 224.599C-54.1317 224.003 -51.7341 223.453 -49.3364 222.916C-38.07 220.399 -26.5851 218.081 -16.1002 213.1C-12.7157 211.491 -9.49671 209.636 -6.45657 207.51C14.1952 193.071 25.084 167.525 31.8266 142.926C32.3168 141.137 32.7936 139.349 33.2573 137.554C40.1655 111.06 47.0604 84.7855 59.9429 63.7761C65.4271 54.8345 71.1431 45.3565 81.3497 40.4551C93.5235 34.5868 108.539 36.395 121.329 40.1703C130.038 42.7402 138.304 46.138 146.822 48.5953C150.822 49.7544 154.883 50.6949 159.069 51.2711C185.714 54.9206 214.334 41.8262 233.456 21.3467C252.597 0.847263 263.5 -25.9311 269.428 -53.299" stroke="white" stroke-width="0.558431" stroke-miterlimit="10"/>
<path opacity="0.54" d="M-95.561 285.686C-104.284 274.532 -101.025 257.57 -91.8585 246.946C-91.0372 245.999 -90.1828 245.091 -89.282 244.23C-80.1417 235.441 -67.7692 230.917 -55.4166 227.679C-53.0388 227.056 -50.6544 226.48 -48.2633 225.917C-37.0367 223.274 -25.5782 220.85 -15.1331 215.816C-11.7618 214.193 -8.54947 212.326 -5.51596 210.186C15.0894 195.668 25.8789 170.128 32.4228 145.482C32.8997 143.694 33.3567 141.899 33.8071 140.104C40.4702 113.577 46.8751 87.2096 59.1416 65.8293C64.4933 56.497 70.143 46.6083 80.5086 41.495C92.8811 35.3684 108.254 37.3289 121.262 41.4023C130.118 44.1709 138.51 47.827 147.18 50.5161C151.253 51.7811 155.386 52.8276 159.658 53.49C186.841 57.6958 216.209 44.3894 235.675 23.4463C255.161 2.48325 266.083 -24.9575 272.011 -52.9148" stroke="white" stroke-width="0.558431" stroke-miterlimit="10"/>
<path opacity="0.54" d="M-93.9848 289.223C-102.714 278.089 -99.5683 261.166 -90.5207 250.443C-89.7127 249.483 -88.8649 248.569 -87.9773 247.701C-78.9298 238.812 -66.6368 234.143 -54.3239 230.758C-51.9593 230.109 -49.5749 229.5 -47.1971 228.917C-36.0102 226.149 -24.5849 223.618 -14.1663 218.532C-10.8082 216.896 -7.60913 215.008 -4.58224 212.862C15.9701 198.257 26.6669 172.724 33.0121 148.039C33.4758 146.244 33.9195 144.449 34.35 142.654C40.7681 116.094 46.6762 89.6206 58.3333 67.876C63.5459 58.1529 69.1361 47.8601 79.6673 42.5217C92.2385 36.1301 107.969 38.243 121.196 42.6144C130.204 45.5883 138.721 49.4961 147.531 52.4236C151.67 53.7947 155.876 54.9471 160.234 55.6956C187.96 60.4512 218.07 46.9461 237.88 25.5261C257.711 4.09939 268.652 -24.0037 274.587 -52.5505" stroke="white" stroke-width="0.558431" stroke-miterlimit="10"/>
<path opacity="0.54" d="M-92.4016 292.76C-101.131 281.639 -98.111 264.763 -89.1827 253.94C-88.3879 252.973 -87.5467 252.053 -86.6724 251.172C-77.7242 242.184 -65.504 237.362 -53.2309 233.832C-50.873 233.156 -48.5018 232.52 -46.124 231.904C-34.9768 229.016 -23.578 226.367 -13.1991 221.227C-9.85432 219.572 -6.66184 217.677 -3.6482 215.525C16.8578 200.841 27.4486 175.314 33.6084 150.582C34.0521 148.787 34.4893 146.986 34.9066 145.184C41.0796 118.591 46.471 92.0183 57.5387 69.9094C62.599 59.7955 68.1427 49.0921 78.8395 43.5417C91.6094 36.8852 107.698 39.157 121.143 43.8199C130.303 46.9925 138.94 51.1586 147.895 54.3179C152.107 55.8016 156.386 57.0534 160.83 57.8879C189.092 63.1933 219.951 49.4829 240.106 27.5992C260.281 5.70224 271.249 -23.0565 277.184 -52.1928" stroke="white" stroke-width="0.558431" stroke-miterlimit="10"/>
<path opacity="0.54" d="M-90.8188 296.304C-99.555 285.203 -96.654 268.366 -87.8449 257.444C-87.0567 256.47 -86.2288 255.537 -85.3611 254.649C-76.5056 245.568 -64.365 240.594 -52.1382 236.912C-49.7869 236.203 -47.4223 235.547 -45.0578 234.905C-33.9504 231.891 -22.578 229.136 -12.2389 223.943C-8.90732 222.274 -5.7281 220.366 -2.72108 218.2C17.7386 203.437 28.23 177.91 34.1911 153.139C34.6216 151.337 35.0389 149.536 35.4429 147.734C41.3642 121.108 46.2324 94.4358 56.7238 71.9627C61.6318 61.458 67.1358 50.3505 77.9849 44.575C90.9535 37.6601 107.399 40.0843 121.07 45.0452C130.376 48.4165 139.139 52.8409 148.246 56.2321C152.525 57.8217 156.883 59.1795 161.407 60.1002C190.205 65.9619 221.812 52.0461 242.311 29.6922C262.831 7.33163 273.819 -22.0961 279.76 -51.8152" stroke="white" stroke-width="0.558431" stroke-miterlimit="10"/>
<path opacity="0.54" d="M-89.2358 299.84C-97.9721 288.753 -95.1902 271.956 -86.5004 260.948C-85.7254 259.968 -84.9041 259.02 -84.0497 258.126C-75.2936 248.946 -63.2258 243.82 -51.0387 239.998C-48.694 239.263 -46.3427 238.574 -43.9848 237.905C-32.9105 234.766 -21.5779 231.904 -11.2719 226.659C-7.95356 224.97 -4.78098 223.055 -1.78058 220.876C18.6327 206.027 29.0248 180.513 34.7872 155.696C35.2044 153.894 35.6085 152.086 35.9926 150.284C41.6689 123.618 45.9939 96.8467 55.9224 74.0093C60.6647 63.1072 66.1357 51.5957 77.1504 45.6082C90.3177 38.4284 107.121 41.0116 121.01 46.2639C130.469 49.8339 139.351 54.5233 148.603 58.1396C152.948 59.8352 157.379 61.299 161.989 62.3058C191.324 68.7172 223.673 54.5961 244.523 31.7786C265.387 8.94773 276.395 -21.1357 282.343 -51.4443" stroke="white" stroke-width="0.558431" stroke-miterlimit="10"/>
<path opacity="0.54" d="M-87.6594 303.377C-96.4022 292.31 -93.7396 275.552 -85.169 264.445C-84.4007 263.451 -83.5926 262.504 -82.7514 261.597C-74.0947 252.318 -62.0997 247.045 -49.9524 243.071C-47.621 242.31 -45.2697 241.594 -42.925 240.899C-31.8904 237.634 -20.5843 234.666 -10.318 229.368C-7.01297 227.665 -3.84698 225.738 -0.859834 223.546C19.5071 208.616 29.7998 183.103 35.3635 158.246C35.7675 156.437 36.1517 154.629 36.5226 152.828C41.9538 126.129 45.7159 99.2576 55.1012 76.0559C59.6713 64.763 65.1158 52.8475 76.2961 46.6348C89.6687 39.1901 106.823 41.9322 120.931 47.476C130.535 51.2513 139.543 56.1924 148.948 60.0405C153.366 61.8487 157.87 63.4118 162.566 64.5047C192.437 71.4659 225.534 57.1461 246.729 33.8583C267.937 10.5638 278.965 -20.182 284.913 -51.0801" stroke="white" stroke-width="0.558431" stroke-miterlimit="10"/>
<path opacity="0.54" d="M-86.0763 306.914C-94.8192 295.86 -92.2824 279.149 -83.8244 267.942C-83.0693 266.942 -82.2745 265.982 -81.4333 265.068C-72.8693 255.689 -60.9538 250.264 -48.8462 246.151C-46.5214 245.363 -44.1834 244.615 -41.8453 243.899C-30.8505 240.515 -19.5709 237.428 -9.34435 232.083C-6.05252 230.361 -2.89978 228.427 0.0807497 226.221C20.3947 211.213 30.5947 185.706 35.9596 160.802C36.3504 158.994 36.7213 157.179 37.0724 155.371C42.2585 128.639 45.4576 101.675 54.2998 78.0959C58.6845 66.4056 64.1157 54.0861 75.4549 47.6615C89.0262 39.9585 106.538 42.8529 120.871 48.6881C130.628 52.6621 139.755 57.8615 149.306 61.9415C153.79 63.8556 158.366 65.5181 163.149 66.7037C193.557 74.2213 227.402 59.6895 248.941 35.938C270.487 12.1733 281.542 -19.2282 287.496 -50.7158" stroke="white" stroke-width="0.558431" stroke-miterlimit="10"/>
<path opacity="0.54" d="M-84.4934 310.458C-93.2429 299.423 -90.8187 282.752 -82.4865 271.453C-81.7447 270.446 -80.9565 269.472 -80.1286 268.552C-71.6639 259.08 -59.8213 253.503 -47.7601 249.238C-45.4419 248.423 -43.1104 247.648 -40.779 246.9C-29.8239 243.389 -18.5774 240.197 -8.384 234.799C-5.10543 233.063 -1.95933 231.116 1.01457 228.897C21.2821 213.803 31.3828 188.309 36.5491 163.359C36.9266 161.544 37.2776 159.729 37.6154 157.921C42.5565 131.156 45.1727 104.099 53.4983 80.1492C57.6976 68.0681 63.1221 55.3379 74.6203 48.6947C88.3904 40.7267 106.26 43.7801 120.812 49.9134C130.714 54.0861 139.967 59.5438 149.663 63.8556C154.22 65.8824 158.87 67.6442 163.738 68.9159C194.683 76.9832 229.276 62.2528 251.16 38.031C273.05 13.8027 284.125 -18.2612 290.086 -50.3383" stroke="white" stroke-width="0.558431" stroke-miterlimit="10"/>
<path opacity="0.54" d="M-82.9105 313.995C-91.66 302.973 -89.3617 286.349 -81.142 274.95C-80.4068 273.93 -79.6319 272.956 -78.8106 272.015C-70.4386 262.445 -58.6755 256.715 -46.6541 252.304C-44.3491 251.456 -42.0243 250.662 -39.6995 249.887C-28.7842 246.251 -17.5641 242.952 -7.40384 237.501C-4.13851 235.752 -1.00565 233.785 1.96163 231.566C22.1828 216.392 32.1841 190.899 37.1583 165.909C37.5226 164.094 37.8604 162.279 38.1783 160.464C42.8743 133.666 44.9011 106.523 52.71 82.1892C56.7106 69.7107 62.1351 56.5831 73.7989 49.7213C87.7676 41.4884 105.995 44.7008 120.765 51.1254C130.82 55.4969 140.198 61.2195 150.041 65.7565C154.664 67.8892 159.393 69.7571 164.341 71.1149C195.822 79.7385 231.164 64.7961 253.399 40.1041C275.633 15.4121 286.728 -17.314 292.695 -49.9806" stroke="white" stroke-width="0.558431" stroke-miterlimit="10"/>
<path opacity="0.54" d="M-81.334 317.532C-90.0902 306.53 -87.9044 289.938 -79.8107 278.447C-79.0887 277.42 -78.3204 276.433 -77.5124 275.486C-69.2397 265.816 -57.5495 259.941 -45.5677 255.384C-43.2694 254.51 -40.9512 253.682 -38.6397 252.887C-27.7641 249.125 -16.5705 245.714 -6.45 240.217C-3.19792 238.448 -0.071681 236.474 2.88235 234.242C23.0572 218.989 32.9592 193.502 37.7346 168.465C38.0791 166.644 38.4036 164.829 38.7083 163.008C43.1592 136.176 44.5898 108.954 51.8888 84.2358C55.6906 71.3666 61.1152 57.8284 72.9379 50.748C87.1054 42.2568 105.691 45.6215 120.679 52.3376C130.879 56.9077 140.384 62.8886 150.372 67.6575C155.061 69.8962 159.863 71.8699 164.897 73.3138C196.915 82.4872 233.005 67.3396 255.585 42.1839C278.164 17.0217 289.278 -16.3602 295.252 -49.6163" stroke="white" stroke-width="0.558431" stroke-miterlimit="10"/>
<path opacity="0.54" d="M-79.7511 321.068C-88.5072 310.08 -86.4473 293.535 -78.4727 281.944C-77.7574 280.911 -77.0024 279.911 -76.2075 278.957C-68.0277 269.194 -56.4169 263.167 -44.4749 258.457C-42.1832 257.557 -39.8782 256.702 -37.5733 255.874C-26.7374 251.986 -15.577 248.469 -5.4896 242.919C-2.25077 241.137 0.868858 239.15 3.81627 236.905C23.9447 221.572 33.7407 196.085 38.3241 171.009C38.6553 169.187 38.9666 167.366 39.2514 165.545C43.4572 138.68 44.2786 111.385 51.0808 86.2692C54.6707 73.0092 60.1151 59.0669 72.0968 51.7679C86.4629 43.0118 105.406 46.5288 120.62 53.5496C130.972 58.3251 140.596 64.5577 150.736 69.5584C155.499 71.9097 160.373 73.9828 165.493 75.5128C198.047 85.2359 234.886 69.8895 257.81 44.2636C280.734 18.6377 291.867 -15.4065 297.848 -49.252" stroke="white" stroke-width="0.558431" stroke-miterlimit="10"/>
<path opacity="0.54" d="M-78.1681 324.612C-86.9309 313.644 -84.9902 297.138 -77.1283 285.454C-76.4262 284.414 -75.6777 283.408 -74.8895 282.441C-66.809 272.578 -55.2711 266.399 -43.3688 261.551C-41.0838 260.623 -38.7854 259.736 -36.4937 258.888C-25.691 254.881 -14.5637 251.251 -4.51602 245.648C-1.29043 243.846 1.81594 241.853 4.75672 239.594C24.8322 224.175 34.5355 198.701 38.9202 173.579C39.2381 171.751 39.5295 169.929 39.8011 168.108C43.7619 141.21 43.9672 113.849 50.2793 88.3357C53.6572 74.6849 59.1149 60.332 71.2622 52.8144C85.827 43.7934 105.128 47.4693 120.56 54.7816C131.065 59.7557 140.808 66.2467 151.094 71.4791C155.922 73.9364 160.877 76.1155 166.076 77.7316C199.166 88.0111 236.754 72.4528 260.022 46.3632C283.29 20.2671 294.444 -14.4329 300.425 -48.8679" stroke="white" stroke-width="0.558431" stroke-miterlimit="10"/>
<path opacity="0.54" d="M-76.5916 328.149C-85.3544 317.194 -83.533 300.735 -75.7968 288.952C-75.108 287.898 -74.3662 286.885 -73.5912 285.911C-65.6101 275.95 -54.145 269.625 -42.2891 264.624C-40.0173 263.663 -37.7256 262.756 -35.4339 261.875C-24.6709 257.742 -13.5701 254 -3.56214 248.35C-0.3498 246.535 2.74994 244.528 5.67748 242.257C25.7066 226.758 35.3105 201.284 39.4965 176.122C39.8012 174.294 40.0794 172.466 40.331 170.645C44.0468 143.714 43.6295 116.293 49.4581 90.3691C52.6108 76.3341 58.095 61.5706 70.4012 53.8345C85.1648 44.5551 104.823 48.3834 120.474 55.9871C131.124 61.1599 140.993 67.9092 151.425 73.3801C156.326 75.9433 161.347 78.2284 166.632 79.9306C200.259 90.7599 238.596 75.0028 262.208 48.443C285.82 21.8832 296.994 -13.4791 302.982 -48.5035" stroke="white" stroke-width="0.558431" stroke-miterlimit="10"/>
<path opacity="0.54" d="M-75.0088 331.686C-83.7715 320.75 -82.076 304.331 -74.4524 292.449C-73.7702 291.389 -73.0483 290.362 -72.2733 289.382C-64.3849 279.321 -52.9993 272.843 -41.1831 267.704C-38.9179 266.717 -36.6329 265.783 -34.3544 264.875C-23.6312 260.617 -12.5635 256.768 -2.58864 251.066C0.617077 249.238 3.69695 247.217 6.62449 244.939C26.6073 229.361 36.1118 203.894 40.1057 178.685C40.3972 176.851 40.6555 175.023 40.8939 173.195C44.3646 146.224 43.3247 118.757 48.6698 92.4223C51.5973 78.0031 57.108 62.8223 69.5798 54.8676C84.5421 45.3233 104.558 49.3106 120.428 57.2057C131.23 62.5773 141.218 69.5914 151.803 75.2876C156.77 77.9634 161.87 80.3478 167.242 82.1361C201.405 93.5151 240.49 77.5528 264.447 50.5293C288.403 23.4993 299.604 -12.5187 305.591 -48.1327" stroke="white" stroke-width="0.558431" stroke-miterlimit="10"/>
<path opacity="0.54" d="M-73.4257 335.223C-82.9766 323.327 -80.2544 304.96 -70.9684 292.853C-61.6824 280.752 -47.4024 273.658 -33.2879 267.869C-19.1735 262.08 -4.43642 257.027 7.55854 247.608C28.9388 230.811 38.2116 202.735 41.4306 175.738C44.6561 148.734 42.9804 121.221 47.8553 94.4689C50.551 79.6656 56.1014 64.0742 68.7322 55.9009C83.8931 46.0917 104.267 50.2379 120.362 58.4311C136.456 66.6242 150.743 78.4734 167.818 84.3484C202.518 96.2837 242.351 80.116 266.652 52.6223C290.954 25.1287 302.174 -11.5517 308.168 -47.7551" stroke="white" stroke-width="0.558431" stroke-miterlimit="10"/>
</g>
</svg>
