<svg width="201" height="201" viewBox="0 0 201 201" fill="none" xmlns="http://www.w3.org/2000/svg">
<g clip-path="url(#clip0_1456_12017)">
<path d="M0 0H201V201H0V0Z" fill="#DE2910"/>
<path d="M24.3912 63.1L37.6872 20.1L50.9832 63.1L16.1604 36.4922H59.2141L24.3912 63.1Z" fill="#FFDE00"/>
<path d="M82.5297 22.291L69.8196 27.086L78.9852 14.4038L76.8586 30.1396L71.12 17.3698L82.5297 22.291Z" fill="#FFDE00"/>
<path d="M97.4541 45.7297L83.2407 44.0439L96.5352 37.1316L89.2278 50.0081L87.7401 36.0873L97.4541 45.7297Z" fill="#FFDE00"/>
<path d="M94.8598 79.1616L82.6853 69.9461L96.6733 70.7069L86.204 78.692L89.1401 65.0033L94.8598 79.1616Z" fill="#FFDE00"/>
<path d="M75.9345 99.5831L68.5887 85.6593L80.3857 92.1697L68.6341 95.5555L75.8408 83.5529L75.9345 99.5831Z" fill="#FFDE00"/>
</g>
<defs>
<clipPath id="clip0_1456_12017">
<rect width="201" height="201" rx="100.5" fill="white"/>
</clipPath>
</defs>
</svg>
