<svg width="20" height="20" viewBox="0 0 20 20" fill="none" xmlns="http://www.w3.org/2000/svg">
<path d="M14.9993 6.6665H8.33268C7.41221 6.6665 6.66602 7.4127 6.66602 8.33317V14.9998C6.66602 15.9203 7.41221 16.6665 8.33268 16.6665H14.9993C15.9198 16.6665 16.666 15.9203 16.666 14.9998V8.33317C16.666 7.4127 15.9198 6.6665 14.9993 6.6665Z" stroke="#A0AEC0" stroke-width="1.5" stroke-linecap="round" stroke-linejoin="round"/>
<path d="M13.333 6.66659V4.99992C13.333 4.55789 13.1574 4.13397 12.8449 3.82141C12.5323 3.50885 12.1084 3.33325 11.6663 3.33325H4.99967C4.55765 3.33325 4.13372 3.50885 3.82116 3.82141C3.5086 4.13397 3.33301 4.55789 3.33301 4.99992V11.6666C3.33301 12.1086 3.5086 12.5325 3.82116 12.8451C4.13372 13.1577 4.55765 13.3333 4.99967 13.3333H6.66634" stroke="#A0AEC0" stroke-width="1.5" stroke-linecap="round" stroke-linejoin="round"/>
</svg>
