<svg width="20" height="20" viewBox="0 0 20 20" fill="none" xmlns="http://www.w3.org/2000/svg">
<path d="M10.8332 14.375H4.1665C2.85234 14.375 2.2915 13.8142 2.2915 12.5V8.12499H16.0415V8.33333C16.0415 8.67833 16.3215 8.95833 16.6665 8.95833C17.0115 8.95833 17.2915 8.67833 17.2915 8.33333V5.83333C17.2915 3.81833 16.1815 2.70833 14.1665 2.70833H4.1665C2.1515 2.70833 1.0415 3.81833 1.0415 5.83333V12.5C1.0415 14.515 2.1515 15.625 4.1665 15.625H10.8332C11.1782 15.625 11.4582 15.345 11.4582 15C11.4582 14.655 11.1782 14.375 10.8332 14.375ZM4.1665 3.95833H14.1665C15.4807 3.95833 16.0415 4.51916 16.0415 5.83333V6.87499H2.2915V5.83333C2.2915 4.51916 2.85234 3.95833 4.1665 3.95833ZM7.49984 11.0417C7.84484 11.0417 8.12484 11.3217 8.12484 11.6667C8.12484 12.0117 7.84484 12.2917 7.49984 12.2917H4.99984C4.65484 12.2917 4.37484 12.0117 4.37484 11.6667C4.37484 11.3217 4.65484 11.0417 4.99984 11.0417H7.49984ZM18.9107 15.5942C19.0073 15.8275 18.954 16.0967 18.7749 16.275L17.9415 17.1084C17.8199 17.23 17.6598 17.2917 17.4998 17.2917C17.3398 17.2917 17.1798 17.2309 17.0581 17.1084C16.8823 16.9325 16.8332 16.6775 16.9107 16.4583H14.5832C13.549 16.4583 12.7082 15.6175 12.7082 14.5833V14.1667C12.7082 13.8217 12.9882 13.5417 13.3332 13.5417C13.6782 13.5417 13.9582 13.8217 13.9582 14.1667V14.5833C13.9582 14.9283 14.2382 15.2083 14.5832 15.2083H18.3332C18.5857 15.2083 18.814 15.3608 18.9107 15.5942ZM18.9582 13.3333V13.75C18.9582 14.095 18.6782 14.375 18.3332 14.375C17.9882 14.375 17.7082 14.095 17.7082 13.75V13.3333C17.7082 12.9883 17.4282 12.7083 17.0832 12.7083H13.3332C13.0807 12.7083 12.8523 12.5558 12.7557 12.3225C12.659 12.0892 12.7123 11.82 12.8915 11.6416L13.7248 10.8083C13.969 10.5641 14.3648 10.5641 14.609 10.8083C14.7848 10.9841 14.834 11.2392 14.7565 11.4583H17.0832C18.1173 11.4583 18.9582 12.2992 18.9582 13.3333Z" fill="#194BFB"/>
</svg>
