<svg width="20" height="21" viewBox="0 0 20 21" fill="none" xmlns="http://www.w3.org/2000/svg">
<path d="M10 5.13333H18.3333" stroke="#718096" stroke-width="1.5" stroke-miterlimit="10" stroke-linecap="round" stroke-linejoin="round"/>
<path d="M11.85 2.16666H16.4833C17.9667 2.16666 18.3333 2.53332 18.3333 3.99999V7.42499C18.3333 8.89166 17.9667 9.25832 16.4833 9.25832H11.85C10.3667 9.25832 10 8.89166 10 7.42499V3.99999C10 2.53332 10.3667 2.16666 11.85 2.16666Z" stroke="#718096" stroke-width="1.5" stroke-linecap="round" stroke-linejoin="round"/>
<path d="M1.66675 14.7167H10.0001" stroke="#718096" stroke-width="1.5" stroke-miterlimit="10" stroke-linecap="round" stroke-linejoin="round"/>
<path d="M3.51675 11.75H8.15008C9.63341 11.75 10.0001 12.1167 10.0001 13.5833V17.0083C10.0001 18.475 9.63341 18.8417 8.15008 18.8417H3.51675C2.03342 18.8417 1.66675 18.475 1.66675 17.0083V13.5833C1.66675 12.1167 2.03342 11.75 3.51675 11.75Z" stroke="#718096" stroke-width="1.5" stroke-linecap="round" stroke-linejoin="round"/>
<path d="M18.3333 13C18.3333 16.225 15.725 18.8333 12.5 18.8333L13.375 17.375" stroke="#718096" stroke-width="1.5" stroke-linecap="round" stroke-linejoin="round"/>
<path d="M1.66675 7.99999C1.66675 4.77499 4.27508 2.16666 7.50008 2.16666L6.62509 3.62499" stroke="#718096" stroke-width="1.5" stroke-linecap="round" stroke-linejoin="round"/>
</svg>
