<svg width="20" height="20" viewBox="0 0 20 20" fill="none" xmlns="http://www.w3.org/2000/svg">
<path d="M11.75 10C11.75 10.414 11.414 10.75 11 10.75H5C4.586 10.75 4.25 10.414 4.25 10C4.25 9.586 4.586 9.25 5 9.25H11C11.414 9.25 11.75 9.586 11.75 10ZM5 6.75H8C8.414 6.75 8.75 6.414 8.75 6C8.75 5.586 8.414 5.25 8 5.25H5C4.586 5.25 4.25 5.586 4.25 6C4.25 6.414 4.586 6.75 5 6.75ZM11 13.25H5C4.586 13.25 4.25 13.586 4.25 14C4.25 14.414 4.586 14.75 5 14.75H11C11.414 14.75 11.75 14.414 11.75 14C11.75 13.586 11.414 13.25 11 13.25ZM19.75 9.5V17C19.75 18.517 18.517 19.75 17 19.75H4C1.582 19.75 0.25 18.418 0.25 16V4C0.25 1.582 1.582 0.25 4 0.25H12C14.418 0.25 15.75 1.582 15.75 4V7.25H17.5C18.74 7.25 19.75 8.259 19.75 9.5ZM14.551 18.25C14.359 17.875 14.25 17.45 14.25 17V4C14.25 2.423 13.577 1.75 12 1.75H4C2.423 1.75 1.75 2.423 1.75 4V16C1.75 17.577 2.423 18.25 4 18.25H14.551ZM18.25 9.5C18.25 9.086 17.913 8.75 17.5 8.75H15.75V17C15.75 17.689 16.311 18.25 17 18.25C17.689 18.25 18.25 17.689 18.25 17V9.5Z" fill="#25314C"/>
</svg>
