<svg width="20" height="20" viewBox="0 0 20 20" fill="none" xmlns="http://www.w3.org/2000/svg">
<path d="M9.99984 1.04166C5.05984 1.04166 1.0415 5.06 1.0415 10C1.0415 14.94 5.05984 18.9583 9.99984 18.9583C14.9398 18.9583 18.9582 14.94 18.9582 10C18.9582 5.06 14.9398 1.04166 9.99984 1.04166ZM9.99984 17.7083C5.749 17.7083 2.2915 14.2508 2.2915 10C2.2915 5.74916 5.749 2.29166 9.99984 2.29166C14.2507 2.29166 17.7082 5.74916 17.7082 10C17.7082 14.2508 14.2507 17.7083 9.99984 17.7083ZM10.8215 9.56004L9.4815 9.2275C9.27483 9.17583 9.09901 9.05995 8.96651 8.89079C8.84151 8.73245 8.77234 8.52917 8.77234 8.32C8.77234 7.80417 9.19149 7.38505 9.70733 7.38505H10.2907C10.7673 7.38505 11.1665 7.74338 11.2207 8.21838C11.259 8.56172 11.5648 8.81004 11.9115 8.77004C12.2548 8.7317 12.5015 8.42245 12.4632 8.07912C12.3507 7.07745 11.5757 6.30498 10.6057 6.16414V5.83333C10.6057 5.48833 10.3257 5.20833 9.98066 5.20833C9.63566 5.20833 9.35566 5.48833 9.35566 5.83333V6.17004C8.31816 6.34004 7.52234 7.23502 7.52234 8.31919C7.52234 8.80836 7.68651 9.2867 7.98235 9.66003C8.27901 10.0425 8.70234 10.3191 9.17734 10.4391L10.5173 10.7717C10.9348 10.8775 11.2265 11.2508 11.2265 11.6792C11.2265 11.9275 11.129 12.1617 10.9515 12.3392C10.774 12.5167 10.5398 12.6141 10.2915 12.6141H9.70817C9.2315 12.6141 8.83233 12.2558 8.77817 11.7808C8.73983 11.4375 8.42649 11.1875 8.08733 11.2291C7.74399 11.2675 7.49734 11.5766 7.53567 11.92C7.6465 12.9091 8.40316 13.6767 9.35566 13.8309V14.1667C9.35566 14.5117 9.63566 14.7917 9.98066 14.7917C10.3257 14.7917 10.6057 14.5117 10.6057 14.1667V13.835C11.0682 13.7675 11.4973 13.5625 11.8348 13.225C12.2482 12.8117 12.4765 12.2633 12.4765 11.6808C12.4765 10.6783 11.7973 9.80754 10.8215 9.56004Z" fill="#194BFB"/>
</svg>
