<svg width="20" height="20" viewBox="0 0 20 20" fill="none" xmlns="http://www.w3.org/2000/svg">
<path d="M18.3333 6.89167V3.52501C18.3333 2.20001 17.8 1.66667 16.475 1.66667H13.1083C11.7833 1.66667 11.25 2.20001 11.25 3.52501V6.89167C11.25 8.21667 11.7833 8.75001 13.1083 8.75001H16.475C17.8 8.75001 18.3333 8.21667 18.3333 6.89167Z" stroke="#194BFB" stroke-width="1.5" stroke-linecap="round" stroke-linejoin="round"/>
<path d="M8.74984 7.10001V3.31667C8.74984 2.14167 8.2165 1.66667 6.8915 1.66667H3.52484C2.19984 1.66667 1.6665 2.14167 1.6665 3.31667V7.09167C1.6665 8.27501 2.19984 8.74167 3.52484 8.74167H6.8915C8.2165 8.75 8.74984 8.27501 8.74984 7.10001Z" stroke="#194BFB" stroke-width="1.5" stroke-linecap="round" stroke-linejoin="round"/>
<path d="M8.74984 16.475V13.1083C8.74984 11.7833 8.2165 11.25 6.8915 11.25H3.52484C2.19984 11.25 1.6665 11.7833 1.6665 13.1083V16.475C1.6665 17.8 2.19984 18.3333 3.52484 18.3333H6.8915C8.2165 18.3333 8.74984 17.8 8.74984 16.475Z" stroke="#194BFB" stroke-width="1.5" stroke-linecap="round" stroke-linejoin="round"/>
<path d="M12.0835 14.5833H17.0835" stroke="#194BFB" stroke-width="1.5" stroke-linecap="round"/>
<path d="M14.5835 17.0833V12.0833" stroke="#194BFB" stroke-width="1.5" stroke-linecap="round"/>
</svg>
