<svg width="29" height="38" viewBox="0 0 29 38" fill="none" xmlns="http://www.w3.org/2000/svg">
<path d="M27.9801 35.7471C25.0864 37.1274 21.8869 37.754 18.6825 37.568C15.478 37.382 12.3737 36.3895 9.66169 34.6839C6.94962 32.9783 4.71883 30.6156 3.17909 27.8179C1.63935 25.0202 0.841238 21.8796 0.859814 18.6912C0.87839 15.5028 1.71304 12.3715 3.28528 9.59176C4.85751 6.812 7.11568 4.47507 9.84742 2.80075C12.5792 1.12643 15.6948 0.169714 18.9012 0.0205794C22.1077 -0.128555 25.2996 0.534786 28.177 1.94823L24.0828 10.171C22.6095 9.44728 20.9751 9.10768 19.3332 9.184C17.6913 9.2604 16.096 9.75024 14.6972 10.6076C13.2984 11.465 12.1422 12.6615 11.3371 14.085C10.532 15.5083 10.1047 17.1117 10.0952 18.7443C10.0856 20.3769 10.4943 21.985 11.2827 23.4176C12.0711 24.8502 13.2134 26.06 14.6021 26.9334C15.9908 27.8067 17.5804 28.3149 19.2212 28.4102C20.8621 28.5054 22.5003 28.1845 23.982 27.4778L27.9801 35.7471Z" fill="url(#paint0_linear_1482_5688)"/>
<path d="M19.5611 25.0665C23.1699 25.0665 26.0954 22.1606 26.0954 18.5761C26.0954 14.9915 23.1699 12.0856 19.5611 12.0856C15.9523 12.0856 13.0267 14.9915 13.0267 18.5761C13.0267 22.1606 15.9523 25.0665 19.5611 25.0665Z" fill="#11CABE"/>
<defs>
<linearGradient id="paint0_linear_1482_5688" x1="39.5968" y1="9.87792" x2="-0.49037" y2="13.0135" gradientUnits="userSpaceOnUse">
<stop stop-color="#246CF9"/>
<stop offset="0.0001" stop-color="#1E68F6"/>
<stop offset="1" stop-color="#0047D0"/>
</linearGradient>
</defs>
</svg>
