<svg width="20" height="21" viewBox="0 0 20 21" fill="none" xmlns="http://www.w3.org/2000/svg">
<path d="M14.8251 19.4583H5.17508C2.89175 19.4583 1.04175 17.6 1.04175 15.3167V9.14166C1.04175 8.00833 1.74175 6.58333 2.64175 5.88333L7.13342 2.38333C8.48342 1.33333 10.6417 1.28333 12.0417 2.26667L17.1917 5.875C18.1834 6.56666 18.9584 8.05 18.9584 9.25833V15.325C18.9584 17.6 17.1084 19.4583 14.8251 19.4583ZM7.90008 3.36667L3.40841 6.86666C2.81675 7.33333 2.29175 8.39166 2.29175 9.14166V15.3167C2.29175 16.9083 3.58341 18.2083 5.17508 18.2083H14.8251C16.4167 18.2083 17.7084 16.9167 17.7084 15.325V9.25833C17.7084 8.45833 17.1334 7.35 16.4751 6.9L11.3251 3.29167C10.3751 2.625 8.80841 2.65833 7.90008 3.36667Z" fill="white"/>
<path d="M10 16.125C9.65833 16.125 9.375 15.8417 9.375 15.5V13C9.375 12.6583 9.65833 12.375 10 12.375C10.3417 12.375 10.625 12.6583 10.625 13V15.5C10.625 15.8417 10.3417 16.125 10 16.125Z" fill="white"/>
</svg>
