<svg width="20" height="21" viewBox="0 0 20 21" fill="none" xmlns="http://www.w3.org/2000/svg">
<path d="M17.3027 10.9238C17.6309 10.4902 17.8125 9.959 17.8125 9.40627C17.8125 8.52931 17.3223 7.69923 16.5332 7.23634C16.3301 7.11719 16.0988 7.05448 15.8633 7.0547H11.1797L11.2969 4.65431C11.3242 4.07423 11.1191 3.52345 10.7207 3.10353C10.5252 2.89655 10.2893 2.73188 10.0276 2.61967C9.76588 2.50747 9.48395 2.45013 9.19922 2.45119C8.18359 2.45119 7.28516 3.13478 7.01562 4.1133L5.33789 10.1875H2.8125C2.4668 10.1875 2.1875 10.4668 2.1875 10.8125V17.9219C2.1875 18.2676 2.4668 18.5469 2.8125 18.5469H14.5566C14.7363 18.5469 14.9121 18.5117 15.0742 18.4414C16.0039 18.0449 16.6035 17.1367 16.6035 16.1289C16.6035 15.8828 16.5684 15.6406 16.498 15.4063C16.8262 14.9727 17.0078 14.4414 17.0078 13.8887C17.0078 13.6426 16.9727 13.4004 16.9023 13.166C17.2305 12.7324 17.4121 12.2012 17.4121 11.6485C17.4082 11.4024 17.373 11.1582 17.3027 10.9238ZM3.59375 17.1406V11.5938H5.17578V17.1406H3.59375ZM16.0234 10.2461L15.5957 10.6172L15.8672 11.1133C15.9566 11.2767 16.003 11.4602 16.002 11.6465C16.002 11.9688 15.8613 12.2754 15.6191 12.4863L15.1914 12.8574L15.4629 13.3535C15.5523 13.5169 15.5987 13.7004 15.5977 13.8867C15.5977 14.209 15.457 14.5156 15.2148 14.7266L14.7871 15.0977L15.0586 15.5938C15.148 15.7572 15.1944 15.9407 15.1934 16.127C15.1934 16.5645 14.9355 16.959 14.5371 17.1387H6.42578V11.5313L8.36914 4.49025C8.41925 4.30978 8.52682 4.15056 8.67555 4.03673C8.82428 3.92289 9.00607 3.86063 9.19336 3.85939C9.3418 3.85939 9.48828 3.90236 9.60547 3.99025C9.79883 4.13478 9.90234 4.35353 9.89062 4.58595L9.70312 8.46095H15.8438C16.1914 8.67384 16.4062 9.03322 16.4062 9.40627C16.4062 9.72853 16.2656 10.0332 16.0234 10.2461Z" fill="#718096"/>
</svg>
