<svg width="201" height="201" viewBox="0 0 201 201" fill="none" xmlns="http://www.w3.org/2000/svg">
<g clip-path="url(#clip0_1456_11764)">
<path d="M0 0H201V67H0V0Z" fill="#FF9933"/>
<path d="M0 67H201V134H0V67Z" fill="white"/>
<path d="M0 134H201V201H0V134Z" fill="#128807"/>
<path d="M99.79 127.633C114.15 127.633 125.792 115.635 125.792 100.833C125.792 86.0322 114.15 74.0334 99.79 74.0334C85.4295 74.0334 73.7881 86.0322 73.7881 100.833C73.7881 115.635 85.4295 127.633 99.79 127.633Z" fill="#000088"/>
<path d="M99.79 124.283C112.355 124.283 122.542 113.785 122.542 100.833C122.542 87.8823 112.355 77.3834 99.79 77.3834C87.2246 77.3834 77.0383 87.8823 77.0383 100.833C77.0383 113.785 87.2246 124.283 99.79 124.283Z" fill="white"/>
<path d="M99.7901 105.523C102.303 105.523 104.34 103.424 104.34 100.833C104.34 98.2432 102.303 96.1434 99.7901 96.1434C97.277 96.1434 95.2397 98.2432 95.2397 100.833C95.2397 103.424 97.277 105.523 99.7901 105.523Z" fill="#000088"/>
<path d="M122.198 105.057C122.821 105.141 123.393 104.689 123.475 104.047C123.557 103.405 123.118 102.816 122.495 102.732C121.872 102.647 121.301 103.099 121.219 103.741C121.137 104.383 121.575 104.972 122.198 105.057Z" fill="#000088"/>
<path d="M99.7898 124.283L100.57 110.213L99.7898 103.513L99.0098 110.213L99.7898 124.283Z" fill="#000088"/>
<path d="M120.423 110.83C121.03 111.111 121.696 110.882 121.909 110.317C122.123 109.752 121.803 109.067 121.196 108.785C120.589 108.504 119.923 108.733 119.71 109.298C119.496 109.862 119.816 110.548 120.423 110.83Z" fill="#000088"/>
<path d="M94.0543 123.427L98.2865 110.179L98.9629 103.479L96.4725 109.649L94.0543 123.427Z" fill="#000088"/>
<path d="M117.202 115.979C117.73 116.406 118.444 116.363 118.797 115.882C119.149 115.402 119.007 114.666 118.479 114.238C117.951 113.811 117.237 113.855 116.884 114.335C116.531 114.816 116.674 115.552 117.202 115.979Z" fill="#000088"/>
<path d="M88.5151 121.076L95.9803 109.448L98.3892 103.22L94.4276 108.512L88.5151 121.076Z" fill="#000088"/>
<path d="M112.784 120.098C113.192 120.641 113.906 120.786 114.379 120.421C114.852 120.057 114.904 119.32 114.496 118.777C114.087 118.234 113.373 118.089 112.901 118.454C112.428 118.819 112.376 119.555 112.784 120.098Z" fill="#000088"/>
<path d="M83.7641 117.344L93.9462 108.13L97.8881 102.799L92.7178 106.852L83.7641 117.344Z" fill="#000088"/>
<path d="M107.386 123.011C107.593 123.574 108.258 123.801 108.872 123.518C109.486 123.235 109.815 122.549 109.608 121.986C109.401 121.423 108.735 121.196 108.122 121.479C107.508 121.762 107.178 122.448 107.386 123.011Z" fill="#000088"/>
<path d="M80.0304 112.652L92.2625 106.093L97.5945 102.08L91.5949 104.887L80.0304 112.652Z" fill="#000088"/>
<path d="M101.568 124.297C101.615 124.905 102.186 125.302 102.844 125.184C103.503 125.066 103.998 124.477 103.952 123.869C103.905 123.26 103.333 122.863 102.675 122.982C102.017 123.1 101.521 123.689 101.568 124.297Z" fill="#000088"/>
<path d="M77.7665 107.028L91.171 103.868L97.3258 101.402L90.8617 102.565L77.7665 107.028Z" fill="#000088"/>
<path d="M95.7397 124.014C95.6314 124.703 96.0271 125.292 96.6236 125.33C97.2202 125.368 97.7916 124.84 97.9 124.152C98.0083 123.463 97.6126 122.874 97.0161 122.836C96.4195 122.798 95.8481 123.326 95.7397 124.014Z" fill="#000088"/>
<path d="M77.078 101.212L90.6347 101.124L97.1494 100.454L90.7148 100.274L77.078 101.212Z" fill="#000088"/>
<path d="M90.0477 122.091C89.7986 122.712 90.0602 123.398 90.632 123.623C91.2038 123.848 91.8693 123.527 92.1184 122.906C92.3674 122.285 92.1058 121.599 91.534 121.374C90.9622 121.149 90.2967 121.47 90.0477 122.091Z" fill="#000088"/>
<path d="M77.8274 94.8904L90.778 99.2638L97.2639 100.013L91.2102 97.4579L77.8274 94.8904Z" fill="#000088"/>
<path d="M84.9824 118.663C84.6303 119.143 84.7735 119.879 85.3023 120.307C85.8311 120.735 86.5453 120.693 86.8974 120.213C87.2495 119.732 87.1062 118.996 86.5774 118.569C86.0486 118.141 85.3345 118.183 84.9824 118.663Z" fill="#000088"/>
<path d="M80.0304 89.0147L91.5952 96.7792L97.5948 99.5873L92.2625 95.5743L80.0304 89.0147Z" fill="#000088"/>
<path d="M80.9936 114.117C80.5248 114.477 80.4787 115.213 80.8907 115.761C81.3028 116.309 82.0169 116.461 82.4858 116.101C82.9546 115.741 83.0007 115.005 82.5886 114.457C82.1766 113.909 81.4625 113.757 80.9936 114.117Z" fill="#000088"/>
<path d="M83.6374 84.1788L92.8908 94.7222L98.016 99.0111L93.8647 93.7308L83.6374 84.1788Z" fill="#000088"/>
<path d="M78.2976 108.675C77.7379 108.895 77.4959 109.581 77.7571 110.207C78.0183 110.832 78.6837 111.161 79.2434 110.94C79.8031 110.72 80.0451 110.034 79.7839 109.408C79.5227 108.783 78.8573 108.454 78.2976 108.675Z" fill="#000088"/>
<path d="M88.3574 80.4784L94.6412 93.082L98.5468 98.5592L95.8786 92.3714L88.3574 80.4784Z" fill="#000088"/>
<path d="M77.0493 102.679C76.4457 102.734 76.0385 103.323 76.1397 103.995C76.241 104.666 76.8124 105.165 77.4161 105.11C78.0197 105.054 78.4269 104.465 78.3257 103.794C78.2244 103.123 77.6529 102.624 77.0493 102.679Z" fill="#000088"/>
<path d="M93.8268 78.1431L96.783 91.9558L99.1923 98.2841L98.14 91.6183L93.8268 78.1431Z" fill="#000088"/>
<path d="M77.3272 96.682C76.6746 96.5578 76.1031 96.9452 76.0509 97.5474C75.9987 98.1497 76.4854 98.7387 77.1381 98.863C77.7907 98.9873 78.3622 98.5998 78.4144 97.9976C78.4666 97.3953 77.9799 96.8063 77.3272 96.682Z" fill="#000088"/>
<path d="M99.4928 77.4439L99.4121 91.3712L100.087 98.0927L100.378 91.4924L99.4928 77.4439Z" fill="#000088"/>
<path d="M79.1586 90.837C78.5523 90.5556 77.8869 90.7852 77.6723 91.3498C77.4578 91.9145 77.7753 92.6004 78.3817 92.8818C78.988 93.1632 79.6534 92.9336 79.868 92.369C80.0825 91.8043 79.765 91.1185 79.1586 90.837Z" fill="#000088"/>
<path d="M105.532 78.2395L101.298 91.4875L100.609 98.1876L103.097 92.0179L105.532 78.2395Z" fill="#000088"/>
<path d="M82.3803 85.6911C81.8531 85.2618 81.139 85.3019 80.7853 85.7805C80.4315 86.2592 80.5721 86.9952 81.0992 87.4245C81.6264 87.8538 82.3405 87.8138 82.6942 87.3351C83.048 86.8564 82.9074 86.1204 82.3803 85.6911Z" fill="#000088"/>
<path d="M111.069 80.5955L103.602 92.2124L101.187 98.4418L105.147 93.1574L111.069 80.5955Z" fill="#000088"/>
<path d="M86.792 81.5791C86.3819 81.0301 85.6678 80.8761 85.1969 81.235C84.7261 81.594 84.6768 82.33 85.0869 82.879C85.4969 83.428 86.211 83.5821 86.6819 83.2231C87.1527 82.8641 87.202 82.1281 86.792 81.5791Z" fill="#000088"/>
<path d="M115.811 84.3369L105.63 93.5167L101.696 98.8531L106.868 94.8242L115.811 84.3369Z" fill="#000088"/>
<path d="M92.1946 78.6557C91.9875 78.0927 91.3221 77.8658 90.7083 78.1489C90.0945 78.4319 89.7649 79.1178 89.9719 79.6808C90.179 80.2438 90.8445 80.4707 91.4583 80.1876C92.0721 79.9046 92.4017 79.2187 92.1946 78.6557Z" fill="#000088"/>
<path d="M119.55 89.0146L107.318 95.5742L101.985 99.5872L107.985 96.7792L119.55 89.0146Z" fill="#000088"/>
<path d="M98.0124 77.3697C97.9658 76.7614 97.3943 76.3641 96.736 76.4823C96.0777 76.6005 95.5819 77.1895 95.6285 77.7978C95.6751 78.4062 96.2465 78.8035 96.9048 78.6852C97.5631 78.567 98.059 77.978 98.0124 77.3697Z" fill="#000088"/>
<path d="M121.814 94.6392L108.409 97.7984L102.254 100.265L108.718 99.1017L121.814 94.6392Z" fill="#000088"/>
<path d="M103.831 77.6459C103.944 76.9536 103.556 76.3646 102.965 76.3304C102.373 76.2961 101.802 76.8296 101.688 77.522C101.575 78.2143 101.963 78.8033 102.555 78.8375C103.146 78.8717 103.718 78.3382 103.831 77.6459Z" fill="#000088"/>
<path d="M122.494 100.441L108.955 100.561L102.438 101.225L108.86 101.384L122.494 100.441Z" fill="#000088"/>
<path d="M109.522 79.5648C109.777 78.9376 109.524 78.2518 108.958 78.0328C108.392 77.8139 107.727 78.1448 107.472 78.7719C107.217 79.3991 107.469 80.085 108.035 80.3039C108.601 80.5228 109.267 80.1919 109.522 79.5648Z" fill="#000088"/>
<path d="M121.743 106.737L108.815 102.378L102.325 101.692L108.363 104.262L121.743 106.737Z" fill="#000088"/>
<path d="M114.518 82.9099C114.914 82.3781 114.842 81.642 114.358 81.2659C113.873 80.8898 113.159 81.0161 112.763 81.548C112.367 82.0798 112.438 82.8159 112.923 83.192C113.408 83.568 114.122 83.4418 114.518 82.9099Z" fill="#000088"/>
<path d="M119.467 112.499L108.097 104.789L102.068 102.232L107.264 106.299L119.467 112.499Z" fill="#000088"/>
<path d="M118.507 87.4551C119.02 87.0428 119.136 86.3068 118.768 85.8111C118.4 85.3155 117.685 85.248 117.173 85.6603C116.661 86.0726 116.544 86.8086 116.912 87.3043C117.281 87.7999 117.995 87.8674 118.507 87.4551Z" fill="#000088"/>
<path d="M115.845 117.372L106.821 106.87L101.661 102.771L105.652 108.093L115.845 117.372Z" fill="#000088"/>
<path d="M121.221 92.9113C121.815 92.6462 122.113 91.9603 121.886 91.3793C121.659 90.7984 120.994 90.5423 120.399 90.8074C119.805 91.0725 119.508 91.7583 119.734 92.3393C119.961 92.9203 120.627 93.1764 121.221 92.9113Z" fill="#000088"/>
<path d="M111.126 121.11L105.071 108.534L101.131 103.186L103.639 109.402L111.126 121.11Z" fill="#000088"/>
<path d="M122.471 98.9038C123.107 98.8022 123.568 98.2132 123.5 97.5883C123.432 96.9634 122.86 96.5392 122.224 96.6408C121.587 96.7424 121.126 97.3314 121.194 97.9563C121.262 98.5812 121.834 99.0054 122.471 98.9038Z" fill="#000088"/>
<path d="M105.618 123.459L102.982 109.67L100.524 103.447L101.353 110.135L105.618 123.459Z" fill="#000088"/>
</g>
<defs>
<clipPath id="clip0_1456_11764">
<rect width="201" height="201" rx="100.5" fill="white"/>
</clipPath>
</defs>
</svg>
