<svg width="24" height="24" viewBox="0 0 24 24" fill="none" xmlns="http://www.w3.org/2000/svg">
<path d="M10 13.9999C10.3259 14.3325 10.7148 14.5967 11.1441 14.7771C11.5734 14.9575 12.0344 15.0504 12.5 15.0504C12.9656 15.0504 13.4266 14.9575 13.8559 14.7771C14.2852 14.5967 14.6741 14.3325 15 13.9999L19 9.99989C19.663 9.33685 20.0355 8.43757 20.0355 7.49989C20.0355 6.56221 19.663 5.66293 19 4.99989C18.337 4.33685 17.4377 3.96436 16.5 3.96436C15.5623 3.96436 14.663 4.33685 14 4.99989L13.5 5.49989" stroke="#718096" stroke-width="1.5" stroke-linecap="round" stroke-linejoin="round"/>
<path d="M14.0004 9.99973C13.6745 9.66713 13.2855 9.4029 12.8563 9.22252C12.427 9.04213 11.966 8.94922 11.5004 8.94922C11.0347 8.94922 10.5738 9.04213 10.1445 9.22252C9.71523 9.4029 9.32626 9.66713 9.00038 9.99973L5.00038 13.9997C4.33734 14.6628 3.96484 15.562 3.96484 16.4997C3.96484 17.4374 4.33734 18.3367 5.00038 18.9997C5.66342 19.6628 6.5627 20.0353 7.50038 20.0353C8.43806 20.0353 9.33734 19.6628 10.0004 18.9997L10.5004 18.4997" stroke="#718096" stroke-width="1.5" stroke-linecap="round" stroke-linejoin="round"/>
</svg>
