<svg width="149" height="24" viewBox="0 0 149 24" fill="none" xmlns="http://www.w3.org/2000/svg">
<path d="M12.3083 23.4373C5.68653 23.4373 0.938832 18.4397 0.938832 12.0678C0.938832 5.66465 5.68653 0.698303 12.3083 0.698303C16.3064 0.698303 19.8359 2.72857 21.71 5.85206L17.9931 8.00726C16.9311 6.0707 14.8071 4.88378 12.3083 4.88378C8.02915 4.88378 5.21801 7.85109 5.21801 12.0678C5.21801 16.2533 8.02915 19.2206 12.3083 19.2206C14.8071 19.2206 16.9623 18.0337 17.9931 16.1283L21.71 18.2835C19.8672 21.407 16.3376 23.4373 12.3083 23.4373ZM32.1421 23.4373C27.5506 23.4373 23.8961 19.8453 23.8961 15.1913C23.8961 10.5373 27.5506 6.94528 32.1421 6.94528C36.7336 6.94528 40.4194 10.5373 40.4194 15.1913C40.4194 19.8453 36.7336 23.4373 32.1421 23.4373ZM32.1421 19.5017C34.5472 19.5017 36.3901 17.7213 36.3901 15.1913C36.3901 12.6613 34.5472 10.8809 32.1421 10.8809C29.7683 10.8809 27.9254 12.6613 27.9254 15.1913C27.9254 17.7213 29.7683 19.5017 32.1421 19.5017ZM45.6992 5.50847C44.3561 5.50847 43.2316 4.38402 43.2316 3.04092C43.2316 1.69782 44.3561 0.542129 45.6992 0.542129C47.0735 0.542129 48.198 1.69782 48.198 3.04092C48.198 4.38402 47.0735 5.50847 45.6992 5.50847ZM43.7001 23V7.38257H47.7294V23H43.7001ZM60.5468 6.94528C63.8577 6.94528 66.4502 9.25666 66.4502 13.4109V23H62.4209V13.9107C62.4209 11.7867 61.1403 10.6935 59.3287 10.6935C57.3609 10.6935 55.8929 11.8492 55.8929 14.5666V23H51.8636V7.38257H55.8929V9.13172C56.8299 7.72615 58.4541 6.94528 60.5468 6.94528ZM82.1749 1.13559H86.2042V23H82.1749V21.1571C81.0505 22.5939 79.395 23.4373 77.1149 23.4373C72.9294 23.4373 69.4936 19.8453 69.4936 15.1913C69.4936 10.5373 72.9294 6.94528 77.1149 6.94528C79.395 6.94528 81.0505 7.78862 82.1749 9.22542V1.13559ZM77.8645 19.5954C80.3321 19.5954 82.1749 17.815 82.1749 15.1913C82.1749 12.5676 80.3321 10.7872 77.8645 10.7872C75.3657 10.7872 73.5229 12.5676 73.5229 15.1913C73.5229 17.815 75.3657 19.5954 77.8645 19.5954ZM102.205 7.38257H106.234V23H102.205V21.1571C101.08 22.5627 99.3935 23.4373 97.1134 23.4373C92.9592 23.4373 89.5233 19.8453 89.5233 15.1913C89.5233 10.5373 92.9592 6.94528 97.1134 6.94528C99.3935 6.94528 101.08 7.81985 102.205 9.22542V7.38257ZM97.863 19.5954C100.362 19.5954 102.205 17.815 102.205 15.1913C102.205 12.5676 100.362 10.7872 97.863 10.7872C95.3955 10.7872 93.5526 12.5676 93.5526 15.1913C93.5526 17.815 95.3955 19.5954 97.863 19.5954ZM113.929 11.8179C113.929 14.1293 121.987 12.6925 121.987 18.4397C121.987 21.8131 119.051 23.4373 115.709 23.4373C112.586 23.4373 110.274 22.1254 109.15 19.7203L112.648 17.7525C113.086 19.0332 114.148 19.7828 115.709 19.7828C116.99 19.7828 117.864 19.3455 117.864 18.4397C117.864 16.1596 109.806 17.409 109.806 11.9116C109.806 8.72567 112.523 6.94528 115.74 6.94528C118.271 6.94528 120.457 8.10097 121.675 10.2562L118.239 12.1303C117.771 11.1307 116.896 10.5373 115.74 10.5373C114.741 10.5373 113.929 10.9746 113.929 11.8179ZM133.708 6.94528C137.019 6.94528 139.612 9.25666 139.612 13.4109V23H135.582V13.9107C135.582 11.7867 134.302 10.6935 132.49 10.6935C130.522 10.6935 129.054 11.8492 129.054 14.5666V23H125.025V1.13559H129.054V9.13172C129.991 7.72615 131.616 6.94528 133.708 6.94528ZM145.841 23.4061C144.373 23.4061 143.186 22.2191 143.186 20.7511C143.186 19.2831 144.373 18.0961 145.841 18.0961C147.309 18.0961 148.496 19.2831 148.496 20.7511C148.496 22.2191 147.309 23.4061 145.841 23.4061Z" fill="#1A202C"/>
</svg>
