<svg width="75" height="16" viewBox="0 0 75 16" fill="none" xmlns="http://www.w3.org/2000/svg">
<path d="M24.3128 13.7002C27.3027 13.7002 29.1591 11.6818 29.1591 8.45364V8.43957C29.1591 5.21847 27.2957 3.20001 24.3128 3.20001C21.337 3.20001 19.4595 5.21847 19.4595 8.43957V8.45364C19.4595 11.6818 21.3229 13.7002 24.3128 13.7002ZM24.3128 12.1248C22.4848 12.1248 21.3229 10.7112 21.3229 8.45364V8.43957C21.3229 6.18199 22.4919 4.7754 24.3128 4.7754C26.1408 4.7754 27.3027 6.18902 27.3027 8.43957V8.45364C27.3027 10.6901 26.162 12.1248 24.3128 12.1248Z" fill="white"/>
<path d="M32.4678 13.5244H34.4092L37.0519 6.06946H35.2098L33.4739 11.8998H33.4314L31.6885 6.06946H29.8109L32.4678 13.5244Z" fill="white"/>
<path d="M40.8992 13.6721C42.8617 13.6721 43.967 12.5187 44.2008 11.3723L44.2221 11.295H42.5713L42.5571 11.3442C42.387 11.8435 41.8131 12.3077 40.9346 12.3077C39.7868 12.3077 39.0641 11.5341 39.0358 10.2259H44.2929V9.66331C44.2929 7.41276 42.9609 5.91474 40.8141 5.91474C38.6673 5.91474 37.2857 7.46199 37.2857 9.811V9.81803C37.2857 12.1881 38.6461 13.6721 40.8992 13.6721ZM40.8354 7.28617C41.7706 7.28617 42.4508 7.87694 42.5783 9.05847H39.057C39.1987 7.9121 39.9001 7.28617 40.8354 7.28617Z" fill="white"/>
<path d="M45.4337 13.5244H47.1979V9.19913C47.1979 8.09496 47.8001 7.46902 48.7991 7.46902C49.0967 7.46902 49.3659 7.51122 49.5147 7.56748V5.98507C49.3801 5.9499 49.1746 5.91474 48.955 5.91474C48.0906 5.91474 47.4671 6.45628 47.2333 7.3565H47.1979V6.06946H45.4337V13.5244Z" fill="white"/>
<path d="M50.4216 15.9859H52.1858V12.2655H52.2212C52.6463 13.1376 53.5037 13.6721 54.5735 13.6721C56.4582 13.6721 57.6626 12.1952 57.6626 9.80397V9.79694C57.6626 7.39166 56.4582 5.91474 54.5523 5.91474C53.4753 5.91474 52.6534 6.46331 52.2212 7.3565H52.1858V6.06946H50.4216V15.9859ZM54.028 12.1952C52.9368 12.1952 52.1716 11.2598 52.1716 9.80397V9.79694C52.1716 8.33408 52.9368 7.39166 54.028 7.39166C55.1545 7.39166 55.863 8.30595 55.863 9.79694V9.80397C55.863 11.2739 55.1545 12.1952 54.028 12.1952Z" fill="white"/>
<path d="M61.0139 13.651C62.0058 13.651 62.8419 13.1587 63.2741 12.378H63.3166V13.5244H65.0808V8.39738C65.0808 6.89935 63.8692 5.91474 61.9917 5.91474C60.0858 5.91474 58.9309 6.90639 58.8246 8.22858L58.8175 8.31298H60.4542L60.4684 8.24968C60.5817 7.70111 61.0919 7.3143 61.9279 7.3143C62.8206 7.3143 63.3166 7.77144 63.3166 8.52397V9.03737L61.354 9.15694C59.5331 9.26946 58.4987 10.0642 58.4987 11.3864V11.4005C58.4987 12.7297 59.5119 13.651 61.0139 13.651ZM60.2558 11.3301V11.3231C60.2558 10.7323 60.7305 10.3596 61.602 10.3033L63.3166 10.1978V10.7605C63.3166 11.6466 62.5514 12.3147 61.5382 12.3147C60.7659 12.3147 60.2558 11.942 60.2558 11.3301Z" fill="white"/>
<path d="M67.4827 16C69.0485 16 69.927 15.4163 70.5009 13.7776L73.2004 6.06946H71.3441L69.5799 12.0334H69.5303L67.7732 6.06946H65.846L68.5454 13.5314L68.4392 13.8339C68.2124 14.4598 67.8369 14.6497 67.1638 14.6497C66.9159 14.6497 66.7104 14.6145 66.5758 14.5864V15.9227C66.7883 15.9578 67.1426 16 67.4827 16Z" fill="white"/>
<path d="M73.9798 13.6369C74.5536 13.6369 75 13.1868 75 12.6172C75 12.0545 74.5536 11.6044 73.9798 11.6044C73.4059 11.6044 72.9524 12.0545 72.9524 12.6172C72.9524 13.1868 73.4059 13.6369 73.9798 13.6369Z" fill="white"/>
<path d="M12.0946 13.12C10.9324 14.12 9.39866 14.7133 7.71622 14.6667C4.22298 14.5733 1.5 11.6067 1.5 8.16V3.47334C1.5 3.17334 1.86487 3.02667 2.07433 3.24L12.0946 13.12Z" fill="white"/>
<path d="M4.20264 2.86668C5.35804 1.87334 6.87831 1.28667 8.54723 1.33334C12.0134 1.42667 14.7094 4.36667 14.7094 7.78667V12.4267C14.7094 12.7267 14.3445 12.8733 14.1351 12.66L4.20264 2.86668Z" fill="white"/>
</svg>
