<svg width="111" height="26" viewBox="0 0 111 26" fill="none" xmlns="http://www.w3.org/2000/svg">
<path d="M10.3011 21.4005C16.2411 21.4005 19.929 17.3635 19.929 10.9073V10.8791C19.929 4.43695 16.2271 0.400024 10.3011 0.400024C4.38928 0.400024 0.65918 4.43695 0.65918 10.8791V10.9073C0.65918 17.3635 4.36113 21.4005 10.3011 21.4005ZM10.3011 18.2497C6.66957 18.2497 4.36113 15.4224 4.36113 10.9073V10.8791C4.36113 6.36398 6.68364 3.55079 10.3011 3.55079C13.9327 3.55079 16.2411 6.37805 16.2411 10.8791V10.9073C16.2411 15.3802 13.9749 18.2497 10.3011 18.2497Z" fill="white"/>
<path d="M26.5024 21.0488H30.3592L35.6095 6.13893H31.9498L28.5012 17.7996H28.4167L24.9541 6.13893H21.224L26.5024 21.0488Z" fill="white"/>
<path d="M43.2527 21.3442C47.1517 21.3442 49.3475 19.0374 49.812 16.7446L49.8543 16.5899H46.5746L46.5464 16.6884C46.2086 17.6871 45.0685 18.6154 43.3231 18.6154C41.0428 18.6154 39.607 17.0682 39.5507 14.4519H49.995V13.3266C49.995 8.82552 47.3488 5.82948 43.0838 5.82948C38.8188 5.82948 36.074 8.92398 36.074 13.622V13.6361C36.074 18.3763 38.7766 21.3442 43.2527 21.3442ZM43.126 8.57233C44.984 8.57233 46.3353 9.75387 46.5887 12.1169H39.593C39.8745 9.8242 41.268 8.57233 43.126 8.57233Z" fill="white"/>
<path d="M52.2612 21.0488H55.7661V12.3983C55.7661 10.1899 56.9626 8.93805 58.9473 8.93805C59.5384 8.93805 60.0733 9.02244 60.3689 9.13497V5.97013C60.1015 5.89981 59.6933 5.82948 59.2569 5.82948C57.5397 5.82948 56.301 6.91255 55.8365 8.71299H55.7661V6.13893H52.2612V21.0488Z" fill="white"/>
<path d="M62.1706 25.9719H65.6755V18.531H65.7459C66.5904 20.2752 68.2936 21.3442 70.4191 21.3442C74.1632 21.3442 76.5561 18.3904 76.5561 13.6079V13.5939C76.5561 8.78332 74.1632 5.82948 70.3768 5.82948C68.2373 5.82948 66.6045 6.92662 65.7459 8.71299H65.6755V6.13893H62.1706V25.9719ZM69.3352 18.3904C67.1675 18.3904 65.6474 16.5196 65.6474 13.6079V13.5939C65.6474 10.6682 67.1675 8.78332 69.3352 8.78332C71.5733 8.78332 72.9809 10.6119 72.9809 13.5939V13.6079C72.9809 16.5477 71.5733 18.3904 69.3352 18.3904Z" fill="white"/>
<path d="M83.214 21.302C85.1846 21.302 86.8456 20.3174 87.7042 18.7561H87.7887V21.0488H91.2935V10.7948C91.2935 7.79871 88.8866 5.82948 85.1565 5.82948C81.3701 5.82948 79.0757 7.81277 78.8646 10.4572L78.8505 10.626H82.102L82.1302 10.4994C82.3554 9.40222 83.3688 8.6286 85.0298 8.6286C86.8033 8.6286 87.7887 9.54288 87.7887 11.0479V12.0747L83.8896 12.3139C80.2722 12.5389 78.2171 14.1284 78.2171 16.7728V16.8009C78.2171 19.4594 80.2299 21.302 83.214 21.302ZM81.7079 16.6602V16.6462C81.7079 15.4646 82.651 14.7191 84.3823 14.6066L87.7887 14.3956V15.5209C87.7887 17.2932 86.2685 18.6295 84.2556 18.6295C82.7214 18.6295 81.7079 17.884 81.7079 16.6602Z" fill="white"/>
<path d="M96.0653 26C99.176 26 100.921 24.8326 102.062 21.5552L107.424 6.13893H103.737L100.232 18.0668H100.133L96.6424 6.13893H92.8137L98.1766 21.0629L97.9655 21.6677C97.5151 22.9196 96.769 23.2994 95.4318 23.2994C94.9392 23.2994 94.531 23.229 94.2635 23.1728V25.8453C94.6858 25.9156 95.3896 26 96.0653 26Z" fill="white"/>
<path d="M108.973 21.2739C110.113 21.2739 111 20.3737 111 19.2343C111 18.109 110.113 17.2088 108.973 17.2088C107.833 17.2088 106.932 18.109 106.932 19.2343C106.932 20.3737 107.833 21.2739 108.973 21.2739Z" fill="white"/>
</svg>
