<svg width="22" height="22" viewBox="0 0 22 22" fill="none" xmlns="http://www.w3.org/2000/svg">
<path d="M18.339 1.50596L11.7738 0.348006C10.4818 0.121006 9.41684 0.291992 8.60684 0.858992C7.79684 1.42599 7.27183 2.36796 7.04483 3.65996L6.93692 4.27397L3.65786 4.851C1.06386 5.312 -0.110997 6.99396 0.350003 9.58696L1.89395 18.34C2.11795 19.632 2.6399 20.574 3.4479 21.141C4.0259 21.546 4.73389 21.75 5.56289 21.75C5.89489 21.75 6.2478 21.717 6.6188 21.651L13.1898 20.494C15.0568 20.156 15.8979 19.254 16.2719 18.385C16.3199 18.386 16.375 18.399 16.422 18.399C18.422 18.399 19.716 17.217 20.11 14.99L21.653 6.23601C22.108 3.64301 20.933 1.96297 18.339 1.50596ZM12.9259 19.0179L6.35782 20.1739C5.46882 20.3299 4.78096 20.2439 4.30996 19.9129C3.83996 19.5829 3.52498 18.968 3.37198 18.081L1.82681 9.32396C1.51081 7.53996 2.13685 6.64401 3.91885 6.32701L6.65884 5.84495L5.50088 12.414C5.04388 15.008 6.21989 16.688 8.81289 17.145L14.663 18.176C14.385 18.505 13.8819 18.8439 12.9259 19.0179ZM20.175 5.976L18.632 14.73C18.317 16.514 17.4228 17.141 15.6378 16.826L9.0729 15.668C7.2899 15.354 6.66296 14.459 6.97696 12.675L8.5209 3.921C8.6769 3.035 8.99595 2.418 9.46695 2.088C9.78795 1.864 10.208 1.75096 10.724 1.75096C10.966 1.75096 11.2298 1.77597 11.5138 1.82597L18.079 2.98399C19.862 3.29699 20.489 4.192 20.175 5.976ZM17.5968 10.035C17.5338 10.399 17.217 10.655 16.86 10.655C16.817 10.655 16.7729 10.652 16.7289 10.644L10.164 9.48601C9.75597 9.41401 9.48281 9.02499 9.55581 8.61699C9.62681 8.20899 10.02 7.93696 10.424 8.00896L16.9889 9.16698C17.3959 9.23798 17.6688 9.62596 17.5968 10.035ZM18.297 6.77299C18.234 7.13699 17.917 7.39299 17.56 7.39299C17.517 7.39299 17.4729 7.39 17.4289 7.382L10.8639 6.22398C10.4559 6.15198 10.183 5.76296 10.256 5.35496C10.327 4.94796 10.7199 4.67399 11.1239 4.74699L17.6889 5.90501C18.0969 5.97701 18.369 6.36499 18.297 6.77299ZM14.5539 12.896C14.4909 13.26 14.1738 13.516 13.8168 13.516C13.7738 13.516 13.7299 13.513 13.6859 13.505L9.58194 12.781C9.17394 12.709 8.90103 12.32 8.97403 11.912C9.04503 11.505 9.43595 11.231 9.84195 11.304L13.946 12.028C14.354 12.099 14.6259 12.488 14.5539 12.896Z" fill="#25314C"/>
</svg>
