<svg width="20" height="20" viewBox="0 0 20 20" fill="none" xmlns="http://www.w3.org/2000/svg">
<path d="M14.1667 14.1667H15.8333C16.2754 14.1667 16.6993 13.9911 17.0118 13.6785C17.3244 13.3659 17.5 12.942 17.5 12.5V9.16667C17.5 8.72464 17.3244 8.30072 17.0118 7.98816C16.6993 7.6756 16.2754 7.5 15.8333 7.5H4.16667C3.72464 7.5 3.30072 7.6756 2.98816 7.98816C2.67559 8.30072 2.5 8.72464 2.5 9.16667V12.5C2.5 12.942 2.67559 13.3659 2.98816 13.6785C3.30072 13.9911 3.72464 14.1667 4.16667 14.1667H5.83333" stroke="#A0AEC0" stroke-width="1.5" stroke-linecap="round" stroke-linejoin="round"/>
<path d="M14.1663 7.5V4.16667C14.1663 3.72464 13.9907 3.30072 13.6782 2.98816C13.3656 2.67559 12.9417 2.5 12.4997 2.5H7.49967C7.05765 2.5 6.63372 2.67559 6.32116 2.98816C6.0086 3.30072 5.83301 3.72464 5.83301 4.16667V7.5" stroke="#A0AEC0" stroke-width="1.5" stroke-linecap="round" stroke-linejoin="round"/>
<path d="M12.4997 10.8333H7.49967C6.5792 10.8333 5.83301 11.5794 5.83301 12.4999V15.8333C5.83301 16.7537 6.5792 17.4999 7.49967 17.4999H12.4997C13.4201 17.4999 14.1663 16.7537 14.1663 15.8333V12.4999C14.1663 11.5794 13.4201 10.8333 12.4997 10.8333Z" stroke="#A0AEC0" stroke-width="1.5" stroke-linecap="round" stroke-linejoin="round"/>
</svg>
