<svg width="201" height="201" viewBox="0 0 201 201" fill="none" xmlns="http://www.w3.org/2000/svg">
<g clip-path="url(#clip0_1456_11865)">
<path d="M80.3999 0H201V201H80.3999V0Z" fill="#FF0000"/>
<path d="M0 0H80.4V201H0V0Z" fill="#006600"/>
<path fill-rule="evenodd" clip-rule="evenodd" d="M106.61 128.211C96.4901 127.805 50.0823 89.1816 49.7642 83.031L52.3269 77.3326C56.9301 86.2508 104.372 123.813 109.032 122.482L106.61 128.21" fill="#FFFF00"/>
<path d="M106.61 128.211C96.4901 127.805 50.0823 89.1816 49.7642 83.031L52.3269 77.3326C56.9301 86.2508 104.372 123.813 109.032 122.482L106.61 128.21" stroke="black" stroke-width="0.611" stroke-linecap="round" stroke-linejoin="round"/>
<path fill-rule="evenodd" clip-rule="evenodd" d="M51.7875 76.5587C50.8799 79.8166 63.8978 90.5475 79.5601 103.249C95.2224 115.949 108.727 123.798 109.728 122.672C109.789 122.527 110.221 121.538 110.181 121.545C109.993 121.922 109.536 122.041 108.824 121.767C104.592 120.14 93.5563 113.385 79.8886 102.334C66.2212 91.2828 54.3302 81.098 52.4819 76.771C52.3532 76.4712 52.2621 75.9239 52.2803 75.498H52.2354L51.8419 76.4151L51.7875 76.5587ZM106.848 128.39C106.677 128.804 106.357 128.819 105.749 128.73C101.963 128.171 90.4766 120.723 76.8846 109.874C61.069 97.2517 48.0075 85.7503 49.4245 82.7437L49.8102 81.835L49.8862 81.8668C48.6117 86.9609 75.6635 107.585 77.2561 108.9C92.909 121.83 106.105 129.38 107.273 127.418L106.848 128.392V128.391L106.848 128.39Z" fill="#FFFF00" stroke="black" stroke-width="0.611" stroke-linecap="round" stroke-linejoin="round"/>
<path fill-rule="evenodd" clip-rule="evenodd" d="M80.4566 86.7566C90.5864 86.6494 103.086 84.9099 110.28 81.088L108.73 77.7304C104.478 80.8681 91.9095 82.9313 80.3715 83.2399C66.7245 83.0724 57.0919 81.3782 52.266 77.0604L50.8025 80.6357C59.6748 85.6415 68.7662 86.7047 80.4569 86.7562" fill="#FFFF00"/>
<path d="M80.4566 86.7566C90.5864 86.6494 103.086 84.9099 110.28 81.088L108.73 77.7304C104.478 80.8681 91.9095 82.9313 80.3715 83.2399C66.7245 83.0724 57.0919 81.3782 52.266 77.0604L50.8025 80.6357C59.6748 85.6415 68.7662 86.7047 80.4569 86.7562" stroke="black" stroke-width="0.611" stroke-linecap="round" stroke-linejoin="round"/>
<path fill-rule="evenodd" clip-rule="evenodd" d="M110.698 81.1638C110.45 81.6914 105.758 83.8488 98.8474 85.4409C94.1616 86.3932 88.049 87.208 80.4214 87.2173C73.1741 87.2265 67.254 86.5389 62.772 85.7286C55.5172 84.2119 51.7736 82.1022 50.3892 81.356C50.5211 81.0051 50.6065 80.7589 50.734 80.4306C54.7188 82.5465 58.4807 83.8225 62.8876 84.7261C67.3401 85.5301 73.1888 86.2282 80.3997 86.2194C87.9925 86.2089 94.0376 85.3329 98.6964 84.4087C105.783 82.8845 109.655 80.923 110.198 80.0118L110.699 81.1642H110.698L110.698 81.1638ZM109.337 77.7594C108.569 78.5814 104.742 80.3912 98.008 81.8254C93.5137 82.6839 87.7997 83.4527 80.499 83.4619C73.5632 83.4711 67.8966 82.848 63.5867 82.0109C56.748 80.82 53.108 78.6718 51.7959 78.0454C51.9265 77.7439 52.0597 77.4457 52.196 77.1459C53.2167 77.831 56.7295 79.7321 63.6618 81.0415C67.923 81.8472 73.5981 82.4477 80.4996 82.4381C87.7657 82.4284 93.4148 81.645 97.8798 80.7907C104.649 79.5491 108.291 77.241 108.844 76.6631L109.337 77.7577V77.759L109.337 77.7594ZM47.1948 103.028C53.4252 107.496 67.2634 109.748 80.358 109.903C92.2807 109.928 107.813 107.445 113.622 103.341L113.462 98.8694C111.645 102.656 94.9995 106.288 80.2286 106.139C65.4573 105.991 51.7409 102.949 47.1685 99.0109L47.1948 103.027" fill="#FFFF00"/>
<path d="M47.1948 103.028C53.4252 107.496 67.2634 109.748 80.358 109.903C92.2807 109.928 107.813 107.445 113.622 103.341L113.462 98.8694C111.645 102.656 94.9995 106.288 80.2286 106.139C65.4573 105.991 51.7409 102.949 47.1685 99.0109L47.1948 103.027M110.698 81.1638C110.45 81.6914 105.758 83.8488 98.8474 85.4409C94.1616 86.3932 88.049 87.208 80.4214 87.2173C73.1741 87.2265 67.254 86.5389 62.772 85.7286C55.5172 84.2119 51.7736 82.1022 50.3892 81.356C50.5211 81.0051 50.6065 80.7589 50.734 80.4306C54.7188 82.5465 58.4807 83.8225 62.8876 84.7261C67.3401 85.5301 73.1888 86.2282 80.3997 86.2194C87.9925 86.2089 94.0376 85.3329 98.6964 84.4087C105.783 82.8845 109.655 80.923 110.198 80.0118L110.699 81.1642H110.698L110.698 81.1638ZM109.337 77.7594C108.569 78.5814 104.742 80.3912 98.008 81.8254C93.5137 82.6839 87.7997 83.4527 80.499 83.4619C73.5632 83.4711 67.8966 82.848 63.5867 82.0109C56.748 80.82 53.108 78.6718 51.7959 78.0454C51.9265 77.7439 52.0597 77.4457 52.196 77.1459C53.2167 77.831 56.7295 79.7321 63.6618 81.0415C67.923 81.8472 73.5981 82.4477 80.4996 82.4381C87.7657 82.4284 93.4148 81.645 97.8798 80.7907C104.649 79.5491 108.291 77.241 108.844 76.6631L109.337 77.7577V77.759L109.337 77.7594Z" stroke="black" stroke-width="0.611" stroke-linecap="round" stroke-linejoin="round"/>
<path fill-rule="evenodd" clip-rule="evenodd" d="M113.94 102.384V103.451C113.067 104.843 107.594 106.947 100.729 108.428C95.5043 109.496 88.693 110.302 80.2057 110.302C72.1428 110.302 65.7127 109.535 60.7263 108.514C52.8433 106.984 47.802 104.304 46.7898 103.504L46.7945 102.26C49.8346 104.955 58.0709 106.926 60.8362 107.53C65.7906 108.543 72.1824 109.304 80.2051 109.304C88.6528 109.304 95.4255 108.504 100.617 107.443C105.542 106.494 112.558 104.028 113.939 102.385L113.94 102.384ZM113.943 98.5918V99.6583C113.071 101.049 107.597 103.153 100.732 104.634C95.5078 105.702 88.6967 106.507 80.2095 106.507C72.1463 106.507 65.7165 105.742 60.7298 104.72C52.8474 103.19 47.8061 100.51 46.7936 99.7102L46.798 98.4666C49.8381 101.161 58.0744 103.133 60.8403 103.735C65.7943 104.75 72.1861 105.511 80.2086 105.511C88.6562 105.511 95.4293 104.711 100.621 103.649C105.545 102.701 112.561 100.234 113.943 98.5905V98.5918H113.943ZM80.3295 127.442C66.001 127.329 53.7234 122.235 51.1311 121.393L53.0217 125.339C57.6008 127.908 69.5785 131.735 80.467 131.312C91.3556 130.889 100.872 129.764 107.578 125.411L109.516 121.322C104.946 124.191 89.393 127.413 80.3288 127.443" fill="#FFFF00"/>
<path d="M80.3295 127.442C66.001 127.329 53.7234 122.235 51.1311 121.393L53.0217 125.339C57.6008 127.908 69.5785 131.735 80.467 131.312C91.3556 130.889 100.872 129.764 107.578 125.411L109.516 121.322C104.946 124.191 89.393 127.413 80.3288 127.443M113.94 102.384V103.451C113.067 104.843 107.594 106.947 100.729 108.428C95.5043 109.496 88.693 110.302 80.2057 110.302C72.1428 110.302 65.7127 109.535 60.7263 108.514C52.8433 106.984 47.802 104.304 46.7898 103.504L46.7945 102.26C49.8346 104.955 58.0709 106.926 60.8362 107.53C65.7906 108.543 72.1824 109.304 80.2051 109.304C88.6528 109.304 95.4255 108.504 100.617 107.443C105.542 106.494 112.558 104.028 113.939 102.385L113.94 102.384ZM113.943 98.5918V99.6583C113.071 101.049 107.597 103.153 100.732 104.634C95.5078 105.702 88.6967 106.507 80.2095 106.507C72.1463 106.507 65.7165 105.742 60.7298 104.72C52.8474 103.19 47.8061 100.51 46.7936 99.7102L46.798 98.4666C49.8381 101.161 58.0744 103.133 60.8403 103.735C65.7943 104.75 72.1861 105.511 80.2086 105.511C88.6562 105.511 95.4293 104.711 100.621 103.649C105.545 102.701 112.561 100.234 113.943 98.5905V98.5918H113.943Z" stroke="black" stroke-width="0.611" stroke-linecap="round" stroke-linejoin="round"/>
<path fill-rule="evenodd" clip-rule="evenodd" d="M108.305 124.494C108.023 125.071 107.733 125.642 107.435 126.205C104.273 127.692 99.2887 129.254 97.1857 129.709C92.8894 130.889 86.2429 131.761 80.3442 131.765C67.651 131.517 57.2606 128.204 52.3728 125.378L51.978 124.473L52.0424 124.338L52.7114 124.684C61.404 128.831 71.1669 130.485 80.4148 130.782C86.2909 130.81 92.1721 129.884 96.9282 128.75C104.221 126.802 107.17 125.333 108.075 124.667L108.306 124.496L108.305 124.494ZM109.986 120.798C109.994 120.81 110.001 120.821 110.008 120.833C109.792 121.321 109.573 121.807 109.351 122.29C107.664 123.094 103.085 124.88 96.4 126.127C91.9952 126.927 89.2572 127.702 80.4946 127.929C64.0748 127.372 53.4438 123.091 50.9181 122.035L50.5437 121.077C60.0598 124.39 69.78 126.702 80.4958 126.939C88.5123 126.711 91.923 125.924 96.2913 125.13C104.087 123.513 108.015 121.802 109.194 121.308C109.178 121.277 109.161 121.248 109.142 121.219L109.988 120.798L109.987 120.799L109.986 120.798Z" fill="#FFFF00" stroke="black" stroke-width="0.587" stroke-linecap="round" stroke-linejoin="round"/>
<path fill-rule="evenodd" clip-rule="evenodd" d="M110.158 99.4992C110.204 112.067 105.381 123.345 101.495 128.32C95.9987 135.36 88.7109 139.888 80.1998 140.096C70.6963 140.329 61.7348 132.068 59.331 128.439C54.6316 121.343 50.8057 112.333 50.6829 100.19C51.2649 86.4727 55.3034 76.9181 61.1575 70.3663C67.0117 63.8141 74.8067 60.6228 81.2984 60.851C88.7878 61.1148 97.537 66.0142 103.583 75.7393C107.543 82.1126 109.258 89.0275 110.158 99.4992H110.158ZM80.2805 56.4671C98.5332 56.4671 113.545 76.2715 113.545 100.554C113.545 124.836 98.5332 144.642 80.2805 144.642C62.0281 144.642 47.1406 124.837 47.1406 100.554C47.1406 76.2707 62.0281 56.4663 80.2805 56.4663" fill="#FFFF00"/>
<path d="M80.2805 56.4671C98.5332 56.4671 113.545 76.2715 113.545 100.554C113.545 124.836 98.5332 144.642 80.2805 144.642C62.0281 144.642 47.1406 124.837 47.1406 100.554C47.1406 76.2707 62.0281 56.4663 80.2805 56.4663M110.158 99.4992C110.204 112.067 105.381 123.345 101.495 128.32C95.9987 135.36 88.7109 139.888 80.1998 140.096C70.6963 140.329 61.7348 132.068 59.331 128.439C54.6316 121.343 50.8057 112.333 50.6829 100.19C51.2649 86.4727 55.3034 76.9181 61.1575 70.3663C67.0117 63.8141 74.8067 60.6228 81.2984 60.851C88.7878 61.1148 97.537 66.0142 103.583 75.7393C107.543 82.1126 109.258 89.0275 110.158 99.4992H110.158Z" stroke="black" stroke-width="0.611" stroke-linecap="round" stroke-linejoin="round"/>
<path fill-rule="evenodd" clip-rule="evenodd" d="M80.3697 56.3156C98.6387 56.3156 113.538 76.1853 113.538 100.546C113.538 124.906 98.6384 144.774 80.3697 144.774C62.1007 144.774 47.2009 124.906 47.2009 100.546C47.2009 76.1845 62.101 56.3152 80.3697 56.3152V56.3156ZM47.9311 100.546C47.9311 124.335 62.5821 143.802 80.3697 143.802C98.1573 143.802 112.809 124.335 112.809 100.546C112.809 76.7548 98.1569 57.2888 80.3697 57.2888C62.5825 57.2888 47.9311 76.7565 47.9311 100.546V100.546Z" fill="#FFFF00" stroke="black" stroke-width="0.611" stroke-linecap="round" stroke-linejoin="round"/>
<path fill-rule="evenodd" clip-rule="evenodd" d="M80.3968 59.9918C97.0566 59.9918 110.779 78.225 110.779 100.506C110.779 122.788 97.0563 141.02 80.3968 141.02C63.7371 141.02 50.0144 122.788 50.0144 100.506C50.0144 78.225 63.7374 59.9918 80.3968 59.9918ZM50.744 100.506C50.744 122.252 64.1372 140.047 80.3965 140.047C96.6555 140.047 110.049 122.252 110.049 100.506C110.049 78.7602 96.6561 60.965 80.3962 60.965C64.1365 60.965 50.7433 78.7598 50.7433 100.506H50.744Z" fill="#FFFF00" stroke="black" stroke-width="0.611" stroke-linecap="round" stroke-linejoin="round"/>
<path fill-rule="evenodd" clip-rule="evenodd" d="M81.7331 56.1376H78.8909L78.894 145.006H81.7463L81.7331 56.1376Z" fill="#FFFF00" stroke="black" stroke-width="0.611" stroke-linecap="round" stroke-linejoin="round"/>
<path fill-rule="evenodd" clip-rule="evenodd" d="M81.449 55.6309H82.1719L82.1782 145.522H81.454L81.449 55.6305V55.6309ZM78.6274 55.6309H79.3567L79.3576 145.523H78.6281V55.6309H78.6274Z" fill="#FFFF00" stroke="black" stroke-width="0.611" stroke-linecap="round" stroke-linejoin="round"/>
<path fill-rule="evenodd" clip-rule="evenodd" d="M113.562 102.257V98.9723L111.555 96.4799L100.165 92.4599L83.7501 90.2263L63.9849 91.5663L49.9149 96.0331L47.0742 98.8387V102.124L54.27 97.8199L71.355 94.2463H87.7701L99.8301 96.0331L108.205 98.7131L113.562 102.257Z" fill="#FFFF00" stroke="black" stroke-width="0.611" stroke-linecap="round" stroke-linejoin="round"/>
<path fill-rule="evenodd" clip-rule="evenodd" d="M80.3833 93.6974C88.2167 93.6781 95.8163 94.6869 101.845 96.2517C108.066 97.91 112.443 99.9841 113.94 102.314L113.938 103.468C112.133 100.569 106.242 98.4435 101.705 97.2283C95.7218 95.6768 88.173 94.6747 80.383 94.6948C72.1627 94.7145 64.5084 95.7526 58.6131 97.2869C53.8834 98.5377 47.5748 101.024 46.7871 103.476V102.275C47.2196 100.578 51.917 98.0415 58.5067 96.2827C64.4462 94.7375 72.115 93.7171 80.3833 93.6974ZM80.3865 89.9035C88.2198 89.8851 95.8201 90.8943 101.848 92.4587C108.069 94.1178 112.447 96.191 113.943 98.5205L113.942 99.6738C112.137 96.776 106.246 94.65 101.708 93.4357C95.7259 91.8833 88.1768 90.8813 80.3865 90.9014C72.1662 90.9211 64.5492 91.96 58.6533 93.4926C54.0887 94.6467 47.523 97.2312 46.7906 99.6834V98.4816C47.223 96.8024 52.0153 94.1752 58.5104 92.4893C64.4494 90.9441 72.1181 89.9249 80.3865 89.9043V89.9035ZM80.2257 70.5552C92.5702 70.4731 103.338 72.8566 108.264 76.2208L110.06 80.3665C105.779 77.2895 94.1628 74.0902 80.2439 74.5689C68.9031 74.6618 56.7847 76.2334 50.7047 80.5587L52.8498 75.7749C57.8402 72.3244 69.6075 70.574 80.2266 70.556" fill="#FFFF00"/>
<path d="M80.2257 70.5552C92.5702 70.4731 103.338 72.8566 108.264 76.2208L110.06 80.3665C105.779 77.2895 94.1628 74.0902 80.2439 74.5689C68.9031 74.6618 56.7847 76.2334 50.7047 80.5587L52.8498 75.7749C57.8402 72.3244 69.6075 70.574 80.2266 70.556M80.3833 93.6974C88.2167 93.6781 95.8163 94.6869 101.845 96.2517C108.066 97.91 112.443 99.9841 113.94 102.314L113.938 103.468C112.133 100.569 106.242 98.4435 101.705 97.2283C95.7218 95.6768 88.173 94.6747 80.383 94.6948C72.1627 94.7145 64.5084 95.7526 58.6131 97.2869C53.8834 98.5377 47.5748 101.024 46.7871 103.476V102.275C47.2196 100.578 51.917 98.0415 58.5067 96.2827C64.4462 94.7375 72.115 93.7171 80.3833 93.6974ZM80.3865 89.9035C88.2198 89.8851 95.8201 90.8943 101.848 92.4587C108.069 94.1178 112.447 96.191 113.943 98.5205L113.942 99.6738C112.137 96.776 106.246 94.65 101.708 93.4357C95.7259 91.8833 88.1768 90.8813 80.3865 90.9014C72.1662 90.9211 64.5492 91.96 58.6533 93.4926C54.0887 94.6467 47.523 97.2312 46.7906 99.6834V98.4816C47.223 96.8024 52.0153 94.1752 58.5104 92.4893C64.4494 90.9441 72.1181 89.9249 80.3865 89.9043V89.9035Z" stroke="black" stroke-width="0.611" stroke-linecap="round" stroke-linejoin="round"/>
<path fill-rule="evenodd" clip-rule="evenodd" d="M80.39 73.9764C87.4306 73.9521 94.2338 74.4814 99.6445 75.7833C104.683 77.0337 109.488 78.9101 110.175 79.9193L110.708 81.1747C109.037 79.7195 104.879 78.0998 99.5396 76.7497C94.1776 75.4056 87.3791 74.9608 80.3777 74.9855C72.4304 74.9491 66.2565 75.509 60.9576 76.7401C55.3538 78.1387 51.4657 80.1362 50.5066 81.0846L51.0286 79.758C52.8922 78.4901 55.8494 76.962 60.8185 75.7694C66.298 74.4349 72.5378 74.0346 80.39 73.9772V73.9764ZM80.3868 70.1867C87.1247 70.1636 93.7775 70.664 98.9636 71.9077C103.053 72.9688 107.098 74.6263 108.579 76.1011L109.358 77.7518C108.034 75.7887 103.049 73.9286 98.647 72.8859C93.5011 71.703 87.1247 71.2348 80.3868 71.1598C73.3157 71.1862 66.7807 71.7637 61.7095 72.9948C56.872 74.2217 53.7502 75.6756 52.429 76.8105L53.1146 75.4319C54.9377 74.1522 57.8827 72.9772 61.5911 72.0162C66.6997 70.7759 73.2749 70.213 80.3878 70.1862L80.3868 70.1867ZM96.8654 118.929C90.7622 117.41 84.6483 117.19 80.3777 117.257C59.806 117.578 53.1604 122.889 52.3495 124.497L50.8122 121.155C56.0498 116.093 67.2518 113.255 80.4889 113.545C87.3624 113.695 93.2941 114.304 98.2837 115.593L96.8647 118.93" fill="#FFFF00"/>
<path d="M96.8654 118.929C90.7622 117.41 84.6483 117.19 80.3777 117.257C59.806 117.578 53.1604 122.889 52.3495 124.497L50.8122 121.155C56.0498 116.093 67.2518 113.255 80.4889 113.545C87.3624 113.695 93.2941 114.304 98.2837 115.593L96.8647 118.93M80.39 73.9764C87.4306 73.9521 94.2338 74.4814 99.6445 75.7833C104.683 77.0337 109.488 78.9101 110.175 79.9193L110.708 81.1747C109.037 79.7195 104.879 78.0998 99.5396 76.7497C94.1776 75.4056 87.3791 74.9608 80.3777 74.9855C72.4304 74.9491 66.2565 75.509 60.9576 76.7401C55.3538 78.1387 51.4657 80.1362 50.5066 81.0846L51.0286 79.758C52.8922 78.4901 55.8494 76.962 60.8185 75.7694C66.298 74.4349 72.5378 74.0346 80.39 73.9772V73.9764ZM80.3868 70.1867C87.1247 70.1636 93.7775 70.664 98.9636 71.9077C103.053 72.9688 107.098 74.6263 108.579 76.1011L109.358 77.7518C108.034 75.7887 103.049 73.9286 98.647 72.8859C93.5011 71.703 87.1247 71.2348 80.3868 71.1598C73.3157 71.1862 66.7807 71.7637 61.7095 72.9948C56.872 74.2217 53.7502 75.6756 52.429 76.8105L53.1146 75.4319C54.9377 74.1522 57.8827 72.9772 61.5911 72.0162C66.6997 70.7759 73.2749 70.213 80.3878 70.1862L80.3868 70.1867Z" stroke="black" stroke-width="0.611" stroke-linecap="round" stroke-linejoin="round"/>
<path fill-rule="evenodd" clip-rule="evenodd" d="M80.2594 116.785C85.9816 116.899 91.5989 117.214 97.0209 118.562L96.6277 119.486C91.5923 118.248 86.2244 117.774 80.2788 117.811C72.6867 117.733 65.0079 118.678 58.3227 121.237C56.2132 122.019 52.7211 123.827 52.365 125.322L51.9743 124.463C52.0873 123.58 54.1978 121.746 58.1431 120.269C65.8006 117.345 72.9631 116.852 80.2594 116.785V116.786V116.785ZM80.5191 112.945C86.4477 113.093 92.5703 113.459 98.5218 115.031L98.1132 115.994C92.7389 114.571 87.6047 114.097 80.554 113.952C72.9379 113.971 64.859 114.695 57.5134 117.542C55.1422 118.463 51.049 120.455 50.9124 122.031L50.5217 121.109C50.6106 119.677 54.1539 117.809 57.3416 116.572C64.744 113.703 72.8437 112.965 80.5194 112.946L80.5191 112.945Z" fill="#FFFF00" stroke="black" stroke-width="0.587" stroke-linecap="round" stroke-linejoin="round"/>
<path fill-rule="evenodd" clip-rule="evenodd" d="M109.74 121.664L107.267 126.776L100.165 118.367L81.7401 101.84L60.9699 86.6531L50.1863 81.7353L52.4846 76.0529L53.265 75.4863L59.9649 77.7195L82.0749 92.9063L94.8051 103.626L105.525 113.9L109.88 120.6L109.74 121.664Z" fill="#FFFF00" stroke="black" stroke-width="0.611" stroke-linecap="round" stroke-linejoin="round"/>
<path fill-rule="evenodd" clip-rule="evenodd" d="M49.7976 81.8698C51.6889 80.1593 65.5893 88.4149 80.1335 100.109C94.6394 111.836 108.5 125.087 107.249 127.566L106.838 128.43L106.649 128.628C106.689 128.59 106.898 128.25 106.628 127.33C106.01 124.619 96.178 114.158 79.864 101.024C63.9599 88.3793 50.7052 80.7581 49.3799 82.9364L49.7976 81.8698ZM110.245 121.59C111.441 118.441 98.5483 105.491 82.5637 92.8821C66.2105 80.5248 54.4253 73.2511 52.2724 75.4203L51.7944 76.5802C51.79 76.6443 51.8117 76.5015 51.9128 76.3976C52.3041 75.942 52.953 75.9726 53.2457 75.9663C56.9522 76.0396 67.5387 82.5357 82.3926 93.8896C88.9009 98.944 109.886 116.889 109.806 121.935C109.812 122.368 109.833 122.458 109.711 122.672L110.245 121.59V121.589L110.245 121.59Z" fill="#FFFF00" stroke="black" stroke-width="0.611" stroke-linecap="round" stroke-linejoin="round"/>
<path d="M60.5013 105.418C60.5013 112.686 62.7334 119.259 66.3494 124.063C69.9724 128.877 74.8959 131.916 80.3558 131.916C85.8431 131.916 90.8232 128.943 94.4308 124.148C98.0388 119.353 100.274 112.735 100.275 105.442H100.275V70.0699L60.4966 70.0073L60.5006 105.418H60.5013Z" fill="white" stroke="black" stroke-width="0.714669"/>
<path d="M61.2449 105.467V105.488C61.2449 112.436 63.4023 118.764 66.8645 123.359C70.3331 127.961 75.1103 130.823 80.3363 130.823C85.5891 130.823 90.3562 127.982 93.81 123.397C97.2639 118.812 99.4039 112.483 99.4045 105.51H99.4039V71.1946L61.2673 71.1857L61.2439 105.467M91.7364 81.4599L91.7377 103.298L91.7243 105.608C91.7243 106.216 91.6968 106.909 91.6439 107.499C91.3337 110.952 90.1431 113.961 88.379 116.302C86.314 119.043 83.4645 120.743 80.3232 120.743C77.199 120.743 74.4145 118.984 72.3408 116.231C70.2135 113.408 68.9807 109.537 68.9807 105.535L68.9764 81.405L91.7364 81.4599Z" fill="#FF0000"/>
<path d="M61.2449 105.467V105.488C61.2449 112.436 63.4023 118.764 66.8645 123.359C70.3331 127.961 75.1103 130.823 80.3363 130.823C85.5891 130.823 90.3562 127.982 93.81 123.397C97.2639 118.812 99.4039 112.483 99.4045 105.51H99.4039V71.1946L61.2673 71.1857L61.2439 105.467M91.7364 81.4599L91.7377 103.298L91.7243 105.608C91.7243 106.216 91.6968 106.909 91.6439 107.499C91.3337 110.952 90.1431 113.961 88.379 116.302C86.314 119.043 83.4645 120.743 80.3232 120.743C77.199 120.743 74.4145 118.984 72.3408 116.231C70.2135 113.408 68.9807 109.537 68.9807 105.535L68.9764 81.405L91.7364 81.4599ZM91.7364 81.4599V81.4604" stroke="black" stroke-width="0.540802"/>
<path d="M63.7139 80.1458C63.7591 77.6802 65.0713 77.096 65.0807 77.0875C65.0907 77.0786 66.4984 77.716 66.4937 80.1686L63.7139 80.1463" fill="#FFFF00"/>
<path d="M62.5816 77.1352L62.3531 79.9693L63.74 79.9738C63.7534 77.6288 65.0717 77.2384 65.1035 77.2473C65.1336 77.2455 66.4401 77.7655 66.4746 79.9738H67.8656L67.6143 77.1178L62.5819 77.1348V77.1357L62.5816 77.1352ZM62.26 79.9805H67.9369C68.0565 79.9805 68.1547 80.1382 68.1547 80.3307C68.1547 80.5227 68.0565 80.6791 67.9369 80.6791H62.26C62.1404 80.6791 62.0422 80.5227 62.0422 80.3307C62.0422 80.1386 62.1404 79.9805 62.26 79.9805Z" fill="#FFFF00" stroke="black" stroke-width="0.533335"/>
<path d="M64.3236 79.9671C64.3296 78.4873 65.0814 78.0688 65.0854 78.0697C65.0854 78.0697 65.8699 78.5012 65.876 79.9671H64.3236ZM62.3806 75.956H67.8227C67.9372 75.956 68.0314 76.0981 68.0314 76.2709C68.0314 76.4438 67.9376 76.5854 67.8227 76.5854H62.3806C62.266 76.5854 62.1719 76.4442 62.1719 76.2705C62.1719 76.0976 62.2657 75.9556 62.3806 75.9556V75.956ZM62.4945 76.5903H67.6997C67.8093 76.5903 67.8991 76.7319 67.8991 76.9048C67.8991 77.0781 67.8093 77.2192 67.6997 77.2192H62.4945C62.3849 77.2192 62.2952 77.0781 62.2952 76.9048C62.2952 76.7319 62.3849 76.5903 62.4945 76.5903ZM64.1762 71.8601L64.5872 71.861V72.2496H64.8871V71.8521L65.3082 71.8543V72.2505H65.6083V71.8529H66.0297L66.0291 72.7507C66.0291 72.8923 65.944 72.983 65.8448 72.983H64.3675C64.2683 72.983 64.1765 72.8776 64.1765 72.7485L64.1752 71.8596L64.1762 71.8601ZM65.7239 73.0616L65.8167 75.9426L64.3752 75.9359L64.4707 73.054L65.7236 73.0616" fill="#FFFF00"/>
<path d="M65.7239 73.0616L65.8167 75.9426L64.3752 75.9359L64.4707 73.054L65.7236 73.0616M64.3236 79.9671C64.3296 78.4873 65.0814 78.0688 65.0854 78.0697C65.0854 78.0697 65.8699 78.5012 65.876 79.9671H64.3236ZM62.3806 75.956H67.8227C67.9372 75.956 68.0314 76.0981 68.0314 76.2709C68.0314 76.4438 67.9376 76.5854 67.8227 76.5854H62.3806C62.266 76.5854 62.1719 76.4442 62.1719 76.2705C62.1719 76.0976 62.2657 75.9556 62.3806 75.9556V75.956ZM62.4945 76.5903H67.6997C67.8093 76.5903 67.8991 76.7319 67.8991 76.9048C67.8991 77.0781 67.8093 77.2192 67.6997 77.2192H62.4945C62.3849 77.2192 62.2952 77.0781 62.2952 76.9048C62.2952 76.7319 62.3849 76.5903 62.4945 76.5903ZM64.1762 71.8601L64.5872 71.861V72.2496H64.8871V71.8521L65.3082 71.8543V72.2505H65.6083V71.8529H66.0297L66.0291 72.7507C66.0291 72.8923 65.944 72.983 65.8448 72.983H64.3675C64.2683 72.983 64.1765 72.8776 64.1765 72.7485L64.1752 71.8596L64.1762 71.8601Z" stroke="black" stroke-width="0.533335"/>
<path d="M63.9652 74.3972L64.0087 75.9507H62.6272L62.6661 74.3972H63.9659H63.9652Z" fill="#FFFF00" stroke="black" stroke-width="0.533335"/>
<path d="M67.5191 74.3972L67.5627 75.9507H66.1812L66.22 74.3972H67.5198H67.5191Z" fill="#FFFF00" stroke="black" stroke-width="0.533335"/>
<path d="M62.4106 73.2715L62.8126 73.2729V73.6623H63.1064V73.2639L63.5185 73.2657V73.6632H63.8133V73.2639L64.2253 73.2648L64.2243 74.1635C64.2243 74.3038 64.1406 74.3949 64.0448 74.3949H62.5986C62.5014 74.3949 62.4116 74.2899 62.4116 74.1604L62.4106 73.2715Z" fill="#FFFF00" stroke="black" stroke-width="0.533335"/>
<path d="M65.9648 73.2715L66.3668 73.2729V73.6623H66.6606V73.2639L67.0727 73.2657V73.6632H67.3675V73.2639L67.7795 73.2648L67.7785 74.1635C67.7785 74.3038 67.6948 74.3949 67.599 74.3949H66.1528C66.0556 74.3949 65.9658 74.2899 65.9658 74.1604L65.9648 73.2715Z" fill="#FFFF00" stroke="black" stroke-width="0.533335"/>
<path d="M64.9567 73.9728C64.948 73.6928 65.2505 73.6896 65.2468 73.9728V74.6589H64.9567V73.9728Z" fill="black"/>
<path d="M63.1711 74.9689C63.1701 74.6983 63.4515 74.6929 63.4479 74.9689V75.4991H63.1711V74.9689Z" fill="black"/>
<path d="M66.7358 74.9689C66.7348 74.6983 67.0162 74.6929 67.0125 74.9689V75.4991H66.7358V74.9689Z" fill="black"/>
<path d="M63.7139 100.835C63.7591 98.3698 65.0713 97.7856 65.0807 97.7771C65.0907 97.7681 66.4984 98.4055 66.4937 100.858L63.7139 100.836" fill="#FFFF00"/>
<path d="M62.5816 97.8249L62.3531 100.659L63.74 100.663C63.7534 98.3185 65.0717 97.9281 65.1035 97.937C65.1336 97.9352 66.4401 98.4552 66.4746 100.663H67.8656L67.6143 97.8075L62.5819 97.8245V97.8254L62.5816 97.8249ZM62.26 100.67H67.9369C68.0565 100.67 68.1547 100.828 68.1547 101.02C68.1547 101.212 68.0565 101.369 67.9369 101.369H62.26C62.1404 101.369 62.0422 101.212 62.0422 101.02C62.0422 100.828 62.1404 100.67 62.26 100.67Z" fill="#FFFF00" stroke="black" stroke-width="0.533335"/>
<path d="M64.3236 100.657C64.3296 99.177 65.0814 98.7585 65.0854 98.7594C65.0854 98.7594 65.8699 99.1908 65.876 100.657H64.3236ZM62.3806 96.6457H67.8227C67.9372 96.6457 68.0314 96.7878 68.0314 96.9606C68.0314 97.1335 67.9376 97.2751 67.8227 97.2751H62.3806C62.266 97.2751 62.1719 97.1339 62.1719 96.9602C62.1719 96.7873 62.2657 96.6453 62.3806 96.6453V96.6457ZM62.4945 97.28H67.6997C67.8093 97.28 67.8991 97.4216 67.8991 97.5945C67.8991 97.7678 67.8093 97.9089 67.6997 97.9089H62.4945C62.3849 97.9089 62.2952 97.7678 62.2952 97.5945C62.2952 97.4216 62.3849 97.28 62.4945 97.28ZM64.1762 92.5498L64.5872 92.5507V92.9393H64.8871V92.5417L65.3082 92.544V92.9402H65.6083V92.5426H66.0297L66.0291 93.4404C66.0291 93.582 65.944 93.6727 65.8448 93.6727H64.3675C64.2683 93.6727 64.1765 93.5673 64.1765 93.4382L64.1752 92.5493L64.1762 92.5498ZM65.7239 93.7513L65.8167 96.6323L64.3752 96.6256L64.4707 93.7437L65.7236 93.7513" fill="#FFFF00"/>
<path d="M65.7239 93.7513L65.8167 96.6323L64.3752 96.6256L64.4707 93.7437L65.7236 93.7513M64.3236 100.657C64.3296 99.177 65.0814 98.7585 65.0854 98.7594C65.0854 98.7594 65.8699 99.1908 65.876 100.657H64.3236ZM62.3806 96.6457H67.8227C67.9372 96.6457 68.0314 96.7878 68.0314 96.9606C68.0314 97.1335 67.9376 97.2751 67.8227 97.2751H62.3806C62.266 97.2751 62.1719 97.1339 62.1719 96.9602C62.1719 96.7873 62.2657 96.6453 62.3806 96.6453V96.6457ZM62.4945 97.28H67.6997C67.8093 97.28 67.8991 97.4216 67.8991 97.5945C67.8991 97.7678 67.8093 97.9089 67.6997 97.9089H62.4945C62.3849 97.9089 62.2952 97.7678 62.2952 97.5945C62.2952 97.4216 62.3849 97.28 62.4945 97.28ZM64.1762 92.5498L64.5872 92.5507V92.9393H64.8871V92.5417L65.3082 92.544V92.9402H65.6083V92.5426H66.0297L66.0291 93.4404C66.0291 93.582 65.944 93.6727 65.8448 93.6727H64.3675C64.2683 93.6727 64.1765 93.5673 64.1765 93.4382L64.1752 92.5493L64.1762 92.5498Z" stroke="black" stroke-width="0.533335"/>
<path d="M63.9652 95.0869L64.0087 96.6404H62.6272L62.6661 95.0869H63.9659H63.9652Z" fill="#FFFF00" stroke="black" stroke-width="0.533335"/>
<path d="M67.5191 95.0869L67.5627 96.6404H66.1812L66.22 95.0869H67.5198H67.5191Z" fill="#FFFF00" stroke="black" stroke-width="0.533335"/>
<path d="M62.4106 93.9612L62.8126 93.9625V94.352H63.1064V93.9536L63.5185 93.9554V94.3529H63.8133V93.9536L64.2253 93.9545L64.2243 94.8532C64.2243 94.9935 64.1406 95.0846 64.0448 95.0846H62.5986C62.5014 95.0846 62.4116 94.9796 62.4116 94.8501L62.4106 93.9612Z" fill="#FFFF00" stroke="black" stroke-width="0.533335"/>
<path d="M65.9648 93.9612L66.3668 93.9625V94.352H66.6606V93.9536L67.0727 93.9554V94.3529H67.3675V93.9536L67.7795 93.9545L67.7785 94.8532C67.7785 94.9935 67.6948 95.0846 67.599 95.0846H66.1528C66.0556 95.0846 65.9658 94.9796 65.9658 94.8501L65.9648 93.9612Z" fill="#FFFF00" stroke="black" stroke-width="0.533335"/>
<path d="M64.9567 94.6625C64.948 94.3825 65.2505 94.3793 65.2468 94.6625V95.3486H64.9567V94.6625Z" fill="black"/>
<path d="M63.1711 95.6586C63.1701 95.388 63.4515 95.3826 63.4479 95.6586V96.1888H63.1711V95.6586Z" fill="black"/>
<path d="M66.7358 95.6586C66.7348 95.388 67.0162 95.3826 67.0125 95.6586V96.1888H66.7358V95.6586Z" fill="black"/>
<path d="M69.7659 122.371C68.4841 120.589 69.0966 118.937 69.0987 118.922C69.101 118.906 70.4316 118.025 71.735 119.759L69.7661 122.371" fill="#FFFF00"/>
<path d="M67.3639 121.318L68.7134 123.534L69.6924 122.225C68.4522 120.558 69.1724 119.036 69.1996 119.012C69.2198 118.983 70.4169 118.114 71.6181 119.64L72.5976 118.324L70.8986 116.547L67.3639 121.317L67.3644 121.318L67.3639 121.318ZM68.6538 123.63L72.6514 118.262C72.7356 118.149 72.8888 118.167 72.9914 118.303C73.0937 118.438 73.1079 118.642 73.0237 118.755L69.0261 124.123C68.9419 124.236 68.7894 124.218 68.6871 124.083C68.5847 123.947 68.5696 123.743 68.6538 123.63Z" fill="#FFFF00" stroke="black" stroke-width="0.533335"/>
<path d="M70.1012 121.67C69.3172 120.621 69.6234 119.615 69.6267 119.612C69.6267 119.612 70.4088 119.175 71.194 120.203L70.1012 121.67ZM66.5968 120.678L70.4275 115.534C70.5081 115.426 70.6501 115.437 70.7422 115.559C70.8342 115.681 70.8436 115.869 70.7628 115.978L66.9321 121.122C66.8514 121.23 66.71 121.219 66.6174 121.097C66.5253 120.975 66.5157 120.786 66.5966 120.678L66.5968 120.678ZM67.0149 121.018L70.6788 116.098C70.7559 115.994 70.8946 116.009 70.9866 116.131C71.079 116.253 71.091 116.438 71.0139 116.541L67.3499 121.461C67.2728 121.565 67.1344 121.55 67.0421 121.428C66.95 121.306 66.9378 121.121 67.0149 121.018ZM65.6788 116.092L65.9686 115.704L66.1756 115.978L66.3867 115.695L66.1749 115.414L66.4725 115.018L66.6835 115.297L66.8948 115.014L66.6831 114.733L66.9797 114.335L67.4575 114.969C67.5329 115.069 67.5213 115.213 67.4515 115.307L66.4116 116.703C66.3418 116.797 66.2211 116.809 66.1523 116.718L65.6778 116.092L65.6788 116.092ZM67.4083 115.476L69.0083 117.421L67.9901 118.778L66.5221 116.656L67.408 115.477" fill="#FFFF00"/>
<path d="M67.4083 115.476L69.0083 117.421L67.9901 118.778L66.5221 116.656L67.408 115.477M70.1012 121.67C69.3172 120.621 69.6234 119.615 69.6267 119.612C69.6267 119.612 70.4088 119.175 71.194 120.203L70.1012 121.67ZM66.5968 120.678L70.4275 115.534C70.5081 115.426 70.6501 115.437 70.7422 115.559C70.8342 115.681 70.8436 115.869 70.7628 115.978L66.9321 121.122C66.8514 121.23 66.71 121.219 66.6174 121.097C66.5253 120.975 66.5157 120.786 66.5966 120.678L66.5968 120.678ZM67.0149 121.018L70.6788 116.098C70.7559 115.994 70.8946 116.009 70.9866 116.131C71.079 116.253 71.091 116.438 71.0139 116.541L67.3499 121.461C67.2728 121.565 67.1344 121.55 67.0421 121.428C66.95 121.306 66.9378 121.121 67.0149 121.018ZM65.6788 116.092L65.9686 115.704L66.1756 115.978L66.3867 115.695L66.1749 115.414L66.4725 115.018L66.6835 115.297L66.8948 115.014L66.6831 114.733L66.9797 114.335L67.4575 114.969C67.5329 115.069 67.5213 115.213 67.4515 115.307L66.4116 116.703C66.3418 116.797 66.2211 116.809 66.1523 116.718L65.6778 116.092L65.6788 116.092Z" stroke="black" stroke-width="0.533335"/>
<path d="M66.8809 118.083L67.7392 119.137L66.7666 120.443L65.9663 119.311L66.8813 118.082L66.8809 118.083Z" fill="#FFFF00" stroke="black" stroke-width="0.533335"/>
<path d="M69.3853 114.72L70.2436 115.775L69.271 117.081L68.4707 115.948L69.3857 114.72L69.3853 114.72Z" fill="#FFFF00" stroke="black" stroke-width="0.533335"/>
<path d="M65.1876 118.759L65.4714 118.38L65.679 118.655L65.8859 118.377L65.6735 118.096L65.9647 117.708L66.1765 117.988L66.3841 117.709L66.1713 117.428L66.4619 117.039L66.9401 117.674C67.0149 117.773 67.0045 117.916 66.937 118.007L65.9186 119.374C65.8502 119.466 65.7311 119.477 65.662 119.385L65.1876 118.759Z" fill="#FFFF00" stroke="black" stroke-width="0.533335"/>
<path d="M67.6918 115.397L67.9756 115.018L68.1831 115.292L68.39 115.015L68.1777 114.733L68.4688 114.345L68.6807 114.626L68.8882 114.347L68.6754 114.065L68.9661 113.676L69.4443 114.311C69.519 114.41 69.5086 114.554 69.4411 114.644L68.4228 116.012C68.3544 116.103 68.2352 116.114 68.1662 116.023L67.6918 115.397Z" fill="#FFFF00" stroke="black" stroke-width="0.533335"/>
<path d="M67.3548 116.845C67.1995 116.656 67.4107 116.368 67.5589 116.571L67.9243 117.055L67.7201 117.329L67.3548 116.845Z" fill="black"/>
<path d="M66.6268 119.237C66.4819 119.047 66.6771 118.777 66.8215 118.975L67.1038 119.349L66.9091 119.61L66.6268 119.237Z" fill="black"/>
<path d="M69.1385 115.864C68.9936 115.674 69.1888 115.404 69.3332 115.602L69.6156 115.976L69.4208 116.238L69.1385 115.864Z" fill="black"/>
<path d="M79.0281 80.1458C79.0733 77.6802 80.3855 77.096 80.3949 77.0875C80.4049 77.0786 81.8126 77.716 81.8079 80.1686L79.0281 80.1463" fill="#FFFF00"/>
<path d="M77.8958 77.1352L77.6673 79.9693L79.0542 79.9738C79.0676 77.6288 80.3859 77.2384 80.4177 77.2473C80.4478 77.2455 81.7543 77.7655 81.7888 79.9738H83.1798L82.9285 77.1178L77.8961 77.1348V77.1357L77.8958 77.1352ZM77.5742 79.9805H83.2511C83.3707 79.9805 83.4689 80.1382 83.4689 80.3307C83.4689 80.5227 83.3707 80.6791 83.2511 80.6791H77.5742C77.4546 80.6791 77.3564 80.5227 77.3564 80.3307C77.3564 80.1386 77.4546 79.9805 77.5742 79.9805Z" fill="#FFFF00" stroke="black" stroke-width="0.533335"/>
<path d="M79.6378 79.9671C79.6438 78.4873 80.3956 78.0688 80.3996 78.0697C80.3996 78.0697 81.1842 78.5012 81.1902 79.9671H79.6378ZM77.6948 75.956H83.1369C83.2515 75.956 83.3456 76.0981 83.3456 76.2709C83.3456 76.4438 83.2518 76.5854 83.1369 76.5854H77.6948C77.5802 76.5854 77.4861 76.4442 77.4861 76.2705C77.4861 76.0976 77.5799 75.9556 77.6948 75.9556V75.956ZM77.8087 76.5903H83.0139C83.1235 76.5903 83.2133 76.7319 83.2133 76.9048C83.2133 77.0781 83.1235 77.2192 83.0139 77.2192H77.8087C77.6991 77.2192 77.6094 77.0781 77.6094 76.9048C77.6094 76.7319 77.6991 76.5903 77.8087 76.5903ZM79.4904 71.8601L79.9014 71.861V72.2496H80.2013V71.8521L80.6224 71.8543V72.2505H80.9225V71.8529H81.344L81.3433 72.7507C81.3433 72.8923 81.2582 72.983 81.159 72.983H79.6817C79.5825 72.983 79.4907 72.8776 79.4907 72.7485L79.4894 71.8596L79.4904 71.8601ZM81.0381 73.0616L81.1309 75.9426L79.6894 75.9359L79.7849 73.054L81.0378 73.0616" fill="#FFFF00"/>
<path d="M81.0381 73.0616L81.1309 75.9426L79.6894 75.9359L79.7849 73.054L81.0378 73.0616M79.6378 79.9671C79.6438 78.4873 80.3956 78.0688 80.3996 78.0697C80.3996 78.0697 81.1842 78.5012 81.1902 79.9671H79.6378ZM77.6948 75.956H83.1369C83.2515 75.956 83.3456 76.0981 83.3456 76.2709C83.3456 76.4438 83.2518 76.5854 83.1369 76.5854H77.6948C77.5802 76.5854 77.4861 76.4442 77.4861 76.2705C77.4861 76.0976 77.5799 75.9556 77.6948 75.9556V75.956ZM77.8087 76.5903H83.0139C83.1235 76.5903 83.2133 76.7319 83.2133 76.9048C83.2133 77.0781 83.1235 77.2192 83.0139 77.2192H77.8087C77.6991 77.2192 77.6094 77.0781 77.6094 76.9048C77.6094 76.7319 77.6991 76.5903 77.8087 76.5903ZM79.4904 71.8601L79.9014 71.861V72.2496H80.2013V71.8521L80.6224 71.8543V72.2505H80.9225V71.8529H81.344L81.3433 72.7507C81.3433 72.8923 81.2582 72.983 81.159 72.983H79.6817C79.5825 72.983 79.4907 72.8776 79.4907 72.7485L79.4894 71.8596L79.4904 71.8601Z" stroke="black" stroke-width="0.533335"/>
<path d="M79.2794 74.3972L79.323 75.9507H77.9414L77.9803 74.3972H79.2801H79.2794Z" fill="#FFFF00" stroke="black" stroke-width="0.533335"/>
<path d="M82.8334 74.3972L82.8769 75.9507H81.4954L81.5342 74.3972H82.834H82.8334Z" fill="#FFFF00" stroke="black" stroke-width="0.533335"/>
<path d="M77.7249 73.2715L78.1269 73.2729V73.6623H78.4206V73.2639L78.8327 73.2657V73.6632H79.1275V73.2639L79.5396 73.2648L79.5385 74.1635C79.5385 74.3038 79.4548 74.3949 79.359 74.3949H77.9128C77.8156 74.3949 77.7259 74.2899 77.7259 74.1604L77.7249 73.2715Z" fill="#FFFF00" stroke="black" stroke-width="0.533335"/>
<path d="M81.2791 73.2715L81.6811 73.2729V73.6623H81.9748V73.2639L82.3869 73.2657V73.6632H82.6817V73.2639L83.0938 73.2648L83.0927 74.1635C83.0927 74.3038 83.009 74.3949 82.9132 74.3949H81.467C81.3698 74.3949 81.2801 74.2899 81.2801 74.1604L81.2791 73.2715Z" fill="#FFFF00" stroke="black" stroke-width="0.533335"/>
<path d="M80.2709 73.9728C80.2622 73.6928 80.5647 73.6896 80.5611 73.9728V74.6589H80.2709V73.9728Z" fill="black"/>
<path d="M78.4854 74.9689C78.4843 74.6983 78.7657 74.6929 78.7621 74.9689V75.4991H78.4854V74.9689Z" fill="black"/>
<path d="M82.0501 74.9689C82.049 74.6983 82.3304 74.6929 82.3268 74.9689V75.4991H82.0501V74.9689Z" fill="black"/>
<path d="M97.0171 80.1458C96.9719 77.6802 95.6597 77.096 95.6503 77.0875C95.6402 77.0786 94.2326 77.716 94.2372 80.1686L97.0171 80.1463" fill="#FFFF00"/>
<path d="M98.1494 77.1352L98.3778 79.9693L96.9909 79.9738C96.9775 77.6288 95.6593 77.2384 95.6275 77.2473C95.5973 77.2455 94.2908 77.7655 94.2563 79.9738H92.8654L93.1167 77.1178L98.149 77.1348V77.1357L98.1494 77.1352ZM98.471 79.9805H92.794C92.6744 79.9805 92.5763 80.1382 92.5763 80.3307C92.5763 80.5227 92.6744 80.6791 92.794 80.6791H98.471C98.5906 80.6791 98.6887 80.5227 98.6887 80.3307C98.6887 80.1386 98.5906 79.9805 98.471 79.9805Z" fill="#FFFF00" stroke="black" stroke-width="0.533335"/>
<path d="M96.4074 79.9671C96.4013 78.4873 95.6496 78.0688 95.6456 78.0697C95.6456 78.0697 94.861 78.5012 94.855 79.9671H96.4074ZM98.3504 75.956H92.9083C92.7937 75.956 92.6996 76.0981 92.6996 76.2709C92.6996 76.4438 92.7934 76.5854 92.9083 76.5854H98.3504C98.4649 76.5854 98.5591 76.4442 98.5591 76.2705C98.5591 76.0976 98.4653 75.9556 98.3504 75.9556V75.956ZM98.2365 76.5903H93.0312C92.9217 76.5903 92.8319 76.7319 92.8319 76.9048C92.8319 77.0781 92.9217 77.2192 93.0312 77.2192H98.2365C98.346 77.2192 98.4358 77.0781 98.4358 76.9048C98.4358 76.7319 98.346 76.5903 98.2365 76.5903ZM96.5548 71.8601L96.1437 71.861V72.2496H95.8439V71.8521L95.4228 71.8543V72.2505H95.1226V71.8529H94.7012L94.7019 72.7507C94.7019 72.8923 94.787 72.983 94.8861 72.983H96.3635C96.4626 72.983 96.5544 72.8776 96.5544 72.7485L96.5558 71.8596L96.5548 71.8601ZM95.0071 73.0616L94.9143 75.9426L96.3558 75.9359L96.2603 73.054L95.0074 73.0616" fill="#FFFF00"/>
<path d="M95.0071 73.0616L94.9143 75.9426L96.3558 75.9359L96.2603 73.054L95.0074 73.0616M96.4074 79.9671C96.4013 78.4873 95.6496 78.0688 95.6456 78.0697C95.6456 78.0697 94.861 78.5012 94.855 79.9671H96.4074ZM98.3504 75.956H92.9083C92.7937 75.956 92.6996 76.0981 92.6996 76.2709C92.6996 76.4438 92.7934 76.5854 92.9083 76.5854H98.3504C98.4649 76.5854 98.5591 76.4442 98.5591 76.2705C98.5591 76.0976 98.4653 75.9556 98.3504 75.9556V75.956ZM98.2365 76.5903H93.0312C92.9217 76.5903 92.8319 76.7319 92.8319 76.9048C92.8319 77.0781 92.9217 77.2192 93.0312 77.2192H98.2365C98.346 77.2192 98.4358 77.0781 98.4358 76.9048C98.4358 76.7319 98.346 76.5903 98.2365 76.5903ZM96.5548 71.8601L96.1437 71.861V72.2496H95.8439V71.8521L95.4228 71.8543V72.2505H95.1226V71.8529H94.7012L94.7019 72.7507C94.7019 72.8923 94.787 72.983 94.8861 72.983H96.3635C96.4626 72.983 96.5544 72.8776 96.5544 72.7485L96.5558 71.8596L96.5548 71.8601Z" stroke="black" stroke-width="0.533335"/>
<path d="M96.7658 74.3972L96.7222 75.9507H98.1038L98.0649 74.3972H96.7651H96.7658Z" fill="#FFFF00" stroke="black" stroke-width="0.533335"/>
<path d="M93.2118 74.3972L93.1683 75.9507H94.5498L94.5109 74.3972H93.2111H93.2118Z" fill="#FFFF00" stroke="black" stroke-width="0.533335"/>
<path d="M98.3203 73.2715L97.9183 73.2729V73.6623H97.6245V73.2639L97.2125 73.2657V73.6632H96.9177V73.2639L96.5056 73.2648L96.5066 74.1635C96.5066 74.3038 96.5904 74.3949 96.6862 74.3949H98.1324C98.2295 74.3949 98.3193 74.2899 98.3193 74.1604L98.3203 73.2715Z" fill="#FFFF00" stroke="black" stroke-width="0.533335"/>
<path d="M94.7661 73.2715L94.3641 73.2729V73.6623H94.0703V73.2639L93.6583 73.2657V73.6632H93.3635V73.2639L92.9514 73.2648L92.9524 74.1635C92.9524 74.3038 93.0362 74.3949 93.132 74.3949H94.5782C94.6753 74.3949 94.7651 74.2899 94.7651 74.1604L94.7661 73.2715Z" fill="#FFFF00" stroke="black" stroke-width="0.533335"/>
<path d="M95.7742 73.9728C95.7829 73.6928 95.4804 73.6896 95.4841 73.9728V74.6589H95.7742V73.9728Z" fill="black"/>
<path d="M97.5598 74.9689C97.5608 74.6983 97.2794 74.6929 97.2831 74.9689V75.4991H97.5598V74.9689Z" fill="black"/>
<path d="M93.9951 74.9689C93.9961 74.6983 93.7147 74.6929 93.7184 74.9689V75.4991H93.9951V74.9689Z" fill="black"/>
<path d="M97.0171 100.835C96.9719 98.3698 95.6597 97.7856 95.6503 97.7771C95.6402 97.7681 94.2326 98.4055 94.2372 100.858L97.0171 100.836" fill="#FFFF00"/>
<path d="M98.1494 97.8249L98.3778 100.659L96.9909 100.663C96.9775 98.3185 95.6593 97.9281 95.6275 97.937C95.5973 97.9352 94.2908 98.4552 94.2563 100.663H92.8654L93.1167 97.8075L98.149 97.8245V97.8254L98.1494 97.8249ZM98.471 100.67H92.794C92.6744 100.67 92.5763 100.828 92.5763 101.02C92.5763 101.212 92.6744 101.369 92.794 101.369H98.471C98.5906 101.369 98.6887 101.212 98.6887 101.02C98.6887 100.828 98.5906 100.67 98.471 100.67Z" fill="#FFFF00" stroke="black" stroke-width="0.533335"/>
<path d="M96.4074 100.657C96.4013 99.177 95.6496 98.7585 95.6456 98.7594C95.6456 98.7594 94.861 99.1908 94.855 100.657H96.4074ZM98.3504 96.6457H92.9083C92.7937 96.6457 92.6996 96.7878 92.6996 96.9606C92.6996 97.1335 92.7934 97.2751 92.9083 97.2751H98.3504C98.4649 97.2751 98.5591 97.1339 98.5591 96.9602C98.5591 96.7873 98.4653 96.6453 98.3504 96.6453V96.6457ZM98.2365 97.28H93.0312C92.9217 97.28 92.8319 97.4216 92.8319 97.5945C92.8319 97.7678 92.9217 97.9089 93.0312 97.9089H98.2365C98.346 97.9089 98.4358 97.7678 98.4358 97.5945C98.4358 97.4216 98.346 97.28 98.2365 97.28ZM96.5548 92.5498L96.1437 92.5507V92.9393H95.8439V92.5417L95.4228 92.544V92.9402H95.1226V92.5426H94.7012L94.7019 93.4404C94.7019 93.582 94.787 93.6727 94.8861 93.6727H96.3635C96.4626 93.6727 96.5544 93.5673 96.5544 93.4382L96.5558 92.5493L96.5548 92.5498ZM95.0071 93.7513L94.9143 96.6323L96.3558 96.6256L96.2603 93.7437L95.0074 93.7513" fill="#FFFF00"/>
<path d="M95.0071 93.7513L94.9143 96.6323L96.3558 96.6256L96.2603 93.7437L95.0074 93.7513M96.4074 100.657C96.4013 99.177 95.6496 98.7585 95.6456 98.7594C95.6456 98.7594 94.861 99.1908 94.855 100.657H96.4074ZM98.3504 96.6457H92.9083C92.7937 96.6457 92.6996 96.7878 92.6996 96.9606C92.6996 97.1335 92.7934 97.2751 92.9083 97.2751H98.3504C98.4649 97.2751 98.5591 97.1339 98.5591 96.9602C98.5591 96.7873 98.4653 96.6453 98.3504 96.6453V96.6457ZM98.2365 97.28H93.0312C92.9217 97.28 92.8319 97.4216 92.8319 97.5945C92.8319 97.7678 92.9217 97.9089 93.0312 97.9089H98.2365C98.346 97.9089 98.4358 97.7678 98.4358 97.5945C98.4358 97.4216 98.346 97.28 98.2365 97.28ZM96.5548 92.5498L96.1437 92.5507V92.9393H95.8439V92.5417L95.4228 92.544V92.9402H95.1226V92.5426H94.7012L94.7019 93.4404C94.7019 93.582 94.787 93.6727 94.8861 93.6727H96.3635C96.4626 93.6727 96.5544 93.5673 96.5544 93.4382L96.5558 92.5493L96.5548 92.5498Z" stroke="black" stroke-width="0.533335"/>
<path d="M96.7658 95.0869L96.7222 96.6404H98.1038L98.0649 95.0869H96.7651H96.7658Z" fill="#FFFF00" stroke="black" stroke-width="0.533335"/>
<path d="M93.2118 95.0869L93.1683 96.6404H94.5498L94.5109 95.0869H93.2111H93.2118Z" fill="#FFFF00" stroke="black" stroke-width="0.533335"/>
<path d="M98.3203 93.9612L97.9183 93.9625V94.352H97.6245V93.9536L97.2125 93.9554V94.3529H96.9177V93.9536L96.5056 93.9545L96.5066 94.8532C96.5066 94.9935 96.5904 95.0846 96.6862 95.0846H98.1324C98.2295 95.0846 98.3193 94.9796 98.3193 94.8501L98.3203 93.9612Z" fill="#FFFF00" stroke="black" stroke-width="0.533335"/>
<path d="M94.7661 93.9612L94.3641 93.9625V94.352H94.0703V93.9536L93.6583 93.9554V94.3529H93.3635V93.9536L92.9514 93.9545L92.9524 94.8532C92.9524 94.9935 93.0362 95.0846 93.132 95.0846H94.5782C94.6753 95.0846 94.7651 94.9796 94.7651 94.8501L94.7661 93.9612Z" fill="#FFFF00" stroke="black" stroke-width="0.533335"/>
<path d="M95.7742 94.6625C95.7829 94.3825 95.4804 94.3793 95.4841 94.6625V95.3486H95.7742V94.6625Z" fill="black"/>
<path d="M97.5598 95.6586C97.5608 95.388 97.2794 95.3826 97.2831 95.6586V96.1888H97.5598V95.6586Z" fill="black"/>
<path d="M93.9951 95.6586C93.9961 95.388 93.7147 95.3826 93.7184 95.6586V96.1888H93.9951V95.6586Z" fill="black"/>
<path d="M90.965 122.371C92.2468 120.589 91.6343 118.937 91.6322 118.922C91.6299 118.906 90.2994 118.025 88.996 119.759L90.9648 122.371" fill="#FFFF00"/>
<path d="M93.367 121.318L92.0175 123.534L91.0385 122.225C92.2788 120.558 91.5586 119.036 91.5314 119.012C91.5111 118.983 90.314 118.114 89.1128 119.64L88.1334 118.324L89.8323 116.547L93.367 121.317L93.3665 121.318L93.367 121.318ZM92.0772 123.63L88.0796 118.262C87.9953 118.149 87.8422 118.167 87.7396 118.303C87.6372 118.438 87.623 118.641 87.7073 118.755L91.7049 124.122C91.7891 124.236 91.9415 124.218 92.0439 124.082C92.1462 123.947 92.1614 123.743 92.0772 123.63Z" fill="#FFFF00" stroke="black" stroke-width="0.533335"/>
<path d="M90.6297 121.67C91.4138 120.621 91.1076 119.615 91.1043 119.612C91.1043 119.612 90.3222 119.175 89.537 120.203L90.6297 121.67ZM94.1341 120.678L90.3035 115.534C90.2228 115.426 90.0809 115.437 89.9888 115.559C89.8967 115.681 89.8873 115.869 89.9682 115.978L93.7989 121.122C93.8795 121.23 94.021 121.219 94.1135 121.097C94.2056 120.975 94.2153 120.786 94.1344 120.678L94.1341 120.678ZM93.7161 121.018L90.0521 116.098C89.975 115.994 89.8364 116.009 89.7443 116.131C89.652 116.253 89.64 116.438 89.7171 116.541L93.3811 121.461C93.4582 121.565 93.5966 121.55 93.6889 121.428C93.781 121.306 93.7932 121.121 93.7161 121.018ZM95.0522 116.092L94.7624 115.704L94.5554 115.978L94.3443 115.695L94.5561 115.414L94.2585 115.018L94.0474 115.297L93.8361 115.014L94.0479 114.733L93.7513 114.335L93.2735 114.969C93.198 115.069 93.2096 115.213 93.2794 115.307L94.3193 116.703C94.3891 116.797 94.5099 116.809 94.5787 116.718L95.0531 116.092L95.0522 116.092ZM93.3227 115.476L91.7226 117.421L92.7409 118.778L94.2089 116.656L93.3229 115.477" fill="#FFFF00"/>
<path d="M93.3227 115.476L91.7226 117.421L92.7409 118.778L94.2089 116.656L93.3229 115.477M90.6297 121.67C91.4138 120.621 91.1076 119.615 91.1043 119.612C91.1043 119.612 90.3222 119.175 89.537 120.203L90.6297 121.67ZM94.1341 120.678L90.3035 115.534C90.2228 115.426 90.0809 115.437 89.9888 115.559C89.8967 115.681 89.8873 115.869 89.9682 115.978L93.7989 121.122C93.8795 121.23 94.021 121.219 94.1135 121.097C94.2056 120.975 94.2153 120.786 94.1344 120.678L94.1341 120.678ZM93.7161 121.018L90.0521 116.098C89.975 115.994 89.8364 116.009 89.7443 116.131C89.652 116.253 89.64 116.438 89.7171 116.541L93.3811 121.461C93.4582 121.565 93.5966 121.55 93.6889 121.428C93.781 121.306 93.7932 121.121 93.7161 121.018ZM95.0522 116.092L94.7624 115.704L94.5554 115.978L94.3443 115.695L94.5561 115.414L94.2585 115.018L94.0474 115.297L93.8361 115.014L94.0479 114.733L93.7513 114.335L93.2735 114.969C93.198 115.069 93.2096 115.213 93.2794 115.307L94.3193 116.703C94.3891 116.797 94.5099 116.809 94.5787 116.718L95.0531 116.092L95.0522 116.092Z" stroke="black" stroke-width="0.533335"/>
<path d="M93.8501 118.083L92.9918 119.137L93.9643 120.443L94.7646 119.311L93.8496 118.082L93.8501 118.083Z" fill="#FFFF00" stroke="black" stroke-width="0.533335"/>
<path d="M91.3457 114.72L90.4874 115.775L91.4599 117.081L92.2602 115.948L91.3452 114.72L91.3457 114.72Z" fill="#FFFF00" stroke="black" stroke-width="0.533335"/>
<path d="M95.5433 118.759L95.2595 118.38L95.052 118.655L94.8451 118.377L95.0574 118.096L94.7663 117.708L94.5545 117.988L94.3469 117.709L94.5597 117.428L94.269 117.039L93.7908 117.674C93.7161 117.773 93.7265 117.916 93.794 118.007L94.8123 119.374C94.8807 119.466 94.9999 119.477 95.0689 119.385L95.5433 118.759Z" fill="#FFFF00" stroke="black" stroke-width="0.533335"/>
<path d="M93.0392 115.397L92.7554 115.018L92.5478 115.292L92.3409 115.015L92.5533 114.733L92.2622 114.345L92.0503 114.626L91.8427 114.347L92.0555 114.065L91.7649 113.676L91.2867 114.311C91.2119 114.41 91.2223 114.554 91.2898 114.644L92.3082 116.012C92.3766 116.103 92.4957 116.114 92.5648 116.023L93.0392 115.397Z" fill="#FFFF00" stroke="black" stroke-width="0.533335"/>
<path d="M93.3762 116.845C93.5314 116.656 93.3202 116.368 93.172 116.571L92.8067 117.055L93.0108 117.329L93.3762 116.845Z" fill="black"/>
<path d="M94.1042 119.236C94.249 119.047 94.0539 118.777 93.9095 118.975L93.6271 119.349L93.8218 119.61L94.1042 119.236Z" fill="black"/>
<path d="M91.5925 115.864C91.7373 115.674 91.5422 115.404 91.3978 115.602L91.1154 115.976L91.3101 116.238L91.5925 115.864Z" fill="black"/>
<path d="M77.9334 101.575V101.577C77.9307 102.519 78.1954 103.427 78.6745 104.119C79.1317 104.774 79.7615 105.181 80.4506 105.181C81.1431 105.181 81.7719 104.777 82.2272 104.125C82.6821 103.473 82.9648 102.574 82.9648 101.582V96.7722L77.9425 96.7664L77.9331 101.575" fill="#003399"/>
<path d="M79.0852 99.2593C79.3602 99.2593 79.583 98.9621 79.583 98.5955C79.583 98.2289 79.3602 97.9318 79.0852 97.9318C78.8103 97.9318 78.5874 98.2289 78.5874 98.5955C78.5874 98.9621 78.8103 99.2593 79.0852 99.2593Z" fill="white"/>
<path d="M81.8718 99.2623C82.1468 99.2623 82.3696 98.9651 82.3696 98.5986C82.3696 98.232 82.1468 97.9348 81.8718 97.9348C81.5969 97.9348 81.374 98.232 81.374 98.5986C81.374 98.9651 81.5969 99.2623 81.8718 99.2623Z" fill="white"/>
<path d="M80.4758 101.046C80.7508 101.046 80.9737 100.749 80.9737 100.382C80.9737 100.016 80.7508 99.7184 80.4758 99.7184C80.2009 99.7184 79.978 100.016 79.978 100.382C79.978 100.749 80.2009 101.046 80.4758 101.046Z" fill="white"/>
<path d="M79.0852 102.913C79.3602 102.913 79.583 102.616 79.583 102.25C79.583 101.883 79.3602 101.586 79.0852 101.586C78.8103 101.586 78.5874 101.883 78.5874 102.25C78.5874 102.616 78.8103 102.913 79.0852 102.913Z" fill="white"/>
<path d="M81.8687 102.908C82.1436 102.908 82.3665 102.611 82.3665 102.245C82.3665 101.878 82.1436 101.581 81.8687 101.581C81.5937 101.581 81.3708 101.878 81.3708 102.245C81.3708 102.611 81.5937 102.908 81.8687 102.908Z" fill="white"/>
<path d="M77.9334 89.9546V89.9568C77.9307 90.8984 78.1954 91.8065 78.6745 92.4984C79.1317 93.1536 79.7615 93.5605 80.4506 93.5605C81.1431 93.5605 81.7719 93.1563 82.2272 92.5042C82.6821 91.852 82.9648 90.9533 82.9648 89.9613V85.1516L77.9425 85.1458L77.9331 89.9541" fill="#003399"/>
<path d="M79.0852 87.6387C79.3602 87.6387 79.583 87.3415 79.583 86.9749C79.583 86.6083 79.3602 86.3112 79.0852 86.3112C78.8103 86.3112 78.5874 86.6083 78.5874 86.9749C78.5874 87.3415 78.8103 87.6387 79.0852 87.6387Z" fill="white"/>
<path d="M81.8718 87.6417C82.1468 87.6417 82.3696 87.3445 82.3696 86.978C82.3696 86.6114 82.1468 86.3142 81.8718 86.3142C81.5969 86.3142 81.374 86.6114 81.374 86.978C81.374 87.3445 81.5969 87.6417 81.8718 87.6417Z" fill="white"/>
<path d="M80.4758 89.4253C80.7508 89.4253 80.9737 89.1281 80.9737 88.7615C80.9737 88.395 80.7508 88.0978 80.4758 88.0978C80.2009 88.0978 79.978 88.395 79.978 88.7615C79.978 89.1281 80.2009 89.4253 80.4758 89.4253Z" fill="white"/>
<path d="M79.0852 91.2928C79.3602 91.2928 79.583 90.9957 79.583 90.6291C79.583 90.2625 79.3602 89.9653 79.0852 89.9653C78.8103 89.9653 78.5874 90.2625 78.5874 90.6291C78.5874 90.9957 78.8103 91.2928 79.0852 91.2928Z" fill="white"/>
<path d="M81.8687 91.2879C82.1436 91.2879 82.3665 90.9908 82.3665 90.6242C82.3665 90.2576 82.1436 89.9604 81.8687 89.9604C81.5937 89.9604 81.3708 90.2576 81.3708 90.6242C81.3708 90.9908 81.5937 91.2879 81.8687 91.2879Z" fill="white"/>
<path d="M70.9657 101.575V101.577C70.9629 102.519 71.2277 103.427 71.7067 104.119C72.164 104.774 72.7938 105.181 73.4829 105.181C74.1753 105.181 74.8041 104.777 75.2594 104.125C75.7143 103.473 75.997 102.574 75.997 101.582V96.7722L70.9747 96.7664L70.9653 101.575" fill="#003399"/>
<path d="M72.1174 99.2593C72.3924 99.2593 72.6153 98.9621 72.6153 98.5955C72.6153 98.2289 72.3924 97.9318 72.1174 97.9318C71.8425 97.9318 71.6196 98.2289 71.6196 98.5955C71.6196 98.9621 71.8425 99.2593 72.1174 99.2593Z" fill="white"/>
<path d="M74.9041 99.2623C75.179 99.2623 75.4019 98.9651 75.4019 98.5986C75.4019 98.232 75.179 97.9348 74.9041 97.9348C74.6291 97.9348 74.4062 98.232 74.4062 98.5986C74.4062 98.9651 74.6291 99.2623 74.9041 99.2623Z" fill="white"/>
<path d="M73.5081 101.046C73.783 101.046 74.0059 100.749 74.0059 100.382C74.0059 100.016 73.783 99.7184 73.5081 99.7184C73.2331 99.7184 73.0103 100.016 73.0103 100.382C73.0103 100.749 73.2331 101.046 73.5081 101.046Z" fill="white"/>
<path d="M72.1174 102.913C72.3924 102.913 72.6153 102.616 72.6153 102.25C72.6153 101.883 72.3924 101.586 72.1174 101.586C71.8425 101.586 71.6196 101.883 71.6196 102.25C71.6196 102.616 71.8425 102.913 72.1174 102.913Z" fill="white"/>
<path d="M74.9009 102.908C75.1758 102.908 75.3987 102.611 75.3987 102.245C75.3987 101.878 75.1758 101.581 74.9009 101.581C74.626 101.581 74.4031 101.878 74.4031 102.245C74.4031 102.611 74.626 102.908 74.9009 102.908Z" fill="white"/>
<path d="M84.8829 101.575V101.577C84.8801 102.519 85.1449 103.427 85.6239 104.119C86.0812 104.774 86.711 105.181 87.4001 105.181C88.0925 105.181 88.7213 104.777 89.1766 104.125C89.6315 103.473 89.9143 102.574 89.9143 101.582V96.7722L84.8919 96.7664L84.8826 101.575" fill="#003399"/>
<path d="M86.0347 99.2593C86.3096 99.2593 86.5325 98.9621 86.5325 98.5955C86.5325 98.2289 86.3096 97.9318 86.0347 97.9318C85.7597 97.9318 85.5369 98.2289 85.5369 98.5955C85.5369 98.9621 85.7597 99.2593 86.0347 99.2593Z" fill="white"/>
<path d="M88.8213 99.2623C89.0962 99.2623 89.3191 98.9651 89.3191 98.5986C89.3191 98.232 89.0962 97.9348 88.8213 97.9348C88.5464 97.9348 88.3235 98.232 88.3235 98.5986C88.3235 98.9651 88.5464 99.2623 88.8213 99.2623Z" fill="white"/>
<path d="M87.4253 101.046C87.7002 101.046 87.9231 100.749 87.9231 100.382C87.9231 100.016 87.7002 99.7184 87.4253 99.7184C87.1504 99.7184 86.9275 100.016 86.9275 100.382C86.9275 100.749 87.1504 101.046 87.4253 101.046Z" fill="white"/>
<path d="M86.0347 102.913C86.3096 102.913 86.5325 102.616 86.5325 102.25C86.5325 101.883 86.3096 101.586 86.0347 101.586C85.7597 101.586 85.5369 101.883 85.5369 102.25C85.5369 102.616 85.7597 102.913 86.0347 102.913Z" fill="white"/>
<path d="M88.8181 102.908C89.0931 102.908 89.3159 102.611 89.3159 102.245C89.3159 101.878 89.0931 101.581 88.8181 101.581C88.5432 101.581 88.3203 101.878 88.3203 102.245C88.3203 102.611 88.5432 102.908 88.8181 102.908Z" fill="white"/>
<path d="M77.9334 113.092V113.094C77.9307 114.036 78.1954 114.944 78.6745 115.636C79.1317 116.291 79.7615 116.698 80.4506 116.698C81.1431 116.698 81.7719 116.294 82.2272 115.642C82.6821 114.989 82.9648 114.091 82.9648 113.099V108.289L77.9425 108.283L77.9331 113.092" fill="#003399"/>
<path d="M79.0852 110.776C79.3602 110.776 79.583 110.479 79.583 110.112C79.583 109.746 79.3602 109.449 79.0852 109.449C78.8103 109.449 78.5874 109.746 78.5874 110.112C78.5874 110.479 78.8103 110.776 79.0852 110.776Z" fill="white"/>
<path d="M81.8718 110.779C82.1468 110.779 82.3696 110.482 82.3696 110.115C82.3696 109.749 82.1468 109.452 81.8718 109.452C81.5969 109.452 81.374 109.749 81.374 110.115C81.374 110.482 81.5969 110.779 81.8718 110.779Z" fill="white"/>
<path d="M80.4758 112.563C80.7508 112.563 80.9737 112.266 80.9737 111.899C80.9737 111.532 80.7508 111.235 80.4758 111.235C80.2009 111.235 79.978 111.532 79.978 111.899C79.978 112.266 80.2009 112.563 80.4758 112.563Z" fill="white"/>
<path d="M79.0852 114.43C79.3602 114.43 79.583 114.133 79.583 113.767C79.583 113.4 79.3602 113.103 79.0852 113.103C78.8103 113.103 78.5874 113.4 78.5874 113.767C78.5874 114.133 78.8103 114.43 79.0852 114.43Z" fill="white"/>
<path d="M81.8687 114.425C82.1436 114.425 82.3665 114.128 82.3665 113.762C82.3665 113.395 82.1436 113.098 81.8687 113.098C81.5937 113.098 81.3708 113.395 81.3708 113.762C81.3708 114.128 81.5937 114.425 81.8687 114.425Z" fill="white"/>
</g>
<defs>
<clipPath id="clip0_1456_11865">
<rect width="201" height="201" rx="100.5" fill="white"/>
</clipPath>
</defs>
</svg>
