<svg width="22" height="23" viewBox="0 0 22 23" fill="none" xmlns="http://www.w3.org/2000/svg">
<path d="M8.24992 13.3333L13.7499 7.83333L8.24992 13.3333ZM8.70825 8.29167H8.71742H8.70825ZM13.2916 12.875H13.3008H13.2916ZM17.4166 19.75V5.08333C17.4166 4.5971 17.2234 4.13079 16.8796 3.78697C16.5358 3.44315 16.0695 3.25 15.5833 3.25H6.41659C5.93036 3.25 5.46404 3.44315 5.12022 3.78697C4.77641 4.13079 4.58325 4.5971 4.58325 5.08333V19.75L7.79159 17.9167L10.9999 19.75L14.2083 17.9167L17.4166 19.75ZM9.16659 8.29167C9.16659 8.41322 9.1183 8.5298 9.03234 8.61576C8.94639 8.70171 8.82981 8.75 8.70825 8.75C8.58669 8.75 8.47012 8.70171 8.38416 8.61576C8.29821 8.5298 8.24992 8.41322 8.24992 8.29167C8.24992 8.17011 8.29821 8.05353 8.38416 7.96758C8.47012 7.88162 8.58669 7.83333 8.70825 7.83333C8.82981 7.83333 8.94639 7.88162 9.03234 7.96758C9.1183 8.05353 9.16659 8.17011 9.16659 8.29167ZM13.7499 12.875C13.7499 12.9966 13.7016 13.1131 13.6157 13.1991C13.5297 13.285 13.4131 13.3333 13.2916 13.3333C13.17 13.3333 13.0534 13.285 12.9675 13.1991C12.8815 13.1131 12.8333 12.9966 12.8333 12.875C12.8333 12.7534 12.8815 12.6369 12.9675 12.5509C13.0534 12.465 13.17 12.4167 13.2916 12.4167C13.4131 12.4167 13.5297 12.465 13.6157 12.5509C13.7016 12.6369 13.7499 12.7534 13.7499 12.875Z" stroke="#718096" stroke-width="1.5" stroke-linecap="round" stroke-linejoin="round"/>
</svg>
