<svg width="20" height="21" viewBox="0 0 20 21" fill="none" xmlns="http://www.w3.org/2000/svg">
<path d="M7.49967 6.33325H4.99967C4.55765 6.33325 4.13372 6.50885 3.82116 6.82141C3.5086 7.13397 3.33301 7.55789 3.33301 7.99992V15.4999C3.33301 15.9419 3.5086 16.3659 3.82116 16.6784C4.13372 16.991 4.55765 17.1666 4.99967 17.1666H12.4997C12.9417 17.1666 13.3656 16.991 13.6782 16.6784C13.9907 16.3659 14.1663 15.9419 14.1663 15.4999V12.9999" stroke="#194BFB" stroke-width="1.5" stroke-linecap="round" stroke-linejoin="round"/>
<path d="M7.5 13H10L17.0833 5.91669C17.4149 5.58517 17.6011 5.13553 17.6011 4.66669C17.6011 4.19785 17.4149 3.74821 17.0833 3.41669C16.7518 3.08517 16.3022 2.89893 15.8333 2.89893C15.3645 2.89893 14.9149 3.08517 14.5833 3.41669L7.5 10.5V13Z" stroke="#194BFB" stroke-width="1.5" stroke-linecap="round" stroke-linejoin="round"/>
<path d="M13.333 4.66675L15.833 7.16675" stroke="#194BFB" stroke-width="1.5" stroke-linecap="round" stroke-linejoin="round"/>
</svg>
