<svg width="20" height="21" viewBox="0 0 20 21" fill="none" xmlns="http://www.w3.org/2000/svg">
<path d="M7.08333 8.41667C7.54357 8.41667 7.91667 8.04357 7.91667 7.58333C7.91667 7.1231 7.54357 6.75 7.08333 6.75C6.6231 6.75 6.25 7.1231 6.25 7.58333C6.25 8.04357 6.6231 8.41667 7.08333 8.41667Z" fill="#718096" stroke="#718096" stroke-width="2" stroke-linecap="round" stroke-linejoin="round"/>
<path d="M3.33301 6.3335V9.54933C3.33301 9.99683 3.51051 10.426 3.82717 10.7427L10.5905 17.506C10.7472 17.6627 10.9333 17.787 11.138 17.8719C11.3428 17.9567 11.5622 18.0003 11.7838 18.0003C12.0055 18.0003 12.2249 17.9567 12.4297 17.8719C12.6344 17.787 12.8205 17.6627 12.9772 17.506L17.0055 13.4777C17.1622 13.321 17.2866 13.1349 17.3714 12.9302C17.4562 12.7254 17.4999 12.506 17.4999 12.2843C17.4999 12.0627 17.4562 11.8432 17.3714 11.6385C17.2866 11.4337 17.1622 11.2477 17.0055 11.091L10.2413 4.32766C9.92504 4.01141 9.49612 3.83367 9.04884 3.8335H5.83301C5.16997 3.8335 4.53408 4.09689 4.06524 4.56573C3.5964 5.03457 3.33301 5.67045 3.33301 6.3335V6.3335Z" stroke="#718096" stroke-width="1.5" stroke-linecap="round" stroke-linejoin="round"/>
</svg>
