<svg width="201" height="201" viewBox="0 0 201 201" fill="none" xmlns="http://www.w3.org/2000/svg">
<g clip-path="url(#clip0_1456_12003)">
<path fill-rule="evenodd" clip-rule="evenodd" d="M0 0H286.428V15.4617H0V0ZM0 30.9234H286.428V46.3851H0V30.9234ZM0 61.8468H286.428V77.3084H0V61.8468ZM0 92.7701H286.428V108.232H0V92.7701ZM0 123.694H286.428V139.155H0V123.694ZM0 154.617H286.428V170.079H0V154.617ZM0 185.54H286.428V201.002H0V185.54Z" fill="#BD3D44"/>
<path fill-rule="evenodd" clip-rule="evenodd" d="M0 15.4617H286.428V30.9234H0V15.4617ZM0 46.3851H286.428V61.8467H0V46.3851ZM0 77.3084H286.428V92.7701H0V77.3084ZM0 108.232H286.428V123.693H0V108.232ZM0 139.155H286.428V154.617H0V139.155ZM0 170.079H286.428V185.54H0V170.079Z" fill="white"/>
<path fill-rule="evenodd" clip-rule="evenodd" d="M0 0H114.57V108.23H0V0Z" fill="#192F5D"/>
<path fill-rule="evenodd" clip-rule="evenodd" d="M9.54751 4.63245L10.5898 8.90998H13.9634L11.234 11.554L12.2766 15.8315L9.54721 13.1879L6.8184 15.8315L7.8607 11.554L5.13159 8.90998H8.50492L9.54751 4.63245ZM28.6424 4.63245L29.685 8.90998H33.0586L30.3292 11.554L31.3718 15.8315L28.6424 13.1879L25.9136 15.8315L26.9559 11.554L24.2268 8.90998H27.6001L28.6424 4.63245ZM47.7382 4.63245L48.7805 8.90998H52.1541L49.4247 11.554L50.4673 15.8315L47.7382 13.1879L45.0091 15.8315L46.0514 11.554L43.3223 8.90998H46.6959L47.7382 4.63245ZM66.8328 4.63245L67.8751 8.90998H71.2484L68.5193 11.554L69.5616 15.8315L66.8328 13.1879L64.1034 15.8315L65.146 11.554L62.4166 8.90998H65.7902L66.8328 4.63245ZM85.9283 4.63245L86.9706 8.90998H90.3442L87.6148 11.554L88.6574 15.8315L85.928 13.1879L83.1992 15.8315L84.2415 11.554L81.5124 8.90998H84.8857L85.9283 4.63245ZM105.024 4.63245L106.066 8.90998H109.44L106.71 11.554L107.753 15.8315L105.024 13.1879L102.294 15.8315L103.337 11.554L100.608 8.90998H103.981L105.024 4.63245ZM19.0954 15.4558L20.1377 19.7334H23.5113L20.7819 22.377L21.8248 26.6549L19.0954 24.0113L16.3663 26.6549L17.4086 22.377L14.6795 19.7334H18.0531L19.0954 15.4558ZM38.19 15.4558L39.2323 19.7334H42.6056L39.8765 22.377L40.9188 26.6549L38.19 24.0113L35.4606 26.6549L36.5032 22.377L33.7738 19.7334H37.1474L38.19 15.4558ZM57.2855 15.4558L58.3278 19.7334H61.7014L58.972 22.377L60.0146 26.6549L57.2852 24.0113L54.5564 26.6549L55.5987 22.377L52.8696 19.7334H56.2429L57.2855 15.4558ZM76.381 15.4558L77.4233 19.7334H80.7969L78.0675 22.377L79.1101 26.6549L76.381 24.0113L73.6516 26.6549L74.6948 22.377L71.9654 19.7334H75.339L76.381 15.4558ZM95.4756 15.4558L96.5179 19.7334H99.8912L97.1621 22.377L98.2044 26.6549L95.4756 24.0113L92.7462 26.6549L93.7888 22.377L91.0594 19.7334H94.433L95.4756 15.4558ZM9.54751 26.2788L10.5898 30.5563H13.9634L11.234 33.2004L12.2766 37.4779L9.54721 34.8343L6.8184 37.4779L7.8607 33.2004L5.13159 30.5563H8.50492L9.54751 26.2788ZM28.6424 26.2788L29.685 30.5563H33.0586L30.3292 33.2004L31.3718 37.4779L28.6424 34.8343L25.9136 37.4779L26.9559 33.2004L24.2268 30.5563H27.6001L28.6424 26.2788ZM47.7382 26.2788L48.7805 30.5563H52.1541L49.4247 33.2004L50.4673 37.4779L47.7382 34.8343L45.0091 37.4779L46.0514 33.2004L43.3223 30.5563H46.6959L47.7382 26.2788ZM66.8328 26.2788L67.8751 30.5563H71.2484L68.5193 33.2004L69.5616 37.4779L66.8328 34.8343L64.1034 37.4779L65.146 33.2004L62.4166 30.5563H65.7902L66.8328 26.2788ZM85.9283 26.2788L86.9706 30.5563H90.3442L87.6148 33.2004L88.6574 37.4779L85.928 34.8343L83.1992 37.4779L84.2415 33.2004L81.5124 30.5563H84.8857L85.9283 26.2788ZM105.024 26.2788L106.066 30.5563H109.44L106.71 33.2004L107.753 37.4779L105.024 34.8343L102.294 37.4779L103.337 33.2004L100.608 30.5563H103.981L105.024 26.2788ZM19.0954 37.1018L20.1377 41.3797H23.5113L20.7819 44.0233L21.8248 48.3013L19.0954 45.6576L16.3663 48.3013L17.4086 44.0233L14.6795 41.3797H18.0531L19.0954 37.1018ZM38.19 37.1018L39.2323 41.3797H42.6056L39.8765 44.0233L40.9188 48.3013L38.19 45.6576L35.4606 48.3013L36.5032 44.0233L33.7738 41.3797H37.1474L38.19 37.1018ZM57.2855 37.1018L58.3278 41.3797H61.7014L58.972 44.0233L60.0146 48.3013L57.2852 45.6576L54.5564 48.3013L55.5987 44.0233L52.8696 41.3797H56.2429L57.2855 37.1018ZM76.381 37.1018L77.4233 41.3797H80.7969L78.0675 44.0233L79.1101 48.3013L76.381 45.6576L73.6516 48.3013L74.6945 44.0233L71.9651 41.3797H75.3387L76.381 37.1018ZM95.4756 37.1018L96.5179 41.3797H99.8912L97.1621 44.0233L98.2044 48.3013L95.4756 45.6576L92.7462 48.3013L93.7888 44.0233L91.0594 41.3797H94.433L95.4756 37.1018ZM9.54751 47.9252L10.5898 52.2027H13.9634L11.234 54.8467L12.2766 59.1243L9.54721 56.4806L6.8184 59.1243L7.8607 54.8467L5.13159 52.2027H8.50492L9.54751 47.9252ZM28.6424 47.9252L29.685 52.2027H33.0586L30.3292 54.8467L31.3718 59.1243L28.6424 56.4806L25.9136 59.1243L26.9559 54.8467L24.2268 52.2027H27.6001L28.6424 47.9252ZM47.7382 47.9252L48.7805 52.2027H52.1541L49.4247 54.8467L50.4673 59.1243L47.7382 56.4806L45.0091 59.1243L46.0514 54.8467L43.3223 52.2027H46.6959L47.7382 47.9252ZM66.8328 47.9252L67.8751 52.2027H71.2484L68.5193 54.8467L69.5616 59.1243L66.8328 56.4806L64.1034 59.1243L65.146 54.8467L62.4166 52.2027H65.7902L66.8328 47.9252ZM85.9283 47.9252L86.9706 52.2027H90.3442L87.6148 54.8467L88.6574 59.1243L85.928 56.4806L83.1992 59.1243L84.2415 54.8467L81.5124 52.2027H84.8857L85.9283 47.9252ZM105.024 47.9252L106.066 52.2027H109.44L106.71 54.8467L107.753 59.1243L105.024 56.4806L102.294 59.1243L103.337 54.8467L100.608 52.2027H103.981L105.024 47.9252ZM19.0954 58.7482L20.1377 63.0261H23.5113L20.7819 65.6697L21.8248 69.9476L19.0954 67.304L16.3663 69.9476L17.4086 65.6697L14.6795 63.0261H18.0531L19.0954 58.7482ZM38.19 58.7482L39.2323 63.0261H42.6056L39.8765 65.6697L40.9188 69.9476L38.19 67.304L35.4606 69.9476L36.5032 65.6697L33.7738 63.0261H37.1474L38.19 58.7482ZM57.2855 58.7482L58.3278 63.0261H61.7014L58.972 65.6697L60.0146 69.9476L57.2852 67.304L54.5564 69.9476L55.5987 65.6697L52.8696 63.0261H56.2429L57.2855 58.7482ZM76.381 58.7482L77.4233 63.0261H80.7969L78.0675 65.6697L79.1101 69.9476L76.381 67.304L73.6516 69.9476L74.6945 65.6697L71.9651 63.0261H75.3387L76.381 58.7482ZM95.4756 58.7482L96.5179 63.0261H99.8912L97.1621 65.6697L98.2044 69.9476L95.4756 67.304L92.7462 69.9476L93.7888 65.6697L91.0594 63.0261H94.433L95.4756 58.7482ZM9.54751 69.5715L10.5898 73.8491H13.9634L11.234 76.4931L12.2766 80.7706L9.54721 78.127L6.8184 80.7706L7.8607 76.4931L5.13159 73.8491H8.50492L9.54751 69.5715ZM28.6424 69.5715L29.685 73.8491H33.0586L30.3292 76.4931L31.3718 80.7706L28.6424 78.127L25.9136 80.7706L26.9559 76.4931L24.2268 73.8491H27.6001L28.6424 69.5715ZM47.7382 69.5715L48.7805 73.8491H52.1541L49.4247 76.4931L50.4673 80.7706L47.7382 78.127L45.0091 80.7706L46.0514 76.4931L43.3223 73.8491H46.6959L47.7382 69.5715ZM66.8328 69.5715L67.8751 73.8491H71.2484L68.5193 76.4931L69.5616 80.7706L66.8328 78.127L64.1034 80.7706L65.146 76.4931L62.4166 73.8491H65.7902L66.8328 69.5715ZM85.9283 69.5715L86.9706 73.8491H90.3442L87.6148 76.4931L88.6574 80.7706L85.928 78.127L83.1992 80.7706L84.2415 76.4931L81.5124 73.8491H84.8857L85.9283 69.5715ZM105.024 69.5715L106.066 73.8491H109.44L106.71 76.4931L107.753 80.7706L105.024 78.127L102.294 80.7706L103.337 76.4931L100.608 73.8491H103.981L105.024 69.5715ZM19.0954 80.3945L20.1377 84.6725H23.5113L20.7819 87.3161L21.8248 91.594L19.0954 88.9504L16.3663 91.594L17.4086 87.3161L14.6795 84.6725H18.0531L19.0954 80.3945ZM38.19 80.3945L39.2323 84.6725H42.6056L39.8765 87.3161L40.9188 91.594L38.19 88.9504L35.4606 91.594L36.5032 87.3161L33.7738 84.6725H37.1474L38.19 80.3945ZM57.2855 80.3945L58.3278 84.6725H61.7014L58.972 87.3161L60.0146 91.594L57.2852 88.9504L54.5564 91.594L55.5987 87.3161L52.8696 84.6725H56.2429L57.2855 80.3945ZM76.381 80.3945L77.4233 84.6725H80.7969L78.0675 87.3161L79.1101 91.594L76.381 88.9504L73.6516 91.594L74.6945 87.3161L71.9651 84.6725H75.3387L76.381 80.3945ZM95.4756 80.3945L96.5179 84.6725H99.8912L97.1621 87.3161L98.2044 91.594L95.4756 88.9504L92.7462 91.594L93.7888 87.3161L91.0594 84.6725H94.433L95.4756 80.3945ZM9.54751 91.2179L10.5898 95.4954H13.9634L11.234 98.1395L12.2766 102.417L9.54721 99.7734L6.8184 102.417L7.8607 98.1395L5.13159 95.4954H8.50492L9.54751 91.2179ZM28.6424 91.2179L29.685 95.4954H33.0586L30.3292 98.1395L31.3718 102.417L28.6424 99.7734L25.9136 102.417L26.9559 98.1395L24.2268 95.4954H27.6001L28.6424 91.2179ZM47.7382 91.2179L48.7805 95.4954H52.1541L49.4247 98.1395L50.4673 102.417L47.7382 99.7734L45.0091 102.417L46.0514 98.1395L43.3223 95.4954H46.6959L47.7382 91.2179ZM66.8328 91.2179L67.8751 95.4954H71.2484L68.5193 98.1395L69.5616 102.417L66.8328 99.7734L64.1034 102.417L65.146 98.1395L62.4166 95.4954H65.7902L66.8328 91.2179ZM85.9283 91.2179L86.9706 95.4954H90.3442L87.6148 98.1395L88.6574 102.417L85.928 99.7734L83.1992 102.417L84.2415 98.1395L81.5124 95.4954H84.8857L85.9283 91.2179ZM105.024 91.2179L106.066 95.4954H109.44L106.71 98.1395L107.753 102.417L105.024 99.7734L102.294 102.417L103.337 98.1395L100.608 95.4954H103.981L105.024 91.2179Z" fill="white"/>
</g>
<defs>
<clipPath id="clip0_1456_12003">
<rect width="201" height="201" rx="100.5" fill="white"/>
</clipPath>
</defs>
</svg>
