<svg width="25" height="26" viewBox="0 0 25 26" fill="none" xmlns="http://www.w3.org/2000/svg">
<path d="M12.409 0.92984C19.1872 0.92984 24.6817 6.42791 24.6817 13.2105C24.6817 19.9932 19.1872 25.4912 12.409 25.4912C5.63073 25.4912 0.13623 19.9932 0.13623 13.2105H2.59077C2.59077 18.6362 6.98686 23.0351 12.409 23.0351C17.831 23.0351 22.2271 18.6362 22.2271 13.2105C22.2271 7.78493 17.831 3.38598 12.409 3.38598C9.03395 3.38598 6.05659 5.08931 4.29055 7.68423H7.49986V10.1404H0.13623V2.77195H2.59077V5.84212C4.82932 2.85791 8.39454 0.92984 12.409 0.92984ZM13.6362 7.07019V12.7009L17.6163 16.6835L15.8797 18.4212L11.1817 13.7177V7.07019H13.6362Z" fill="#1A202C"/>
</svg>
