<svg width="20" height="20" viewBox="0 0 20 20" fill="none" xmlns="http://www.w3.org/2000/svg">
<path d="M10.55 2.09845L10.525 2.15678L8.1083 7.76512H5.7333C5.16663 7.76512 4.62497 7.88178 4.1333 8.09012L5.59163 4.60679L5.62497 4.52345L5.6833 4.39012C5.69997 4.34012 5.71663 4.29012 5.74163 4.24845C6.8333 1.72345 8.06663 1.14845 10.55 2.09845Z" stroke="#194BFB" stroke-width="1.5" stroke-linecap="round" stroke-linejoin="round"/>
<path d="M15.0417 7.93178C14.6667 7.81512 14.2667 7.76512 13.8667 7.76512H8.1084L10.5251 2.15678L10.5501 2.09845C10.6751 2.14012 10.7917 2.19845 10.9167 2.24845L12.7584 3.02345C13.7834 3.44845 14.5001 3.89012 14.9334 4.42345C15.0167 4.52345 15.0834 4.61512 15.1417 4.72345C15.2167 4.84012 15.2751 4.95678 15.3084 5.08178C15.3417 5.15678 15.3667 5.23178 15.3834 5.29845C15.6084 5.99845 15.4751 6.85678 15.0417 7.93178Z" stroke="#194BFB" stroke-width="1.5" stroke-linecap="round" stroke-linejoin="round"/>
<path d="M17.9346 11.832V13.457C17.9346 13.6236 17.9263 13.7903 17.9179 13.957C17.7596 16.8653 16.1346 18.332 13.0513 18.332H6.55127C6.35127 18.332 6.15127 18.3153 5.9596 18.2903C3.3096 18.1153 1.89294 16.6986 1.71794 14.0486C1.69294 13.857 1.67627 13.657 1.67627 13.457V11.832C1.67627 10.157 2.69294 8.7153 4.14294 8.0903C4.64294 7.88197 5.17627 7.7653 5.74294 7.7653H13.8763C14.2846 7.7653 14.6846 7.82364 15.0513 7.93197C16.7096 8.44031 17.9346 9.9903 17.9346 11.832Z" stroke="#194BFB" stroke-width="1.5" stroke-linecap="round" stroke-linejoin="round"/>
<path d="M5.5915 4.60678L4.13317 8.09011C2.68317 8.71511 1.6665 10.1568 1.6665 11.8318V9.39011C1.6665 7.02345 3.34984 5.04845 5.5915 4.60678Z" stroke="#194BFB" stroke-width="1.5" stroke-linecap="round" stroke-linejoin="round"/>
<path d="M17.9322 9.38971V11.8314C17.9322 9.99804 16.7155 8.43971 15.0488 7.93971C15.4822 6.85638 15.6072 6.00638 15.3988 5.29804C15.3822 5.22304 15.3572 5.14804 15.3238 5.08138C16.8738 5.88138 17.9322 7.52304 17.9322 9.38971Z" stroke="#194BFB" stroke-width="1.5" stroke-linecap="round" stroke-linejoin="round"/>
</svg>
